<?xml version="1.0" standalone="no"?>
<!DOCTYPE svg PUBLIC "-//W3C//DTD SVG 1.1//EN" "http://www.w3.org/Graphics/SVG/1.1/DTD/svg11.dtd" >
<svg xmlns="http://www.w3.org/2000/svg" xmlns:xlink="http://www.w3.org/1999/xlink" version="1.1">
<metadata></metadata>
<defs>
<font id="great_vibesregular" horiz-adv-x="686" >
<font-face units-per-em="2048" ascent="1638" descent="-410" />
<missing-glyph horiz-adv-x="530" />
<glyph unicode="&#xd;" horiz-adv-x="681" />
<glyph unicode=" "  horiz-adv-x="530" />
<glyph unicode="&#x09;" horiz-adv-x="530" />
<glyph unicode="&#xa0;" horiz-adv-x="530" />
<glyph unicode="!" horiz-adv-x="716" d="M244 31q0 55 32.5 81.5t67.5 26.5t53.5 -21.5t18.5 -38t-4 -38t-33 -46t-63.5 -24.5t-53 21.5t-18.5 38.5zM399 221l2 15l521 991q22 43 106 43l64 -2l10 -4l4 -13q-18 -49 -345 -530t-341 -502z" />
<glyph unicode="&#x22;" horiz-adv-x="651" d="M348 1278q-2 27 16.5 47.5t45.5 20.5q47 0 47 -70t-70 -336h-20zM571 1280q-2 29 14.5 47.5t45.5 18.5q49 0 49 -60q0 -63 -35 -201.5t-37 -144.5h-20z" />
<glyph unicode="#" horiz-adv-x="1527" d="M51 469l62 96h319l172 289h-348l59 98h349l282 473h113l-287 -473h287l284 473h111l-285 -473h304l-58 -98h-305l-170 -289h330l-60 -96h-329l-285 -469h-109l281 469h-283l-284 -469h-109l283 469h-324zM541 565h286l172 289h-284z" />
<glyph unicode="$" horiz-adv-x="919" d="M-137 109q2 14 37 49h18q84 -88 221 -115l305 557q-123 152 -122.5 258.5t75.5 181.5q137 137 369 138l57 106l66 12l-68 -125q78 -12 115 -61t37 -108.5t-32 -99.5t-76 -40t-69.5 26.5t-25.5 64.5t26.5 63.5t54.5 25.5t49.5 -11t25.5 -23q-14 98 -129 122l-240 -434 q137 -180 137 -303t-86 -217t-202.5 -137t-235.5 -43l-57 -109l-70 -12l72 125q-199 37 -252 109zM193 37q141 0 256.5 91t115.5 228q0 88 -84 201zM451 913q0 -43 14 -71.5t35.5 -62.5t23.5 -38l221 398l-28 2q-98 0 -182 -65.5t-84 -162.5z" />
<glyph unicode="%" horiz-adv-x="1271" d="M-68 -162q293 307 637 729q102 127 326 402q-199 -170 -326 -170q-72 0 -120 51q-90 -70 -175 -70q-150 0 -149 189q0 88 45 186q61 141 173 242.5t212 101.5q154 0 154 -147q0 -176 -156 -389q-35 -49 -66 -78q29 -51 86 -51q96 0 273 141q51 41 205.5 211t164 176t30 6 t24.5 -14l-1260 -1526h-76zM239 917q0 -92 74 -92q49 0 113 54q-35 53 -31 100q0 88 70 88q27 0 44 -17.5t17 -38t-4 -28.5q37 51 76 143q57 133 57 211t-53 93q-12 4 -24 4q-55 0 -130 -73t-137 -202q-72 -150 -72 -242zM569 129q0 86 45 184q61 143 173 243.5t212 100.5 q156 0 156 -155.5t-127 -339.5q-154 -221 -309 -221q-150 0 -150 188zM684 75.5q0 -91.5 72 -91.5q33 0 78 27.5t68.5 54t68.5 84t87 176t42 176.5q0 90 -76 90q-57 0 -132 -71.5t-136 -201.5q-72 -152 -72 -243.5z" />
<glyph unicode="&#x26;" horiz-adv-x="1241" d="M20 270q0 86 27 160q72 195 289 301q125 61 280 78q-57 80 -56 200.5t105.5 227t240.5 155t265 48.5q106 0 181 -43t75 -137q0 -59 -36.5 -105.5t-82.5 -46.5t-74 27.5t-28 68.5t28 67.5t64 26.5q25 0 47.5 -11t26.5 -25q2 12 2 24q0 45 -37 70q-39 29 -116.5 28.5 t-182 -42.5t-196.5 -121.5t-146 -196.5q-29 -66 -28.5 -117t18.5 -92l137 4q86 0 115 -37q14 -16 14 -32.5t-10 -28.5q-25 -31 -92 -31q-117 0 -207 90q-229 -35 -348 -243q-76 -135 -76 -265q0 -72 23 -141q68 -197 293 -197q201 0 348 135.5t147 268.5q0 63 -54 105 t-114.5 49.5t-102.5 7.5t-108.5 -9.5t-132.5 -54.5q-78 -53 -78 -141t138 -160q20 -12 17 -31.5t-17 -11.5q-129 70 -183 158q-37 57 -37 96t11 64q25 72 123 121t249 49h363q106 0 262 71q76 35 111 82q16 25 16 52.5t-12.5 48t-10 28.5t11.5 8t15 -10q29 -49 29 -93 t-27 -81q-51 -78 -174 -125t-254 -47h-10q78 -63 78 -162q0 -137 -160 -282q-76 -72 -194.5 -117t-249.5 -45q-317 0 -449 184q-66 92 -66 178zM702 786q49 -61 132.5 -61t83.5 27q0 37 -152 36q-31 0 -64 -2z" />
<glyph unicode="'" horiz-adv-x="323" d="M158 799q0 12 16 18q61 23 105.5 68t52.5 110q-31 -20 -62.5 -20t-50 22.5t-18.5 39t4 38t32.5 46t66.5 24.5t59.5 -34t21.5 -79q0 -90 -62.5 -150.5t-142.5 -86.5q-6 -2 -14 -2t-8 6z" />
<glyph unicode="(" horiz-adv-x="716" d="M51.5 418q-0.5 102 32.5 246q31 115 115 249t203.5 259.5t282.5 228t331 145.5q18 4 32.5 4t14.5 -12q-2 -20 -47 -35q-133 -35 -254 -110.5t-206 -162.5t-155 -192q-231 -342 -231 -692q0 -264 129 -373q61 -51 147 -51q18 0 47 3t31 -15q2 -33 -106.5 -33t-212 93 t-139.5 274q-14 72 -14.5 174z" />
<glyph unicode=")" horiz-adv-x="1060" d="M29 -96q0 23 49 35q164 43 307 144t238 226q299 397 299 787q0 264 -129 370q-63 53 -150 54q-16 0 -44 -3.5t-32 15.5q-2 33 106.5 33t212 -93.5t140.5 -273.5q14 -72 14 -174t-32 -246q-41 -156 -168 -334t-334 -334.5t-430 -213.5q-18 -4 -32.5 -4.5t-14.5 12.5z" />
<glyph unicode="*" horiz-adv-x="882" d="M33 756q0 41 43 41h297q-57 131 -117 256q-18 39 8 45q6 2 10 2q29 0 52 -45l120 -236l238 240q31 31 41 4q4 -8 4 -26.5t-31 -51.5l-174 -188h279q33 0 33 -21q0 -31 -52 -43l-20 -2l-270 -10q57 -117 108 -215q8 -16 -4 -43q-18 -33 -37.5 -33t-36.5 27l-102 229 l-223 -244q-14 -14 -40 -7t-35 25.5t15 47.5l205 207l-270 -10q-18 0 -29.5 18.5t-11.5 32.5z" />
<glyph unicode="+" horiz-adv-x="937" d="M279 436q6 54 47 60l284 -7q6 25 21 89q35 145 47 196q16 55 47 55q23 0 13.5 -36.5t-60.5 -303.5q39 -2 131 -2h135q23 0 30 -10t7 -18q0 -27 -43 -27q-96 0 -272 -12q-6 -37 -19 -101q-27 -152 -29 -180q-4 -23 -49 -33q-12 -2 -22 -2q-29 0 -29 25q0 12 72 287 q-49 -4 -154.5 -10.5t-134.5 -8.5q-23 -2 -22 39z" />
<glyph unicode="," horiz-adv-x="313" d="M0 -203q0 10 16 17q61 20 104.5 66t51.5 112q-27 -20 -59.5 -20.5t-53 24t-14.5 59.5q4 35 34 59.5t68.5 24.5t62 -27.5t23.5 -70.5q0 -92 -66.5 -157.5t-146.5 -92.5q-8 -4 -14 -4t-6 10z" />
<glyph unicode="-" horiz-adv-x="831" d="M301 453q0 43 35 43q133 0 450 -9q35 -2 43 -26q-4 -25 -34 -29q-160 0 -311 -18l-150 -17q-12 0 -22.5 20t-10.5 36z" />
<glyph unicode="." horiz-adv-x="425" d="M209 31q0 55 32.5 81.5t67.5 26.5t53.5 -21.5t18.5 -38t-4 -38t-33 -46t-63.5 -24.5t-53 21.5t-18.5 38.5z" />
<glyph unicode="/" horiz-adv-x="1122" d="M33 -68.5q0 15.5 32.5 43t97 98t158 181.5t180.5 216t218 271t224 282t246.5 312.5t240.5 302.5q25 33 70.5 33t45.5 -29q0 -14 -14 -28q-106 -123 -444.5 -544.5t-612.5 -743.5q-350 -410 -426 -410q-16 0 -16 15.5z" />
<glyph unicode="0" horiz-adv-x="1028" d="M106 244q0 158 111 379t288 392t339 171q190 -1 190 -228q0 -123 -59.5 -289.5t-152.5 -321t-227 -262.5t-254 -108t-177.5 77t-57.5 190zM229 172q0 -154 125 -154q129 0 275.5 195t236.5 425t90 369.5t-110 139.5q-94 0 -208 -120t-202 -280.5t-147.5 -323.5 t-59.5 -251z" />
<glyph unicode="1" horiz-adv-x="774" d="M123 12q102 182 288.5 516t264.5 471q-166 -150 -334 -251h-8l-8 16l4 12q272 207 352 293t115 90l63 6h4t8 -2v-10l-622 -1143q-11 -6 -107 -14l-18 4z" />
<glyph unicode="2" horiz-adv-x="999" d="M2 0q2 10 96.5 113.5t104.5 107.5q31 4 45 -2q639 569 639 807q0 90 -102.5 90t-195.5 -99t-138 -218l-9 -8h-24l-4 12q53 150 169.5 263.5t260.5 113.5q82 0 134 -45t52 -131t-127 -233.5t-238.5 -246t-158.5 -138.5t-130 -107.5t-87 -71.5q233 -117 282.5 -117 t100.5 35t86 74t43 41l14 -13v-8q-201 -244 -323 -244q-43 0 -124 35t-135.5 59.5t-60.5 26.5l-143 -112z" />
<glyph unicode="3" horiz-adv-x="937" d="M20 27v10l15 12l10 4q66 -31 143 -30q160 0 325 156.5t165 318.5q0 59 -41 93t-91 34t-155 -29l-14 6l-2 19l8 10q313 129 420 274q51 70 51 141.5t-80 71.5q-121 0 -282 -182h-11l-14 12v10q184 225 373 226q68 0 111.5 -30.5t43.5 -96.5q0 -223 -454 -387 q111 0 193.5 -44t82.5 -154t-103.5 -230.5t-244.5 -192.5t-261 -72t-188 50z" />
<glyph unicode="4" horiz-adv-x="950" d="M162 373v16q18 37 153 174q264 264 451 514q41 51 67.5 62.5t40 14.5t47 8t56.5 9l14 -6l2 -14q0 -39 -272 -295q-74 -70 -157 -144.5t-145.5 -131t-117.5 -105.5t-61 -55l444 8l133 258q10 23 31 27q33 10 49 10l37 2l12 -6l2 -12q0 -6 -61.5 -127t-75.5 -146h49l12 -8 l-10 -23l-14 -10l-60 -2q-182 -365 -190 -373t-63.5 -20t-69.5 -12l-10 2v8q0 25 204 389z" />
<glyph unicode="5" horiz-adv-x="911" d="M-25 -2v14l13 15l8 4q49 -18 127 -19q172 0 348 174t176 346q0 63 -34.5 97.5t-89 34.5t-97.5 -16.5t-102.5 -52.5t-79.5 -46l-13 4v12q14 41 161 297.5t167 272.5q53 18 91 18t80 -6t142.5 -6t157.5 43l8 -4q-35 -92 -123 -131t-176 -39l-209 6l-225 -391q137 92 275 92 q90 0 147 -45t57 -133q0 -135 -111.5 -269.5t-266 -215.5t-275.5 -81t-156 25z" />
<glyph unicode="6" horiz-adv-x="862" d="M76 211q0 117 80 269.5t209 289.5q238 252 495 432l12 2l15 -22q-2 -2 -5 -8.5t-14.5 -18.5t-63.5 -54t-67 -54q-143 -133 -256.5 -283t-198.5 -316.5t-85 -295.5q0 -55 29.5 -91t82.5 -36q90 0 183.5 94t147.5 216t54 207t-69 85q-63 0 -129 -62q-100 -94 -168 -264 l-9 -10l-20 -2l-4 12q33 137 142.5 263t236.5 126q70 0 107.5 -45t37.5 -117q0 -113 -80 -242.5t-203.5 -219t-232 -89.5t-168 58.5t-59.5 175.5z" />
<glyph unicode="7" horiz-adv-x="999" d="M20 4q14 61 799 817q133 127 203 193l-326 8q-61 0 -105 -22.5t-63 -49.5q-47 -72 -75 -76l-7 5v12q86 170 154 218t245 48t290 -14q27 20 41 20l8 -12l-4 -14q-63 -72 -340 -363q-285 -297 -557 -645q-92 -117 -104.5 -122t-143.5 -17l-12 6z" />
<glyph unicode="8" horiz-adv-x="860" d="M29 163q0 81 41 155.5t118 148.5q133 125 258 217q-35 80 -34 164q0 133 105.5 233.5t238.5 100.5q82 0 135 -40t53 -108.5t-28.5 -132t-84.5 -127.5q-88 -98 -196 -192q39 -86 39 -232.5t-130 -259.5t-282 -113q-96 0 -164.5 52.5t-68.5 133.5zM123 170q0 -70 37 -110 t106 -40q113 0 195 93.5t82 208t-86 323.5q-334 -248 -334 -475zM545 914q0 -87 76 -289q98 82 173.5 190.5t75.5 210.5q0 53 -29.5 84t-82.5 31q-86 0 -149.5 -70t-63.5 -157z" />
<glyph unicode="9" horiz-adv-x="890" d="M119 -27l8 13q496 348 627 864q20 78 20 147q0 141 -112 142q-92 0 -186.5 -82t-151 -194.5t-56.5 -203.5q0 -115 103 -114q162 0 280 284l8 7l23 -2l2 -11q-55 -143 -160.5 -270t-226.5 -127q-68 0 -106.5 45t-38.5 115q0 178 186 387t358 209q99 0 150 -73t51 -191.5 t-74.5 -267t-195.5 -277.5q-238 -256 -486 -418h-12z" />
<glyph unicode=":" horiz-adv-x="524" d="M125 30.5q0 16.5 4 38t32.5 46t63.5 24.5t53.5 -21.5t18.5 -37.5q0 -55 -33 -82t-67.5 -27t-53 21.5t-18.5 38zM352 514q4 35 34 59.5t64.5 24.5t53 -21.5t18.5 -38t-4 -38t-32.5 -46t-63.5 -24.5t-55.5 24.5t-14.5 59.5z" />
<glyph unicode=";" horiz-adv-x="522" d="M82 -203q0 10 16 17q61 20 105.5 66t52.5 112q-31 -20 -62.5 -20.5t-52 24t-14.5 59.5t34.5 59.5t66.5 24.5t59.5 -32.5t21.5 -77.5q0 -92 -62.5 -151.5t-142.5 -86.5q-8 -4 -15 -4t-7 10zM352 514q4 35 34 59.5t64.5 24.5t53 -21.5t18.5 -38t-4 -38t-32.5 -46 t-63.5 -24.5t-55.5 24.5t-14.5 59.5z" />
<glyph unicode="&#x3c;" horiz-adv-x="673" d="M229 367q8 4 121 75q293 186 316 187l14 -6l2 -15q-33 -55 -236 -194q-92 -61 -96 -66l-2 -278l-10 -21l-14 -6q-10 0 -17 6q-29 74 -49 179.5t-29 138.5z" />
<glyph unicode="=" horiz-adv-x="937" d="M301 457q0 39 35 39h301q201 0 201 -41q0 -23 -35 -23q-213 0 -303 -14q-127 -20 -154 -21q-45 0 -45 60zM301 662q0 39 35 38h301q201 0 201 -41q0 -23 -35 -22q-213 0 -303 -14q-127 -20 -154 -21q-45 0 -45 60z" />
<glyph unicode="&#x3e;" horiz-adv-x="673" d="M55 55q0 20 47.5 57.5t81 64t69.5 53t64.5 46t49.5 33.5l20 15l2 278q2 2 5 9t5 10l17 8l18 -8q31 -82 49.5 -182.5t24.5 -131.5l-420 -262l-14 -2q-8 0 -17 4z" />
<glyph unicode="?" horiz-adv-x="782" d="M244 31q0 55 32.5 81.5t67.5 26.5t53.5 -21.5t18.5 -38t-4 -38t-33 -46t-63.5 -24.5t-53 21.5t-18.5 38.5zM371 342q16 72 69.5 164t90 142t137 172.5t114.5 140.5q74 94 74 169q0 61 -70 95q-31 12 -57.5 12t-61 -3t-88 -29.5t-86 -64.5t-32.5 -69v-10q10 39 71 74 q35 16 57.5 16t37.5 -8q35 -18 35 -69.5t-45.5 -86.5t-90.5 -35q-70 0 -92 58q-10 20 -10 48.5t14 69.5q29 63 131 123q133 78 242 78q125 0 178 -92q14 -27 15 -59q0 -115 -136 -269q-47 -53 -161.5 -164.5t-182 -201.5t-114.5 -215q-8 -18 -25.5 -12t-13.5 26z" />
<glyph unicode="@" horiz-adv-x="1957" d="M154 360q0 180 81.5 369t238.5 336t363.5 236.5t417.5 89.5q248 0 441 -113q98 -55 159 -152q76 -115 76 -279.5t-95 -338.5t-261 -307q-55 -43 -155.5 -76t-176.5 -33h-14q-80 0 -137 68q-33 39 -33 103.5t22 146.5q-90 -147 -185 -239.5t-171 -92.5q-37 0 -68 20 q-82 51 -82 195q0 248 218 508q121 145 301 188q49 12 94 12q119 0 203 -81q25 -29 14.5 -54.5t-41.5 -19.5q-27 92 -123 92q-49 0 -98 -29q-84 -45 -177.5 -146t-174.5 -235q-101 -165 -101 -290q0 -86 68 -86q76 0 174 112q104 125 191 291t120 202t84 36q16 0 56 -8.5 t63 -4.5q-47 -45 -133 -209q-113 -215 -113 -325.5t105 -110.5q129 0 263 108.5t207.5 277.5t73.5 325q0 195 -96 306.5t-219 153.5t-274 42q-272 0 -513 -152t-368 -385t-127 -465q0 -231 112.5 -364.5t258 -186.5t315.5 -53q332 0 633 203q18 18 32.5 -2.5t-10.5 -30.5 q-324 -215 -669 -215q-426 0 -637 254q-133 162 -133 409z" />
<glyph unicode="A" horiz-adv-x="1458" d="M37 228q0 239 156 517q82 147 180 261q-137 66 -205 141q-49 55 -49 133t31 98q20 27 36 11q12 -18 1 -45t-11 -52q0 -55 59.5 -122.5t174.5 -120.5q480 534 997 534h2q162 0 257 -72.5t95 -187.5q0 -125 -139 -242q-70 -61 -199 -106q-197 -70 -468 -70t-449 58 q-207 -293 -285 -486.5t-78 -300.5q0 -23 2 -41q25 -170 172 -170q166 0 385 180q156 131 305.5 311.5t222.5 317.5t130 137q47 0 47 -59q0 -63 -51 -119q-90 -100 -166 -252q-115 -229 -115 -413q0 -72 25.5 -105t58.5 -33q98 0 230 160q117 150 178 291q16 33 32.5 29 t2.5 -37q-84 -186 -191 -328q-55 -76 -137 -126t-163 -50t-122 64.5t-41 152.5t21.5 174t56.5 133q-207 -248 -440 -397q-123 -76 -273 -90q-14 -2 -48 -2t-81 24q-147 61 -147 300zM539 1004q154 -49 376 -50q420 0 613 136q149 104 149 258q0 88 -72.5 135t-199.5 47 t-253 -41t-235.5 -121t-194.5 -164t-183 -200z" />
<glyph unicode="B" horiz-adv-x="2131" d="M20 151q0 47 48 99q74 82 204 82q86 0 156 -24.5t172 -80t152 -80.5q90 88 186 245t169 307.5t185.5 335t229.5 313.5l116 133q-159 29 -350 29h-6q-194 0 -428 -52q-319 -68 -492 -274q-104 -125 -104 -238q0 -150 145 -194q51 -14 90 -14q1 0 3 -1q38 1 88 15 q52 14 99.5 60t69 89t21.5 64.5t21 21.5q20 -2 22 -29v-2q-23 -150 -160 -227q-84 -45 -168 -45l-106 18q-217 76 -217 283q0 141 125 279q201 225 590 280q188 27 392 27t415 -45q57 49 100 65.5t50 16.5t9 -2q12 0 5 -13.5t-45 -38t-46 -45.5q279 -72 402 -204 q66 -73 66 -150l-1 -1q0 -77 -45 -155q-59 -102 -192 -154t-269 -59q131 -41 244 -114q160 -105 160 -279q0 -117 -84 -217q-119 -143 -318 -207q-147 -47 -286 -47q-51 0 -101 6q-322 41 -544 142q-203 -150 -428 -150q-266 0 -330 148q-15 36 -15 83zM141 144.5 q0 -35.5 17 -68.5q45 -92 188 -92q195 0 361 125q-240 115 -303.5 137t-126 22t-99.5 -44t-37 -79.5zM838 106q231 -96 497 -122q39 -4 74 -4q229 0 389 131q174 139 174 301q0 168 -178 254q-66 31 -161 60.5t-153.5 50t-66.5 38.5q0 39 60 41q39 0 119 -6q68 -5 120 -5h16 q58 1 139 41t138 103q92 102 92 193q0 193 -360 276q-109 -150 -389.5 -632t-432.5 -646z" />
<glyph unicode="C" horiz-adv-x="1454" d="M123 438q0 74 18.5 195t81 262t148.5 250q-35 137 -35 252.5t26 216.5q4 16 13.5 23.5t13.5 7.5q20 0 12 -50.5t-8 -143.5t27 -237q164 211 385 308q168 73 351 73h5q53 0 111 -6q315 -35 426 -241q45 -86 45 -178.5t-43 -190.5q-90 -197 -309 -291q-141 -61 -310 -61 q-72 0 -145 10q-367 53 -508 348q-49 -70 -101.5 -233.5t-60.5 -251.5t-8 -147.5t8 -123.5q14 -113 86 -204t192 -126.5t208 -35.5q285 0 485 119q121 72 189.5 163t146.5 250q12 27 25.5 19t-1.5 -39q-78 -158 -144.5 -250t-180.5 -172q-230 -160 -496 -160 q-160 0 -306 62.5t-233 183.5t-106 264q-8 61 -8 135zM469 1051q145 -371 606 -371q260 0 417 145.5t157 329.5t-160 287q-119 76 -293 76t-350 -101q-221 -128 -377 -366z" />
<glyph unicode="D" horiz-adv-x="2076" d="M6 149q0 46 47 99q74 84 205 84q88 0 177 -32t317 -153q102 98 204.5 262t177 317t182 333t214.5 299q-229 137 -488 137q-106 0 -217 -22q-317 -68 -483 -277q-102 -127 -102 -242q0 -156 149 -202q53 -14 92 -14q2 0 3 -1q38 1 84 13q48 12 96 57q90 90 96 168 q2 18 23.5 13t17.5 -32q-20 -150 -158 -227q-84 -45 -168 -45l-106 18q-156 53 -205 199q-20 55 -21 111q0 113 84 223q180 242 639 309q90 12 178 12q285 0 543 -135q80 92 147.5 140.5t108.5 48.5q23 0 27 -9.5t-1 -14.5t-14 -5q-35 0 -90 -73.5t-90 -137.5 q219 -145 334 -373q92 -182 92 -397q0 -266 -127 -424q-104 -129 -254 -182q-178 -63 -352 -64q-352 1 -600 144q-190 -154 -422 -154q-264 0 -326 148q-14 35 -14 81zM139 140q0 -36 17 -68q43 -88 176 -88h3q194 0 363 122q-240 115 -303 137.5t-123.5 22.5t-96.5 -45 t-36 -81zM817 111q207 -123 486 -123q324 0 516 184q153 149 153 411q0 191 -74 357q-92 211 -272 352q-59 -92 -228 -371.5t-286 -453.5t-184.5 -246.5t-110.5 -109.5z" />
<glyph unicode="E" horiz-adv-x="1669" d="M43 287q0 45 16.5 111.5t73.5 152.5t166 159.5t232.5 109.5t222.5 40q-102 37 -174 102.5t-72 141.5v12q14 166 186 298t360.5 182.5t325.5 50.5q43 0 84 -5q170 -20 244 -84.5t74 -130.5q0 -92 -105.5 -177t-255.5 -117q-37 -8 -60.5 -8.5t-21.5 12.5q8 25 69.5 32 t119.5 48q115 84 131 217v12q0 51 -49 94q-61 57 -207 57t-301.5 -46t-286.5 -152q-156 -127 -156 -277q0 -59 36 -108t104.5 -72.5t138.5 -40.5q158 -33 158 -86q0 -47 -88 -47l-220 2q-270 0 -421 -131q-178 -152 -179 -352q0 -94 44 -173t158 -130.5t307.5 -51.5 t408.5 82t362 197q168 131 168 229q0 47 -49 58.5t-51 25.5q-4 18 31 16t57 -14q92 -49 92 -127q0 -115 -158.5 -239.5t-400.5 -198.5t-452.5 -74t-342.5 41q-231 72 -301 265q-18 49 -18 94z" />
<glyph unicode="F" horiz-adv-x="2146" d="M104 317q0 104 35 224q25 78 91.5 137t111.5 72.5t42 5.5t-71 -56q-133 -96 -157 -237q-11 -54 -11 -121t31 -145q84 -217 348 -320q125 -47 268.5 -47t285 57.5t261.5 171.5q236 223 390 578l-132 2q-240 0 -315 -111q-18 -23 -29.5 -11.5t-3.5 30.5q45 98 127 141 t163 43t218 -18q63 156 160.5 323.5t136.5 212.5q-414 205 -665.5 205t-421.5 -143q-162 -137 -162 -295q0 -82 59 -119q80 -45 152 -45q27 0 53 6q94 23 159.5 76t65.5 86t19.5 45t19.5 -8q0 -12 -6 -29q-43 -145 -201 -199q-67 -23 -136 -23h-4q-72 0 -140 44 q-131 74 -131 225q0 182 168 331.5t409 149.5q119 0 240 -34q303 -82 549 -238q63 70 131 70q76 0 78 -51q2 -23 -15 -21q-10 2 -22 16q-16 6 -31 7q-45 0 -92 -45q152 -76 356 -130q80 -18 127 -18t72 2q90 10 117 68q14 31 25.5 38t13.5 -8v-16q0 -84 -86 -127 q-53 -27 -100.5 -27t-102.5 9.5t-143.5 38t-143.5 53t-108 51.5l-58 29q-106 -121 -227 -416q-39 -98 -45 -113q119 -16 219 -16t158 3h18q43 0 43 -14q0 -44 -305 -44q-98 0 -158 8q-127 -348 -254 -516q-53 -70 -133 -147t-170 -124q-202 -111 -450 -111q-1 1 -3 1 q-250 0 -423 110q-264 164 -265 473z" />
<glyph unicode="G" horiz-adv-x="1431" d="M-84 -545q55 123 291 228q178 80 375.5 108.5t443.5 32.5q152 256 207 504l8 34q-98 -94 -222 -166.5t-216 -101.5q-147 -47 -242.5 -47t-167.5 27q-131 45 -213 180q-88 143 -88 342t105 426q-135 139 -135 296l-1 1q0 157 127 297q25 27 36.5 19.5t-9.5 -36.5 q-92 -123 -92 -247q0 -143 106 -269q12 27 45 80q160 262 435 402q213 110 411 110h4q55 0 111 -8q264 -41 356 -217q37 -70 37 -150.5t-51 -173.5q-115 -199 -401 -278q-152 -43 -310 -43q-331 0 -542 141q-98 -213 -99 -381q0 -346 238 -424q70 -18 142.5 -18t146.5 18 q147 39 264 117t147 150q82 190 176 190q47 0 64 -53q8 -20 4 -45q-20 -160 -88 -316.5t-191 -359.5q246 -2 449 -53q43 -10 43 -29q0 -14 -22 -14q-14 0 -37 6q-141 37 -408 37h-53q-125 -180 -333 -318.5t-405 -189.5q-109 -29 -184.5 -29t-126.5 18q-149 55 -149 145 q0 28 14 58zM6 -616q0 -57 98 -78q33 -8 72 -8q145 0 369 104q283 129 448 367q-215 -6 -377 -33q-233 -35 -444 -170q-166 -106 -166 -182zM350 999q96 -74 222 -104.5t202 -30.5q432 0 653 232q111 119 111 237q0 188 -211 254q-78 25 -156 25q-176 0 -372 -119 q-289 -172 -449 -494z" />
<glyph unicode="H" horiz-adv-x="2828" d="M8 379q25 94 110 176t140 84q20 0 24.5 -5t-3 -12.5t-17.5 -11.5q-61 -27 -127 -116q-86 -119 -86 -277q0 -246 238 -367q141 -71 331 -71h5q84 0 157 16q694 156 977 899q-53 0 -103 -23.5t-65.5 -23.5t-17.5 12q0 35 49 67t86 36h80q131 328 299 663q-53 -6 -151.5 -14 t-160 -14t-151.5 -20.5t-149.5 -34t-132 -54.5t-121.5 -80q-117 -111 -166 -270q-21 -68 -21 -141t54 -141q54 -70 141 -70q174 0 248 200q35 93 35 131q0 39 -14 59q-13 20 7 23q14 2 25 -16q25 -52 25 -112q0 -63 -42 -136q-70 -127 -188 -170q-57 -20 -114.5 -20 t-114.5 24q-109 47 -160 160q-33 68 -33 129.5t19.5 140t77 160.5t143.5 132t172 83t203.5 49.5t204.5 24.5t210 14t183 13q23 39 68.5 95t78.5 65.5t51 9.5q76 0 76 -64.5t-84 -107.5t-158 -43q-55 -106 -156.5 -380t-107.5 -288q154 0 396.5 -17.5t297.5 -17.5 q41 119 140.5 340t175.5 335t142.5 137.5t90 23.5t23.5 -7q0 -6 -26.5 -19t-91 -107.5t-163 -289t-172.5 -411.5q125 0 159 12.5t41 4t-20 -26.5q-68 -47 -198 -55q-2 -4 -33 -99q-102 -317 -102 -444q0 -72 25.5 -100.5t54 -28.5t63.5 24q117 86 256 371q16 35 31.5 29 t-0.5 -43q-76 -162 -126 -238t-114 -139q-84 -80 -168 -80q-94 0 -131 78q-18 37 -18 67.5t1 64.5t7 88t29.5 135t37 123t40 113.5t28.5 78.5q-88 0 -694 26q-125 -373 -394 -667q-131 -145 -305 -244q-233 -129 -491 -129q-109 0 -242 31.5t-252 120.5t-169 241 q-26 78 -26 165q0 82 23 171zM2183 1481q131 20 131 69q0 24 -22 29q-2 2 -6 2q-25 0 -103 -100z" />
<glyph unicode="I" horiz-adv-x="1867" d="M-39 168q0 80 42 189.5t136 194.5t150 89q20 0 24 -6q6 -8 -22 -23q-63 -27 -141 -120q-121 -143 -121 -324q0 -137 88 -236q111 -123 313 -168q90 -20 137 -20t97.5 1t132.5 22q170 43 325.5 139t266 207.5t204.5 246.5q160 231 242 455q143 379 307 662 q-326 -68 -518 -150q-197 -86 -305 -192q-135 -137 -174 -310q-12 -49 -12 -90q0 -86 47 -139t101 -53t116.5 24.5t109.5 81.5q66 84 66 199q0 57 -17 72q-4 6 5 18q20 31 38 0q27 -51 27 -111.5t-39 -132.5q-70 -131 -201 -180q-66 -25 -140.5 -25t-160.5 68t-86 188 q0 37 9 80q117 526 1167 705q18 39 66.5 96t82 68.5t56.5 11.5q68 0 69 -57q0 -61 -49 -95q-45 -29 -108 -49l-86 -18q-139 -258 -252 -660q-39 -139 -119 -310t-190 -314q-408 -522 -1043 -522q-295 0 -469 126q-119 88 -158 230q-14 51 -14 131zM2241 1538q133 28 133 74 q0 28 -28 28q-24 0 -105 -102z" />
<glyph unicode="J" horiz-adv-x="1978" d="M-131 -288.5q0 104.5 55 245.5q39 94 137.5 176t153.5 84q25 2 25 -8q-2 -8 -27 -21q-66 -27 -145.5 -116.5t-105 -181t-25.5 -140.5q0 -150 79 -242q55 -61 137.5 -110t176.5 -68q136 -27 218 -27q2 0 3 1q82 0 145 16q139 31 269.5 102.5t230.5 156.5t199.5 210 t167 227.5t143.5 245.5q123 233 252 537q162 360 328 622q-285 -47 -580 -204q-150 -80 -256 -203q-137 -156 -137 -334q0 -96 46 -149.5t97 -53.5t112.5 22.5t110.5 78.5q78 90 78 206q0 49 -14 66q-25 16 -4 31q23 12 47 -15q20 -45 20 -105.5t-45 -137.5 q-76 -129 -209 -177q-61 -20 -116 -20q-92 0 -166 59q-94 78 -94 209q0 166 118 318q90 117 212 192.5t276 134.5q248 96 538 136q25 41 74 96t82 65.5t53 10.5q72 0 72 -62q-2 -55 -45 -84.5t-121 -54.5l-88 -16q-158 -272 -303 -734q-55 -174 -155.5 -400t-223.5 -419 q-166 -258 -441.5 -425t-502.5 -197q-104 -14 -237 -15h-3q-132 0 -272 47q-221 74 -303 242q-37 78 -37 182.5zM2384 1481q139 25 139 74q0 26 -24 26q-4 0 -9.5 -2t-14.5 -9t-17.5 -13.5t-19.5 -18.5t-18 -19.5t-19.5 -20.5t-16.5 -17z" />
<glyph unicode="K" horiz-adv-x="2342" d="M12 387q24 90 102.5 160.5t129.5 77.5q27 4 26 -13q0 -10 -12 -16q-49 -23 -119 -107q-90 -111 -90 -274q0 -168 103 -272q125 -131 294 -164q117 -23 193 -23t133 17q168 39 314.5 121.5t246 176t190.5 223.5t143 228.5t185.5 399.5t233.5 503q-31 -4 -176 -16 q-268 -23 -418 -66q-281 -78 -399 -299q-57 -106 -58 -206q0 -53 17 -105q45 -137 178 -137q168 0 235 174q33 84 33 139.5t-4 78t6 22.5q16 -4 29 -27q18 -43 18 -101.5t-39 -133.5q-61 -129 -172 -170q-68 -25 -127 -25q-102 0 -184 74q-111 98 -111 256q0 223 209 374 q193 143 557 183q111 12 253.5 21t181.5 14q22 38 68 94.5t80 66t65.5 9.5t48 -27t16.5 -53.5t-39 -61.5q-66 -59 -207 -73q-117 -211 -268 -678q-55 -170 -148.5 -361.5t-200 -335t-281.5 -253t-396 -142.5q-72 -10 -159 -10t-189 22q-375 86 -484 369q-33 85 -33 168 q1 86 25 178zM1819 519q0 48 16 54h6q61 0 227 84t378 226.5t442.5 364.5t380.5 450q27 39 45 39q6 0 13 -6.5t7 -20.5t-14 -39q-233 -387 -657.5 -728t-708.5 -413q-4 -6 -4 -25.5t4 -64.5t40 -173t83 -236q139 -319 366 -320q131 0 251 55.5t173 159.5q12 29 30.5 29 t-3.5 -45q-55 -113 -193.5 -200t-284 -87t-274.5 107q-225 184 -303 581q-12 70 -16 115t-4 93zM2183 1481q59 8 90 24q56 27 56 60q0 23 -19 22q-23 0 -46 -19.5t-81 -86.5z" />
<glyph unicode="L" horiz-adv-x="1458" d="M141 174q174 102 471 102q106 0 193 -16q92 143 215 395h-23q-129 0 -239.5 43t-175.5 117q-86 96 -86 217q0 63 31.5 137t141 150t277.5 115q27 6 45.5 6t22.5 -10.5t-16.5 -18.5t-47.5 -12q-88 -10 -164 -60q-131 -84 -182 -258q-12 -41 -12 -78.5t14.5 -91t61.5 -110 t128 -79t141 -22.5t112 7l174 438q180 463 430 569q66 27 128 27t118.5 -40t60.5 -97q2 -25 2 -48q0 -178 -115.5 -372.5t-319.5 -339t-421 -180.5q-125 -252 -180 -353l-43 -69q406 -100 671 -305q135 -104 183 -256q25 -76 25 -131v-2q0 -56 -22 -94t-50.5 -52t-41 -14 t-12.5 10t23.5 60t23.5 118t-28.5 149.5t-106.5 150.5t-216 129.5t-239.5 86t-271.5 58.5q-174 -244 -362 -334q-113 -56 -200 -56h-2q-86 0 -153 35q-117 57 -117 173q0 118 154 206zM31 -59q0 -53 58 -87t128 -34q96 0 209 53q170 82 315 289q-98 23 -202 23q-3 -1 -5 -1 q-106 0 -219 -30q-236 -61 -276 -174q-8 -20 -8 -39zM1135 719q285 63 513 312t228 523q0 78 -72 78q-104 0 -254 -182q-117 -145 -224 -351t-191 -380z" />
<glyph unicode="M" horiz-adv-x="2721" d="M92 932q127 297 418 506q311 225 582 225q229 0 307 -184q35 -80 35 -193q0 -37 -4 -76q-20 -178 -107 -407q-14 -39 -14 -52.5t6 -13.5q10 -2 35 43q152 276 333 496q59 72 144 117q92 49 164.5 49t114.5 -53.5t42 -141.5q0 -207 -161 -690q-33 -96 -41 -123 q166 260 416.5 572.5t445.5 369.5q35 10 61 10q78 0 101 -77q8 -27 8 -62q0 -104 -82 -268q-168 -336 -230 -535q-84 -260 -83 -357l-1 -1q0 -96 19 -160q37 -127 195 -127q8 0 33.5 1t28.5 -9t-14.5 -18.5t-35 -8.5t-27.5 3q-323 33 -323 329v2q0 109 44 247t74 212 q49 119 207 465q55 128 55 196q0 1 1 2q0 66 -58 66q-80 0 -248 -164q-86 -86 -186 -210t-297 -434t-250 -437q-47 -111 -125 -111q-55 0 -65 39q-6 16 0 25.5t38.5 69t67.5 125t83 178t89 229.5q98 289 133 594q4 35 4 87t-27.5 83t-58.5 31q-100 0 -221 -152 q-164 -203 -284.5 -398.5t-185 -328.5t-149.5 -320.5t-90 -199.5t-14.5 -30.5t-15.5 -35.5q-27 -59 -115 -59q-51 0 -55 33q0 6 2 14q135 209 299 633q209 537 209 782q0 293 -242 293q-156 0 -392 -149.5t-392 -382.5q-61 -92 -92 -179q-53 -158 -54 -249q0 -264 177 -349 q59 -30 121 -31q2 0 4 1q221 0 362 239q72 121 72 211q0 141 -133 141q-18 0 -45 -3t-37 14q-3 4 -3 8q0 16 56 22q25 4 49 5q119 0 162 -103q18 -43 18 -109.5t-57 -166.5q-100 -182 -315 -273q-71 -31 -147 -31q-1 1 -2 1q-77 0 -159 38q-152 72 -211 240q-23 65 -23 161 q0 102 56 255z" />
<glyph unicode="N" horiz-adv-x="2127" d="M-6 651q0 123 65.5 286t219.5 312q291 287 614 355q90 18 157.5 18t114.5 -6q127 -18 199 -121q57 -80 57 -203q0 -111 -24.5 -185.5t-32.5 -98t-29.5 -72.5t-28 -63.5t-32.5 -73.5q-86 -186 -82 -189l63 103q125 193 271 368q270 328 485 426q121 57 211 57q1 0 2 1 q88 0 148 -44t60.5 -150.5t-67 -259.5t-197.5 -390.5t-220 -432t-90 -345.5q0 -53 14 -97q29 -94 110 -94q45 0 93.5 22.5t73 22.5t24.5 -26.5t-39 -48t-63 -21.5q-328 0 -328 285q0 104 36 210.5t255 567.5t237 582q4 18 4 34q0 86 -100 86q-68 0 -154 -45 q-322 -154 -612 -587q-172 -256 -391 -728q-80 -172 -84 -180q-29 -59 -115 -59q-51 0 -55 33q-2 6 0 14q98 145 275.5 537.5t242.5 683.5q21 98 21 174q0 72 -21 125q-43 109 -145 125q-31 4 -86.5 4t-165 -32t-246.5 -118q-309 -193 -449 -502q-75 -166 -75 -305 q0 -76 18 -139q68 -170 238 -178q211 0 368 176q127 141 127 278q0 131 -137 131q-16 0 -35.5 -2t-24.5 5.5t3 15.5q18 25 121.5 25t136.5 -91q14 -35 14 -73q0 -88 -65 -201q-111 -184 -306 -262q-100 -41 -222 -41t-221 83t-130 234q-6 39 -6 84z" />
<glyph unicode="O" horiz-adv-x="1486" d="M100 997q0 246 211 412q225 176 532.5 176t509 -171t201.5 -488v-41q205 135 267 258q10 23 26.5 19.5t16.5 -13.5t-13 -29q-121 -190 -305 -307q-8 -96 -52 -231.5t-148.5 -279.5t-243.5 -253q-227 -174 -461 -174q-246 0 -358 182q-80 133 -80 296t59 325 q-143 96 -158 258q-4 31 -4 61zM211 999q0 -162 88 -237q80 170 236 344q170 190 358 233q31 7 79 7h1q48 0 110 -39q14 -8 15.5 -16.5t-9 -12.5t-31 3t-68.5 7t-138 -49t-182 -154q-182 -207 -267 -393q129 -59 310 -59q80 0 170 10q293 39 547 176q4 56 4 109 q0 346 -222 512q-146 110 -340 110h-4q-57 0 -116 -10q-250 -37 -408 -207q-133 -147 -133 -334zM309 334q0 -283 170 -367q92 -43 183.5 -43t177.5 39q180 82 323.5 256t216.5 383q29 83 37 146q-342 -182 -721 -183q-184 0 -323 56q-63 -166 -64 -287z" />
<glyph unicode="P" horiz-adv-x="1822" d="M-53 147q0 46 47 99q74 84 207 84q86 0 180 -31q35 -12 25 -27q-8 -8 -53.5 8.5t-112 16.5t-116.5 -50t-50 -108q0 -23 8 -45q33 -110 183 -110h3q229 0 451 213q158 154 354 553q76 150 188.5 333t229.5 314l37 37q43 49 71 77q-147 21 -315 21h-6q-166 0 -312 -28 q-150 -28 -260 -65.5t-223.5 -98t-191.5 -152.5q-102 -117 -103 -244q0 -78 56 -145q59 -72 152 -72t180.5 71.5t123.5 176.5q2 14 9.5 19t13.5 -1t6 -20q-2 -133 -103.5 -210t-224.5 -77q-139 0 -227 82t-88 211q0 119 63.5 214t151.5 154.5t203 106.5q195 78 408.5 109.5 t399 31.5t343.5 -32q74 57 129 77.5t62 20.5t9 -2q12 0 5 -13.5t-46.5 -40t-76.5 -63.5q131 -35 237 -98q217 -129 217 -311q0 -143 -159 -308q-92 -96 -218 -165.5t-249 -100.5q-213 -51 -385 -51q-37 0 -74 2q-150 -219 -307 -373q-231 -217 -510 -217q-266 0 -328 146 q-14 35 -14 81zM1135 553h28q150 0 325 52t310 153q262 199 262 409q0 240 -362 326q-115 -160 -297 -485.5t-266 -454.5z" />
<glyph unicode="Q" horiz-adv-x="1540" d="M59 -266q0 39 53 90q52 51 115 51q176 0 383 -166q90 -74 189.5 -150.5t246 -148.5t316.5 -104q59 -12 108 -13q125 0 170 78q20 35 20 83l1 1q0 48 -45 113q-94 139 -291 172q-33 4 -33 24q0 18 27 15q240 -39 348 -182q51 -72 51 -126.5t-24 -97.5q-76 -129 -347 -129 t-470 113q-158 90 -297 233q-59 59 -113 111q-121 113 -240 113q-43 0 -87 -28t-47 -61.5t-17 -31.5q-17 0 -17 41zM168 1125q0 108 74 218q133 201 397 246q133 20 217 21q260 0 406 -82q231 -129 286 -357q29 -111 29 -235.5t-42 -258.5t-108.5 -256t-169.5 -233 q-287 -317 -622 -317q-143 0 -243.5 73.5t-145.5 186.5q-49 125 -49 246t26.5 225.5t78.5 217t124 202.5t154 166q152 141 342 155q12 2 22 3q72 0 139 -39q14 -8 15.5 -16.5t-9 -12.5t-30.5 2t-53 6q-92 0 -207 -78q-152 -104 -270.5 -276t-180.5 -387q-37 -125 -37 -217 q0 -238 131 -348q82 -68 181 -68q205 0 407 154q131 100 227 225q211 279 211 596q0 217 -112 385q-141 211 -402 264q-80 18 -157.5 18t-149.5 -10q-236 -31 -336 -203q-65 -107 -65 -239q0 -84 22 -174q8 -35 -10 -43t-39 30q-51 102 -51 210z" />
<glyph unicode="R" horiz-adv-x="2097" d="M37 151q0 46 47 99q76 84 209 84q90 0 190 -35q27 -10 21 -22.5t-53.5 6t-114 18.5t-114.5 -51t-48 -107q0 -25 10 -53q41 -106 193 -106q168 0 297 100q74 57 133 116.5t127 159.5q106 154 181 286t162 289t128 228q131 223 240 342q-115 10 -230 11q-262 0 -521 -54.5 t-411 -179.5q-190 -158 -190 -336q0 -86 61.5 -152.5t165.5 -66.5q127 0 211 90t88 144q2 27 12 26q16 0 15 -31q-14 -98 -80 -165q-115 -119 -274 -119q-121 0 -210 82t-89 219q0 203 197.5 363.5t518.5 207.5q229 33 423 33t358 -23q53 57 73 58q12 0 12.5 -19.5 t-10.5 -48.5q152 -25 203 -39q307 -90 307 -278q0 -121 -149 -240q-188 -145 -504 -196q-90 -14 -188 -19q66 -362 227 -610q55 -84 101 -122t100 -38q74 0 156.5 82t191.5 299q16 31 33 31q16 0 2 -31q-119 -266 -211 -366.5t-212 -100.5t-230.5 115.5t-184.5 331 t-102 385.5q-66 -131 -103 -200t-108.5 -175.5t-149.5 -192.5q-242 -260 -547 -260q-276 0 -344 150q-16 35 -16 81zM1348 825q45 8 132 15.5t126 11.5q233 29 397 182q125 114 125 223q0 16 -4 33q-23 115 -182 164q-49 14 -201 39q-37 -63 -180.5 -296.5t-212.5 -371.5z " />
<glyph unicode="S" horiz-adv-x="1845" d="M-4 354q0 139 101.5 307t248.5 238q31 12 46.5 8t-25.5 -39q-88 -70 -142 -153q-114 -178 -114 -387q0 -143 77 -248q139 -186 484 -211q39 -4 115.5 -4t208.5 27.5t255 91.5q264 139 342 360q25 66 25 127q0 139 -125 246q-68 53 -275.5 142t-279.5 136 q-158 106 -158 252q0 127 142 248q203 172 573 172q174 0 283.5 -52t134.5 -157q4 -20 4 -41q0 -80 -74 -143q-51 -41 -137 -66q-41 -11 -41 12.5t51 28.5q98 12 121 99q6 23 6 43q0 72 -65 135q-94 90 -260 90q-145 0 -322 -64q-92 -33 -160 -90q-104 -90 -104 -180 q0 -121 153 -217q57 -35 230.5 -114t253.5 -128q121 -74 167 -157.5t46 -155.5q0 -102 -68 -209q-119 -190 -348 -328q-262 -159 -632 -159h-5q-358 0 -569 182q-164 139 -164 358z" />
<glyph unicode="T" horiz-adv-x="1880" d="M61 425q0 69 40 193q40 126 151 193q45 27 67 27q37 0 33 -35q-8 -10 -42 -34t-64.5 -49.5t-61.5 -78.5q-53 -90 -53 -203q0 -258 176 -397q94 -78 211 -119t234 -41h10q424 10 696 307q172 186 471 842q102 225 131 264q-362 115 -651 115t-469 -174 q-145 -139 -145 -291q0 -166 145 -211q51 -14 93 -14t96.5 15.5t104.5 63.5t76 95q22 41 22 65q0 4 -1 7v4q16 14 28.5 9t12.5 -26q-20 -160 -162 -239q-86 -51 -159.5 -51t-130.5 20q-168 59 -213 227q-14 53 -15 105q0 123 76 239q135 209 424 252q66 11 125 11h9 q56 0 129 -6q79 -6 209 -41t266 -81.5t163 -54.5q100 123 150 125q10 4 27.5 4t27.5 -28.5t-14 -36.5q-10 -2 -27 2q-12 8 -50 -26t-57 -56q193 -61 338.5 -89t208.5 -28q127 0 127 62q0 31 21.5 30.5t21.5 -50.5t-57 -76.5t-101.5 -26.5t-72.5 4q-301 39 -516 131 q-145 -229 -260 -610q-43 -137 -122 -297t-170 -263.5t-210 -169.5q-233 -127 -551 -127q-258 0 -483 127q-221 125 -258 385q-5 40 -5 106z" />
<glyph unicode="U" horiz-adv-x="1929" d="M-8 742.5q0 263.5 201 514.5q162 203 434 353q236 131 454 131q115 0 213 -41q199 -86 199 -330q0 -182 -117 -452q-68 -160 -130 -292t-103 -267.5t-41 -227.5q0 -172 115 -172q123 0 288 205l56 76q82 119 212 378t132 261q61 108 114 108q41 -20 41 -59 q0 -47 -51 -137q-170 -305 -223 -621q-14 -86 -14 -156q0 -141 75 -141h23q37 0 37 -16q0 -25 -45 -31h-25q-68 12 -104.5 71.5t-39.5 122t-3 103.5q0 117 26 244q-145 -240 -286 -355q-133 -106 -252 -106q-86 0 -134 55q-61 74 -61 185.5t63.5 293t169 412.5t137 358 t31.5 228q0 150 -79 196q-96 51 -218 52q-217 0 -464 -144q-367 -215 -496 -543q-53 -137 -53 -250.5t39 -205.5q86 -209 299 -209q250 0 399 254q82 135 82 239q0 154 -139 154q-33 0 -83 -11.5t-46 1.5q6 16 61 40.5t111 24.5q84 0 127 -71q29 -50 29 -119q0 -71 -35 -166 q-78 -207 -267 -320q-139 -86 -266 -86t-225 76q-168 129 -168 392.5z" />
<glyph unicode="V" horiz-adv-x="1996" d="M-18 748q0 129 63.5 280.5t183 281.5t259 217t294.5 144q156 59 293 59q2 0 3 1q135 0 247 -43q199 -86 199 -365q0 -205 -148 -508q-92 -188 -164 -405q-106 -322 -106 -447q0 -94 63 -94q127 0 445 330q223 231 350 508q82 176 82 323q0 78 -12.5 109.5t-16.5 41 t-16 16.5t-16 7q-29 8 -60 13.5t-36 28t22 26.5l39 -4q94 -27 164 -133q39 -58 39 -140q0 -84 -39 -198q-94 -250 -291 -493t-388.5 -372t-312.5 -129q-18 0 -37 4q-98 18 -98 175q0 252 254 858q98 229 145 446q18 84 18 134q0 6 1 11q0 42 -4 68q-10 90 -68 125 q-102 55 -229 55q-133 0 -280.5 -65.5t-277.5 -159.5t-236.5 -224t-159 -272.5t-52.5 -257.5q0 -47 8 -90q33 -141 123 -210.5t213 -69.5q172 0 322.5 151.5t150.5 321.5q0 92 -36.5 133t-75.5 41t-78 -11.5t-39 2t47 35t98.5 21.5t94.5 -31q80 -61 80 -186t-95.5 -251 t-234.5 -203t-275.5 -77t-253 99.5t-155.5 267.5q-10 49 -10 105z" />
<glyph unicode="W" horiz-adv-x="2752" d="M-37 664q0 131 66.5 283.5t181.5 283.5t250 219t284 147q156 59 289 59q2 0 3 1q131 0 239 -41q197 -86 197 -330q0 -201 -138 -512q-94 -211 -180 -452q-123 -344 -123 -449q0 -74 51 -74q27 0 64 25q111 66 242 248t272 423.5t200.5 323.5t102.5 82q10 0 21 -4 q27 -14 27 -54q0 -41 -12 -75q-11 -33 -105.5 -261t-104.5 -301t-10 -110q0 -194 155 -194h2q147 0 365 174q238 188 326 397q100 236 100 401.5t-66.5 249.5t-183.5 84q-27 0 -55 -4q-49 -12 -72.5 -12t-23.5 12q0 18 37.5 34.5t57 16.5h32h28.5q117 0 214 -92t126 -270 q6 -43 6 -88q0 -152 -71 -344q-100 -254 -345 -432.5t-450 -178.5q-213 0 -262 197q-14 51 -14 139t43 230q-111 -184 -287 -400q-96 -115 -197 -190q-106 -80 -180 -80q-145 0 -145 176q0 207 268 844q168 406 168 608q0 131 -79 181.5t-187 50.5q-47 0 -99 -11 q-362 -74 -643 -391q-139 -160 -192.5 -306t-60.5 -217t-7 -117t17.5 -105.5t60.5 -110.5q80 -92 223 -92q238 0 377 248q72 127 72 229q0 168 -150 168q-25 0 -61.5 -6t-34.5 8.5t55 30.5t107 16q106 0 155 -82q31 -51 31 -120.5t-39 -161.5q-104 -240 -375 -353 q-70 -30 -129 -30h-4q-201 0 -319 143q-84 98 -107 254q-4 31 -4 64z" />
<glyph unicode="X" horiz-adv-x="1652" d="M-250 -428q0 16 14 41l25 41q416 575 1229 1155v225t-21 314q-25 161 -180 161h-2q-193 0 -414 -172q-113 -86 -147 -161q-6 -6 -23 0q-25 7 -25 26q0 15 15 39q18 29 118.5 112t262.5 172t283 89q127 0 180 -103q57 -104 65 -221q14 -164 14.5 -256t0.5 -112.5v-34.5 q119 84 352.5 241.5t356 247.5t210.5 178q8 8 22.5 21.5t22 22t18.5 18.5t18 16t16.5 14.5t15.5 12.5t14 8q17 6 23 6q47 0 47 -26q0 -23 -59.5 -82.5t-207 -165t-412.5 -287.5t-435 -303q-2 -119 -2 -221q0 -354 33 -479q47 -172 157 -172q154 0 320 251q59 90 106 199 q14 31 32.5 28t2.5 -38q-184 -387 -405 -512q-84 -47 -155 -47t-128 55t-80 162q-12 55 -12 262t4 434q-797 -575 -1116 -1077q-63 -104 -125 -105q-29 0 -29 23z" />
<glyph unicode="Y" horiz-adv-x="1964" d="M37 692.5q0 155.5 75.5 311t197.5 286.5t261.5 221.5t292.5 149.5q162 63 297 63t240 -41q109 -49 153.5 -132t44.5 -175q0 -231 -169 -514q-264 -451 -320 -700q-8 -43 -8 -90t30.5 -88t90.5 -41q84 0 182 71q117 82 233 269q195 311 293 637q6 33 37 51t45 18 q37 0 37 -61.5t-40 -235.5t-139 -471t-204 -483q31 2 109.5 4t129 4t121 13.5t115.5 31.5q109 51 127 152q-4 27 3 29.5t12 -7.5q14 -27 14 -57.5t-33 -84.5t-129 -94t-500 -44q-98 -147 -248.5 -260t-318.5 -176.5t-283.5 -63.5t-195.5 27q-154 51 -154 155q0 135 248 238 q317 131 885 131q201 492 280 792q-186 -401 -415 -557q-121 -82 -234 -82t-175 61.5t-62 168.5q0 223 303 717q94 154 151 311q66 174 66 299t-81 178t-196 53q-45 0 -96 -10q-369 -70 -666 -383q-150 -158 -219 -323q-71 -176 -71 -302q0 -57 14 -102q41 -150 162 -205 q59 -26 122 -26h5q227 0 387 254q90 145 90 254q0 141 -127 141q-25 0 -59.5 -7t-36.5 5q-2 16 47 28.5t94 12.5q106 0 143 -90q16 -39 17 -84q0 -90 -64 -209q-125 -227 -366 -328q-74 -31 -136 -31q-199 0 -311 144q-98 121 -98 276.5zM547 -653q0 -16 8 -33 q43 -70 197.5 -70t295 51.5t273.5 150.5t219 239q-537 0 -823 -166q-170 -98 -170 -172z" />
<glyph unicode="Z" horiz-adv-x="1386" d="M23 119q0 61 50 114.5t142 53.5q45 0 100 -15q106 -29 293 -147q532 623 692 817q207 244 437 430q-305 84 -574 84q-143 0 -282 -26q-94 -25 -168 -82q-88 -72 -88 -145t92 -136q47 -33 22.5 -41t-47.5 2q-35 8 -76 53q-61 72 -61 156q0 96 72 182q45 55 143 97 q129 53 301 53q117 0 230.5 -28t172 -44t164 -50t138.5 -44q194 153 308 153h1q33 0 59 -12q60 -25 60 -79q0 -53 -62 -111q-37 -31 -121 -31t-211 31q-100 -92 -360 -436q-168 -223 -222 -285t-97.5 -106t-76 -77.5t-79.5 -76.5t-72.5 -66.5t-74 -63.5t-63.5 -53.5 t-63.5 -52.5t-52.5 -43q561 -244 781 -287q80 -14 163.5 -14t170.5 13.5t154 64.5t77 118.5t33 67.5q18 0 18 -30.5t-3 -61.5t-23.5 -71.5t-67.5 -93t-150 -87.5q-106 -37 -241.5 -37t-375 96.5t-413.5 194.5l-174 99q-207 -147 -354 -148q-29 0 -56 6q-123 29 -155 135 q-10 31 -10 60zM115 96.5q0 -30.5 42 -71.5t138 -41q74 0 151.5 31.5t122.5 70.5q-41 33 -61 47q-146 83 -246 83h-2q-98 0 -133 -66q-12 -23 -12 -53.5zM1841 1384q111 -33 173 -33l2 1q62 0 95 21.5t33 80.5q0 16 -13 40t-48 24q-84 -1 -242 -134z" />
<glyph unicode="[" horiz-adv-x="1198" d="M78 57q0 236 209 631t407 627q49 57 80 86q76 70 193 69h41q186 0 186 -73q0 -37 -31 -37h-20l-152 8q-78 0 -96 -10q-98 -49 -267 -301t-299 -527.5t-130 -390.5q0 -90 137 -90l147 8q86 0 86 -46t-245.5 -46t-245.5 92z" />
<glyph unicode="\" horiz-adv-x="1775" d="M41 1544q25 74 147 74q274 0 699 -567q63 -84 200.5 -273.5t212.5 -294.5q205 -279 441 -522q16 -20 18 -31l-14 -12q-182 55 -623 627q-180 236 -362 467t-349.5 389t-269.5 158q-16 0 -47 -13.5t-39 -15.5z" />
<glyph unicode="]" horiz-adv-x="1138" d="M35 -25q16 80 168 80l37 -2q61 0 141 21.5t133 83.5q158 176 322.5 551.5t164.5 590.5q0 31 -6 62q-22 8 -67 8l-228 -8l-6 4q27 100 299 100q43 0 66.5 -4t43 -26.5t19.5 -63.5q0 -293 -174 -696.5t-385 -616.5q-43 -43 -114.5 -65.5t-124 -25.5t-160 -3t-129.5 10z" />
<glyph unicode="^" horiz-adv-x="757" d="M242 805q4 27 152.5 137.5t183.5 114.5l12 -6q84 -117 225 -234l10 -16q0 -18 -34.5 -18.5t-129 70.5t-129.5 118q-244 -174 -278 -180z" />
<glyph unicode="_" horiz-adv-x="1650" d="M16 -90q0 39 35 39h1516q23 0 39 -17.5t18 -40.5l-14 -14q-483 0 -1161 -14l-398 -13q-16 0 -25.5 20.5t-9.5 39.5z" />
<glyph unicode="`" horiz-adv-x="432" d="M18 1044.5q0 49.5 39 49.5q27 0 182.5 -123t155.5 -135q0 -18 -20 -19q-12 0 -140.5 67.5t-140.5 73.5q-76 37 -76 86.5z" />
<glyph unicode="a" horiz-adv-x="716" d="M47 164q0 201 174 407q98 115 242 150q39 10 74 10q94 0 159 -65q20 -23 12 -43.5t-34 -16.5q-23 74 -99 74q-88 0 -217 -139q-74 -82 -137 -193q-80 -133 -80 -213t52 -80q123 0 321 377q39 76 65.5 103.5t67.5 27.5q8 0 42 -6t50 -2q-37 -37 -104.5 -167t-80.5 -194.5 t-13 -104.5t30 -40q39 0 97 72q84 104 166 272q8 18 18 21q16 6 16 -13q0 -10 -6 -24q-188 -381 -317 -381q-59 0 -96 57q-19 32 -19 84q0 50 21 123q-164 -264 -283 -264q-33 0 -59 20q-61 43 -62 148z" />
<glyph unicode="b" horiz-adv-x="706" d="M-53 92q0 6 4 14q72 94 286 512t300 547q70 100 135 101h2h10q2 0 36 -6.5t50 -2.5q-68 -72 -213 -286q-360 -535 -360 -799q0 -109 69 -123q6 -2 15 -2q63 0 158.5 113.5t156.5 259.5q35 76 35 137q0 117 -96 117h-17q-37 -4 -43 14.5t18.5 24.5t53.5 2 q106 -16 145 -101q27 -51 27 -100q0 -176 -129 -346q-129 -172 -334 -172q-76 0 -123 43t-47 115q0 86 98 290q-168 -317 -217 -364q-20 -18 -20 12z" />
<glyph unicode="c" horiz-adv-x="532" d="M70 178q0 90 44 196.5t101 184.5q119 162 274 162q76 0 110 -36t34 -83q0 -70 -58 -119q-29 -27 -48 -26.5t-33 14.5q72 85 72 145t-50 60q-96 0 -219 -176q-39 -55 -76 -145.5t-37 -163t30 -117.5t92.5 -45t115.5 29.5t101 94t73 107.5t68 129q14 29 24 24t10 -14.5 t-27.5 -68t-55 -109.5t-78.5 -115q-91 -114 -249 -114h-3q-115 0 -165 56t-50 130z" />
<glyph unicode="d" horiz-adv-x="751" d="M55 168q0 90 46 199.5t130 210t203 135.5q43 14 101.5 14t130.5 -37q139 262 237 486q29 68 56.5 87t51 19h28.5t39 -5t52 -3q-47 -43 -249 -418q-258 -479 -312 -639q-20 -59 -20 -98q0 -66 53 -66q96 0 256 322q6 12 11 24.5t16.5 16.5t15.5 -5.5t-4 -29.5 q-164 -381 -332 -381q-55 0 -88 49t-33 97.5t11 89.5q-119 -197 -205 -224q-25 -10 -48.5 -10t-45.5 6q-100 27 -101 160zM154 147q0 -33 13 -59.5t42 -26.5q70 0 172 143.5t268 452.5q-27 27 -75 27t-134 -72q-137 -115 -227 -282q-59 -111 -59 -183z" />
<glyph unicode="e" horiz-adv-x="503" d="M63 190.5q0 92.5 44.5 195.5t120 192.5t173.5 130.5q47 20 90.5 20t79.5 -24q35 -29 35 -64q0 -123 -147 -235q-45 -35 -127 -63t-125 -28q-29 -70 -29 -155q0 -57 25.5 -91t72.5 -34q186 0 338 350q14 33 35 29q8 -2 8 -10.5t-46 -107.5t-93 -161q-104 -143 -258 -143 q-82 0 -139.5 53t-57.5 145.5zM221 350q35 0 101.5 24.5t115.5 65.5q113 97 113 203q0 41 -33 41q-57 0 -174 -141q-70 -86 -123 -193z" />
<glyph unicode="f" horiz-adv-x="405" d="M-240 -600q0 162 211 659q-24 39 -24 66q0 88 39 117q29 25 48 24.5t25 -2.5q233 526 420 875q37 74 76 108.5t98 34.5q8 0 41 -6t49 -4q-96 -90 -270 -397.5t-330 -657.5q47 -57 66 -154l6 -26h6q55 0 116.5 64.5t100.5 133t63.5 121t31 56.5t11.5 3t9 -4t4 -10.5 t-4 -15.5q-170 -387 -334 -387q2 -33 2 -107.5t-37 -222t-124 -264.5t-187 -117q-113 0 -113 113zM-129 -600q0 -59 33 -59q39 0 107.5 91t116.5 249.5t48 287.5v21h-18q-59 0 -101 33q-186 -471 -186 -623zM78 68q21 -39 82 -39h12q-6 88 -49 141z" />
<glyph unicode="g" horiz-adv-x="802" d="M-39 -254q152 88 387 166q109 35 158 55q53 156 53 340q0 37 -4 55q-57 -117 -158 -239q-98 -121 -193 -121q-21 0 -42 6q-106 45 -107 176q0 176 176 387q96 115 226 146q35 10 69 10q92 0 181 -61q33 -27 32.5 -45.5t-12.5 -36t-25.5 -4t-17.5 25.5q-27 76 -86 76 q-109 0 -244 -152q-76 -86 -131 -184q-68 -122 -68 -189l1 -1q0 -66 41 -88q14 -6 28 -7q47 0 118 64.5t131.5 164t76.5 155t39.5 69.5t52.5 16t39 11q16 -92 16 -216t-43 -282q94 68 134 121t64 96t42 85t24.5 54.5t20.5 15.5t14 -14q0 -10 -6 -24q-90 -186 -150.5 -269 t-164.5 -133q-49 -139 -142.5 -276t-235 -241.5t-280.5 -104.5q-192 0 -192 156q0 133 178 237zM-174 -528q0 -78 100 -78q59 0 134 34.5t124 71.5q84 68 185 201q76 106 116 207l-71 -25q-319 -111 -451 -196q-96 -63 -127 -162q-10 -30 -10 -53z" />
<glyph unicode="h" horiz-adv-x="679" d="M-82 -14q389 809 563 1128q39 72 69 100.5t71 28.5q10 0 42.5 -5t49.5 -3q-61 -63 -220 -351t-305 -585q96 121 173 188.5t187.5 128t162.5 60.5q12 0 22 -4q-252 -443 -252 -580q0 -57 41 -57q96 0 273 360q14 29 25 23t11 -16.5t-23.5 -58.5t-47 -92t-68.5 -116 q-94 -143 -200 -143q-70 0 -111 57q-19 28 -19 75q0 46 20 110q20 66 114 212q23 37 22.5 58.5t-35 21.5t-133.5 -92q-147 -135 -287 -405q-14 -31 -75 -31q-55 -4 -70 -12z" />
<glyph unicode="i" horiz-adv-x="356" d="M39 145.5q0 55.5 27 120.5l131 334q4 12 4 32.5t-25 53.5l113 2q47 0 55 -17.5t-12 -54.5l-164 -383q-35 -76 -35 -129q1 -59 64 -59q39 0 82 39q76 76 192 309q14 31 29 19q4 -4 4 -13.5t-16.5 -45.5t-30 -64.5t-51 -93t-68.5 -99.5q-84 -96 -159 -96t-107.5 45 t-32.5 100.5zM262 856q6 35 35 59.5t63.5 24.5t56 -24.5t15.5 -59.5t-34.5 -59.5t-63.5 -24.5t-55.5 24.5t-16.5 59.5z" />
<glyph unicode="j" horiz-adv-x="362" d="M-809 -518q0 53 31 121q53 104 192 168q104 49 276.5 91t221.5 56q51 88 60.5 107.5t148.5 306.5q-33 0 -19 33l109 235q6 12 6 32.5t-27 53.5l113 2q47 0 55.5 -17.5t-12.5 -54.5l-164 -383q-51 -121 -127 -270q80 31 117 47.5t89 59.5t90 99t128 226q14 29 25.5 23 t11.5 -16.5t-33.5 -79t-68.5 -128t-90.5 -121t-123 -98t-180.5 -77.5q-158 -287 -319 -422q-61 -51 -145 -87t-175.5 -36t-140.5 38t-49 91zM-762 -526q0 -37 28.5 -58.5t69.5 -21.5q119 0 256 123q193 172 281 336q-340 -90 -424 -127q-133 -57 -188 -170q-23 -45 -23 -82z M262 833.5q0 16.5 3 37t32 45t63.5 24.5t54 -21.5t19.5 -38t-4 -38t-32.5 -46t-63.5 -24.5t-53.5 22.5t-18.5 39z" />
<glyph unicode="k" horiz-adv-x="743" d="M-53 92q0 6 4 14q72 94 286 512t300 547q70 100 135 101h2h10q2 0 36 -6.5t50 -2.5q-76 -57 -209 -263t-211 -360.5t-104 -234.5q186 231 334 287q70 23 110 23q90 0 90 -76q0 -25 -10 -55q-29 -78 -118 -140.5t-195 -72.5q-25 -57 -25 -105.5t10 -87.5q25 -98 93 -121 q14 -4 28 -4q57 0 135 72q63 70 166 280q14 27 22.5 18t8.5 -17.5t-30.5 -80t-86.5 -157.5q-117 -176 -258 -176q-86 0 -133 49q-68 70 -68 182q0 57 31 116.5t72 63.5h12q72 0 140.5 55.5t68.5 100.5q0 55 -55 55q-82 0 -189.5 -93t-179.5 -196q-31 -59 -50 -149t-19 -125 t12 -45h-129q-21 0 -21 24q0 12 6 30q16 54 42 118t66 146.5t58 125.5q-168 -317 -217 -364q-20 -18 -20 12z" />
<glyph unicode="l" horiz-adv-x="434" d="M70 139.5q0 24.5 2 63.5q6 66 25.5 127t21.5 69q47 170 134 371t147.5 302.5t95.5 137.5q70 74 137 74q47 0 63 -67q2 -12 2 -31q0 -70 -49 -176q-176 -391 -420 -615q-2 -8 -18 -56t-27.5 -92t-11.5 -88t20.5 -82t65.5 -38q74 0 143.5 99.5t147.5 252.5q16 29 31 23 q10 -8 4 -21.5t-25.5 -57.5t-29 -61.5t-33 -61.5t-41 -65.5t-47 -55.5t-56.5 -50q-72 -45 -135 -45t-98 27.5t-42 59.5t-7 56.5zM246 461q104 106 206.5 268t150.5 275.5t48 154.5t-14 41q-20 0 -77.5 -81t-155 -291t-158.5 -367z" />
<glyph unicode="m" horiz-adv-x="1038" d="M-76 -10q37 72 129 268q166 352 221 406q24 24 65 24h3q8 0 42 -6t50 -2q-76 -41 -248 -385q96 119 138.5 155.5t63 55t31.5 29t32.5 30t33 28.5t32 25.5t31.5 21.5t30.5 17.5t28.5 12.5t25.5 5t22.5 -3q41 -16 41 -51q0 -31 -69.5 -158t-89.5 -168q90 113 172 185.5 t193.5 134t162.5 61.5q12 0 20 -4q-249 -442 -249 -573q0 -58 38 -58q49 0 113 74q96 117 168 280q12 29 24.5 23t12.5 -16.5t-20.5 -51.5t-33 -65.5t-54.5 -94t-71.5 -102.5t-75.5 -64.5t-104.5 -31.5t-99.5 57q-18 27 -18 73t20.5 111.5t112.5 212.5q23 37 22.5 58.5 t-34 21.5t-121.5 -82t-185.5 -221t-115.5 -223q-35 0 -51.5 28.5t-16.5 49.5q0 84 113 319q37 78 39 105.5t-7.5 28.5t-25.5 -7q-37 -18 -113 -90q-143 -131 -282 -399q-10 -23 -25.5 -28t-60.5 -7t-60 -10z" />
<glyph unicode="n" d="M-80 -14q33 66 129 268q172 358 225 410q24 24 65 24h3q8 0 42 -6t50 -2q-76 -41 -248 -385q96 119 175 189.5t190 131t162 60.5q12 0 22 -4q-252 -442 -252 -578q0 -53 39 -53q104 0 281 354q12 29 24.5 23t12.5 -16.5t-9 -24.5q-109 -219 -183.5 -302t-149 -83 t-113.5 57q-20 27 -20 73t20.5 111.5t112.5 212.5q23 37 22.5 58.5t-35 21.5t-133.5 -92q-147 -135 -284 -405q-12 -20 -27.5 -25.5t-61 -7.5t-59.5 -10z" />
<glyph unicode="o" d="M59 188q0 86 45 185q61 143 173 243.5t212 100.5q150 0 150 -189q0 -86 -45 -184q-57 -133 -172 -242q27 -51 96 -51q55 0 105 55q61 63 87.5 111.5t39 71t32 64.5t23.5 51.5t14 9.5q20 2 21 -15q0 -6 -4 -14l-13 -29q-12 -29 -18 -41t-21.5 -43.5t-27 -50t-30.5 -49.5 t-34.5 -49.5t-38 -41t-43.5 -34.5q-51 -31 -96 -31q-84 0 -131 54q-94 -70 -174 -70q-150 0 -150 188zM174 137.5q0 -94.5 72 -94.5q51 0 114 55q-32 46 -32 98q0 91 71 91q27 0 44.5 -18.5t17.5 -34t-4 -31.5q35 51 80 145q51 104 51 204.5t-76 100.5q-55 0 -131 -73.5 t-135 -200.5q-72 -147 -72 -241.5z" />
<glyph unicode="p" horiz-adv-x="688" d="M-297 -545q45 43 228.5 408.5t207.5 492.5q-23 -33 -43 -34q-12 0 0.5 23.5t40.5 90.5q37 88 37 163t-29 87q120 20 142 20h1q21 -1 26 -17.5t5 -37.5q0 -125 -57 -278l41 65q74 119 107.5 154t72.5 72q59 57 115 57q16 0 31 -4q102 -27 102 -160q0 -90 -47 -198.5 t-130 -209t-202 -137.5q-45 -12 -103.5 -12t-127.5 37l-195 -486q-31 -66 -57.5 -86t-51 -20h-29.5t-37 6t-48 4zM137 68q27 -27 74 -27t133 72q137 115 229 284q60 111 60 181q0 33 -13.5 60.5t-41.5 27.5q-72 0 -167.5 -133.5t-273.5 -464.5z" />
<glyph unicode="q" horiz-adv-x="700" d="M55 184q0 176 176 387q96 115 226 146q35 10 69 10q92 0 179 -61q35 -27 34.5 -45.5t-8.5 -28.5q-16 -25 -37 -4q-6 6 -10 18q-29 78 -84 78t-125 -49q-135 -94 -227 -253t-92 -237q0 -59 41 -77q10 -4 22 -5q100 0 303 336q57 92 79 109.5t40 17.5h24.5t37 -5t47.5 -3 q-111 -170 -289 -585.5t-193 -520.5q-8 14 -31.5 36t-27.5 26q-27 39 -27 73.5t67.5 188t161 341t119.5 247.5q-31 -55 -143 -209q-96 -113 -186 -113q-20 0 -41 6q-104 45 -105 176z" />
<glyph unicode="r" horiz-adv-x="532" d="M-57 92q0 6 4 14q115 152 198.5 359t116.5 393q12 64 58 64q45 0 65 -58q6 -18 6 -43q0 -92 -117 -174q41 -2 110 -2t173 10q4 -6 4 -32.5t-24.5 -78.5t-44 -90t-37 -72t-39 -83t-35.5 -90q-22 -67 -22 -106q0 -50 38 -50q86 0 254 342q14 27 23.5 21t9.5 -15.5 t-26.5 -63.5t-57.5 -111.5t-96 -133.5q-78 -94 -150 -94q-80 0 -110 96q-6 18 -6 55t23.5 98.5t74.5 149.5t57 103.5t6 29.5q0 63 -163 68l-25 -66q-129 -338 -248 -452q-20 -18 -20 12z" />
<glyph unicode="s" horiz-adv-x="524" d="M-23 172.5q0 37.5 26 71.5q26 35 54 37q104 199 179 358q82 174 190 174q29 0 56.5 -13.5t20.5 -29.5t-29.5 -6t-39 10t-28.5 -6q-70 -33 -70 -141q0 -57 16.5 -94t36.5 -80q47 -106 47 -174t-43 -133.5t-102 -106.5q27 -4 37 -4q82 0 161 96q43 53 154 268q4 10 14 11 q18 2 19 -15q0 -4 -9.5 -23.5t-17.5 -39t-26.5 -56t-31.5 -59t-33.5 -55.5t-41.5 -51l-43 -45q-35 -35 -82 -50q-41 -14 -81 -14q-33 0 -66 10q-47 -20 -84 -20q-145 0 -176 114q-7 29 -7 66.5zM68 109q0 -12 2 -27q16 -55 75 -55q25 0 41 8q-76 47 -82 153q-36 -36 -36 -79 zM92 276q43 0 43 -61q0 -121 86 -162q90 70 90 226q0 63 -14 173.5t-14 149.5t2 53q-156 -311 -193 -379z" />
<glyph unicode="t" horiz-adv-x="409" d="M66 164q0 170 163 569h-106q-10 0 -13.5 11.5t2 22.5t15.5 11h123q74 162 137.5 270.5t116.5 146.5t76.5 38t33.5 -4q48 -23 48 -95q0 -70 -48 -170t-92 -186h99q10 0 13 -11t-2 -22.5t-16 -11.5h-118q-113 -190 -273 -338l-47 -209q-6 -27 -6 -52t14.5 -52t44.5 -27 q35 0 78 25q98 74 217 309q8 18 19.5 22.5t13.5 -5t-6 -29.5q-68 -141 -107 -201q-111 -178 -235 -178q-63 0 -104 47t-41 119zM244 461q111 114 207 272h-97q-25 -57 -110 -272zM375 778h102q135 242 135 336q0 41 -14 41q-23 0 -69 -65.5t-154 -311.5z" />
<glyph unicode="u" horiz-adv-x="731" d="M45 119q0 88 76 213q-33 0 -19 33l37 71q70 133 115 226q20 43 80 43h125q-74 -53 -148.5 -206t-115.5 -240t-41 -132t15 -63.5t42 -18.5q39 0 108 82q109 127 306 535q23 43 80 43h110q-45 -35 -70.5 -72t-70.5 -131q-123 -246 -137 -326q-6 -29 -7 -53q0 -66 45 -70 q111 0 273 342q12 29 24.5 23t12.5 -16.5t-18.5 -47.5t-36 -71.5t-53.5 -95t-66 -95.5q-80 -90 -157 -90t-105 68q-13 32 -13 80q0 46 21 114q-150 -262 -277 -262q-111 0 -129 92q-6 11 -6 25z" />
<glyph unicode="v" horiz-adv-x="536" d="M135 356q-20 -33 -31.5 -21.5t-5.5 27.5l37 70q39 80 39 160t-33 94q120 20 142 20h1q20 0 25.5 -17t5.5 -38q0 -125 -64.5 -295t-64.5 -228t18.5 -67.5t37.5 -9.5q53 0 120.5 86t135.5 254q-29 66 -29 116t12 89q37 117 117 145q16 6 31 7q33 0 33 -33l-11 -37 q-104 -326 -192 -475q-129 -217 -271 -217q-114 0 -114 108q0 86 61 262z" />
<glyph unicode="w" horiz-adv-x="974" d="M45 119q0 88 76 213q-33 0 -19 33l37 71q100 197 115 226q20 43 80 43h125q-74 -53 -148.5 -206t-114.5 -239t-40 -132t15 -65.5t40 -19.5t59.5 34t63 72.5t58.5 88t54.5 93.5t53 102.5t45.5 90.5q59 119 65 138q18 43 78 43h125q-4 -4 -22 -17q-41 -27 -60 -59 q-92 -154 -129 -248q-82 -209 -82 -268q0 -74 55 -76h11q147 0 291 356q-29 61 -29 112.5t12 92.5q35 119 111 145q14 6 26 7q33 0 33 -35l-10 -35q-90 -299 -164 -438q-133 -246 -291 -246q-74 0 -100.5 38t-29.5 68.5t-3 53.5q0 55 19 120q-152 -276 -273 -276 q-45 0 -82 25.5t-45 68.5q-6 10 -6 25z" />
<glyph unicode="x" horiz-adv-x="681" d="M-67.5 -29q-0.5 6 3 14.5t14.5 11.5t24.5 -9.5t40 -12.5t61.5 17q63 31 147 161t127 267q20 106 20 157q0 54 -41 54q-40 0 -93 -86q-14 -23 -65.5 -120t-65 -120.5t-21.5 -10.5t6 42q119 250 176 303q57 47 105 47h10q94 -10 94 -143q0 -49 -12 -115q55 104 128 193.5 t116 101.5q12 2 29.5 2t39 -12.5t14 -45t-31 -52t-58 -19.5t-45.5 35q-63 -59 -126.5 -159.5t-94.5 -197.5q-6 -43 -6 -80.5t6 -70.5q16 -63 55 -72q14 -4 35 -4t54.5 17.5t76.5 78.5q66 96 99.5 163t38 74t6.5 13q16 31 25.5 23t9.5 -15.5t-3.5 -15.5t-36 -74.5t-45 -89 t-48 -77t-64.5 -78.5q-82 -66 -159 -66t-115.5 59.5t-38.5 126.5q0 41 2 56q-162 -313 -316 -314q-43 0 -73 31q-4 6 -4.5 12z" />
<glyph unicode="y" horiz-adv-x="817" d="M-356 -518q0 53 30 121q53 104 193 168q104 49 276 91t222 56q74 129 176 461q-119 -209 -199 -293t-162 -84q-111 0 -129 92q-8 14 -4 43t5 41t13.5 40t16.5 40q23 47 39 74q-33 0 -19 33l37 71q70 133 115 226q20 43 80 43h125q-4 -4 -21 -17q-37 -25 -55 -57 q-74 -127 -184 -363q-45 -96 -45 -141t15 -63.5t42 -18.5q39 0 108 82q145 170 322 535q23 43 80 43h110q-53 -37 -83.5 -93.5t-66.5 -153t-90 -256t-83 -239.5q193 57 295 203q45 63 129 225q14 29 25.5 23t11.5 -16.5t-34 -79t-69 -127t-90 -120t-122.5 -97t-180.5 -76.5 q-158 -287 -317 -422q-150 -123 -324 -123q-90 0 -139 38t-49 91zM-280 -586q28 -20 71 -20q119 0 254 122t238 261l45 76q-338 -88 -426 -127q-132 -57 -189 -170q-23 -44 -23 -81q0 -40 30 -61z" />
<glyph unicode="z" horiz-adv-x="698" d="M-397 -473q0 55 33.5 106.5t84 89t97.5 63.5t132 57.5t132 47t147.5 46t132.5 40.5q37 119 37 181q0 106 -59 106q-8 0 -16 -2q-77 -40 -105 -40q-8 0 -12 3q-10 8 -8 20.5t18 16.5q139 43 229 180q27 41 27 76t-28.5 67.5t-61.5 32.5q-102 0 -170 -116 q-57 -96 -109 -205q-12 -29 -26.5 -19.5t2.5 41.5q109 213 121 234q92 168 252 168q72 0 108 -53q21 -30 21 -87q0 -55 -54 -135t-147 -137h4q133 0 137 -133q0 -78 -22 -149q156 31 315 366q8 18 21 21q14 6 14 -13q0 -23 -53.5 -119t-100.5 -159q-86 -123 -209 -148 q-80 -219 -236.5 -375.5t-373.5 -220.5q-51 -14 -94 -14q-88 0 -134 53.5t-46 108.5zM-326 -513q0 -41 31 -59t57 -18q98 0 216 75t216.5 189.5t149.5 251.5q-43 -14 -135 -40.5t-146 -43.5q-143 -45 -227 -94q-110 -63 -149 -180q-13 -40 -13 -81z" />
<glyph unicode="{" horiz-adv-x="755" d="M16.5 607q-0.5 11 26.5 44q174 18 236 72q66 49 96 207q4 18 17.5 90t23.5 115t30 104q37 121 109 176q96 72 299 72h8q23 0 23 -9.5t-10.5 -23.5t-22.5 -14q-150 0 -208 -52.5t-88 -175t-60.5 -257t-85.5 -201.5q-78 -96 -273 -131q164 -31 211 -111q20 -35 20.5 -87 t-8 -104.5t-16.5 -99.5q-14 -68 -43 -184q-12 -63 -12 -119.5t26 -87.5q45 -53 185 -53q20 2 14 -21.5t-20 -23.5h-11q-201 0 -268 71q-35 39 -35 121t11.5 140.5t34 150.5t29.5 128t7 91q0 100 -98 144q-45 18 -133 18q-14 0 -14.5 11z" />
<glyph unicode="|" horiz-adv-x="993" d="M453 -473v2007h88v-2007h-88z" />
<glyph unicode="}" horiz-adv-x="993" d="M39 -258q0 35 31 35q150 0 217 55q88 70 147 309q23 90 66 188.5t100 151.5q88 78 266 113q-154 27 -196 111q-14 27 -14.5 68.5t6 78.5t18.5 89t25 87q37 119 53 174t16 103.5t-16 70.5q-37 55 -185 56q-16 0 -16 10t29 37h10q211 0 264 -72q27 -35 27 -80t-10.5 -114.5 t-49.5 -172.5q-68 -170 -67 -272q0 -51 20 -78q39 -51 197 -67q14 -1 14 -11q0 -12 -33 -45q-152 0 -243 -71q-100 -76 -158 -340q-23 -96 -71 -199.5t-121 -155.5q-100 -70 -302 -69h-10q-14 2 -14 10z" />
<glyph unicode="~" horiz-adv-x="993" d="M324 864q86 154 188 154q47 0 133 -36t109.5 -37t31.5 -1q63 0 99 72q2 6 12 6q27 0 31 -10q-80 -164 -191 -164q-45 0 -131 37q-96 43 -147 43t-88 -68q-4 -14 -37 -4q-10 4 -10 8z" />
<glyph unicode="&#xa1;" horiz-adv-x="821" d="M-90 -592q18 49 345 530.5t341 501.5l20 -2l-2 -14l-520 -991q-22 -43 -106 -43l-64 2l-10 4zM600 579.5q0 16.5 4 38t33 46t63.5 24.5t53 -21.5t18.5 -37.5q0 -55 -32.5 -82t-67.5 -27t-53.5 21.5t-18.5 38z" />
<glyph unicode="&#xa2;" horiz-adv-x="647" d="M67.5 789.5q0.5 44.5 8.5 102.5t46 150.5t90 152.5t126 105.5t139 45.5h6h13q82 203 141 346q16 39 33 39q6 0 14 -9.5t8 -20.5t-5 -24.5t-25.5 -62.5t-53.5 -129t-61 -150q49 -14 77.5 -56t28.5 -95.5t-31.5 -91t-75.5 -37.5t-72 27.5t-28 68.5t27 67.5t64 26.5 q27 0 49 -12t26 -25q6 33 -10 58q-20 31 -60 30.5t-108 -46.5t-129 -128q-119 -162 -119 -316.5t113 -154.5q104 0 227 152q16 23 25.5 4t-0.5 -31q-111 -154 -262 -160q-4 -10 -35 -79q-129 -303 -129 -416q0 -68 43 -76q29 -6 19.5 -22.5t-19.5 -16.5t-18 2 q-78 27 -78 129q0 111 121 383q35 76 40 96q-96 8 -135 78q-31 51 -30.5 95.5z" />
<glyph unicode="&#xa3;" horiz-adv-x="1173" d="M49 86.5q0 63.5 49 95t107.5 31.5t123 -28.5t93.5 -49t102 -76.5q80 66 132.5 148t68.5 107.5t62.5 107.5t50.5 88q-45 4 -89 4t-92 -10l-36 -12l-15 -7q-10 0 -10 19.5t6 23.5q57 29 135 29t123 -6q373 651 668 651q59 0 103 -29.5t44 -99t-79.5 -172t-165.5 -164.5 q-10 -10 -22.5 -10t-12.5 8t12 17q240 199 240 338q0 68 -78 67q-98 0 -199.5 -82t-166 -175t-101.5 -178t-86 -192q45 -6 85 -6t70 6q31 10 39.5 10.5t8.5 -20t-7 -22.5q-43 -16 -90 -16.5t-129 7.5q-168 -322 -422 -466q63 -45 196.5 -101.5t197 -72t136.5 -15.5t150.5 42 t77.5 130q0 10 8.5 10t8.5 -14v-4q-10 -98 -90 -140t-177.5 -42t-184.5 19.5t-234.5 70.5t-196.5 80q-88 -41 -169 -41t-163 39t-82 102.5zM66 106q0 -57 57 -96q70 -47 153.5 -47t155.5 41q-160 106 -218 133t-85 27t-45 -15.5t-18 -42.5z" />
<glyph unicode="&#xa4;" horiz-adv-x="1374" d="M2 86l369 348q-25 47 -25 98q0 129 92 222l-213 331l316 -254q92 49 189 49.5t163 -49.5l446 267l-374 -350q27 -45 26 -103q0 -111 -92 -213l217 -336l-319 260q-88 -49 -183.5 -49t-169.5 47zM462.5 589q0.5 -91 58 -149.5t139 -58.5t149.5 62.5t68 151.5t-60.5 148.5 t-141.5 59.5t-147 -62q-66 -61 -65.5 -152z" />
<glyph unicode="&#xa5;" horiz-adv-x="1478" d="M102 -76.5q0 13.5 29 13.5q135 0 287 180q106 129 205 274h-465q-6 0 -6 8.5t14 22.5t22 14h465l11 17q0 72 -15 176h-289q-6 0 -6 7t13.5 22.5t23.5 15.5h252q-23 131 -90 276q-35 78 -90 128t-124 50t-118 -74.5t-49 -144t53 -166.5q0 -14 -14 -14q-4 0 -10 6 q-53 72 -53.5 164t55 174t141.5 82q121 0 213 -106q166 -197 180 -482l41 64q0 14 17.5 32.5t32 43t32 54.5t42 67.5t50 76.5t85 114t105.5 121t105.5 83t111.5 37t92 -41t40 -88.5t-15.5 -47.5t-15.5 15l4 24q0 43 -32.5 77t-75.5 34q-150 0 -451 -531q-12 -20 -16 -28h213 q4 0 4 -8.5t-13.5 -22.5t-23.5 -14h-205l-108 -193h207q6 0 6 -8t-14.5 -22.5t-22.5 -14.5h-205q-176 -264 -305 -368q-141 -113 -281 -113q-39 0 -39 13.5z" />
<glyph unicode="&#xa6;" horiz-adv-x="993" d="M344 -473l197 924l96 -9l-186 -915h-107zM586 670l184 864h107l-193 -875z" />
<glyph unicode="&#xa7;" horiz-adv-x="1933" d="M172 -410q0 80 74 144q51 41 137 65q37 10 41 -8q4 -27 -51 -33q-98 -12 -121 -98q-6 -23 -6 -43q0 -72 65 -135q94 -90 260 -90q145 0 322 63q92 33 160 90q104 90 104 181q0 121 -153 217q-57 35 -230.5 113.5t-253.5 127.5q-121 74 -167 158t-46 156q0 102 68 209 q119 190 348 327q51 31 111 56q-51 76 -51.5 150.5t44.5 145.5q90 150 291 222q170 59 360.5 59t300 -52t134.5 -157q4 -20 4 -41q0 -80 -74 -143q-51 -41 -137 -66q-37 -10 -41 9q-4 27 51 32q98 12 121 99q6 23 6 43q0 72 -65 135q-94 90 -260 90q-145 0 -322 -64 q-92 -33 -160 -90q-104 -90 -104 -180q0 -121 153 -217q57 -35 230.5 -114t253.5 -128q121 -74 167 -157.5t46 -155.5q0 -102 -68 -209q-119 -190 -348 -328q-64 -39 -111 -57q49 -76 49.5 -149.5t-42.5 -147.5q-90 -147 -291 -219q-170 -59 -360.5 -59t-300 52t-134.5 156 q-4 20 -4 41zM471 537q0 -139 125 -246q68 -53 275.5 -142.5t259 -122t81.5 -61.5l39 19q264 139 342 360q25 66 25 127q0 139 -125 246q-68 53 -276 143q-274 117 -340 182l-39 -18q-264 -139 -342 -360q-25 -66 -25 -127z" />
<glyph unicode="&#xa8;" horiz-adv-x="569" d="M78 949.5q0 29.5 18.5 49t48 19.5t49 -18.5t19.5 -48t-18.5 -49t-48 -19.5t-49 18.5t-19.5 48zM342 949.5q0 29.5 18.5 49t48 19.5t49 -18.5t19.5 -48t-18.5 -49t-48 -19.5t-49 18.5t-19.5 48z" />
<glyph unicode="&#xa9;" horiz-adv-x="1468" d="M49 479q0 283 252 488q231 186 513 186t446.5 -154.5t164.5 -355.5q0 -285 -254 -491q-227 -184 -509.5 -184.5t-447.5 152t-165 359.5zM139 473q0 -188 139.5 -332.5t368.5 -144.5q262 0 459 172q227 201 227 473q0 190 -140 335.5t-374 145.5q-256 0 -452 -174 q-228 -201 -228 -475zM453 416q0 76 36.5 168t88.5 159q104 141 235 142q66 0 94.5 -31t28.5 -76q0 -57 -47 -102q-25 -20 -42.5 -20t-29.5 12q61 68 62 133q0 45 -41 45q-86 0 -186.5 -147.5t-100.5 -276.5q0 -59 25.5 -98t78.5 -39q119 0 217 147q12 16 23.5 18.5t13.5 -9 t-6 -25.5q-100 -162 -266 -162q-98 0 -141 49t-43 113z" />
<glyph unicode="&#xaa;" horiz-adv-x="765" d="M102 948q0 96 88 203q68 80 158 80q47 0 80 -33q10 -10 6 -21.5t-16 -7.5q-12 37 -39 37q-86 0 -184 -157q-45 -76 -45 -116t26 -40q59 0 162 188q25 47 39 57.5t24.5 9.5t25.5 -4t24 -1q-18 -16 -54 -82q-47 -92 -47 -131t15 -39h2q43 0 131 172q8 18 13 12t5 -10 t-4 -10q-96 -190 -160 -191q-31 0 -44 21.5t-13 47t10 62.5q-82 -133 -141 -133q-23 0 -42.5 23.5t-19.5 62.5z" />
<glyph unicode="&#xab;" horiz-adv-x="923" d="M229 367q8 4 121 75q293 186 316 187l14 -6l2 -15q-33 -55 -236 -194q-92 -61 -96 -66l-2 -278l-10 -21l-14 -6q-10 0 -17 6q-29 74 -49 179.5t-29 138.5zM526 367q8 4 121 75q297 186 316 187l12 -6l2 -15q-33 -51 -178.5 -153.5t-151.5 -106.5l-2 -278l-10 -21l-14 -6 l-17 6q-23 41 -48.5 170t-29.5 148z" />
<glyph unicode="&#xac;" horiz-adv-x="1654" d="M145 496q0 18 22.5 44.5t39.5 26.5h1163l-104 -493q-7 -45 -56 -45q-16 0 -28.5 14t-10.5 31l84 395h-1069q-41 0 -41 27z" />
<glyph unicode="&#xad;" horiz-adv-x="831" d="M301 453q0 43 35 43q133 0 450 -9q35 -2 43 -26q-4 -25 -34 -29q-160 0 -311 -18l-150 -17q-12 0 -22.5 20t-10.5 36z" />
<glyph unicode="&#xae;" horiz-adv-x="1468" d="M49 479q0 283 252 488q231 186 513 186t446.5 -154.5t164.5 -355.5q0 -285 -254 -491q-227 -184 -509.5 -184.5t-447.5 152t-165 359.5zM139 473q0 -188 139.5 -332.5t368.5 -144.5q262 0 459 172q227 201 227 473q0 190 -140 335.5t-374 145.5q-256 0 -452 -174 q-228 -201 -228 -475zM250 350q0 43 49 68q27 12 61.5 12t75.5 -14q14 -6 8 -10.5t-24.5 3t-50 7.5t-48 -25.5t-16.5 -45t21 -40.5q23 -20 67.5 -20t90.5 21.5t89 70.5q70 82 114 161.5t79 141t53 94.5q55 94 101 144q-47 4 -126 4t-186.5 -22.5t-171 -75t-78.5 -111.5 q-2 -14 -2 -39t26 -52.5t69 -27.5q51 0 87.5 37t38 53t3.5 16q8 0 4 -28.5t-31 -50.5q-47 -49 -105.5 -49.5t-95.5 33.5t-37 91q0 84 82 151.5t199 84t196.5 16.5t145.5 -10q23 23 29 23q8 0 2 -27q8 -2 38.5 -7t45.5 -9q139 -41 139 -125q0 -76 -115 -131 q-106 -49 -246 -50q25 -150 95 -254q43 -66 80 -65q78 0 147 158q10 16 15.5 13t0.5 -13q-61 -125 -94 -159t-90 -34q-88 0 -141 92q-41 72 -58 203q-4 33 -4 35q-79 -160 -151 -236q-86 -96 -233.5 -96t-147.5 94zM827 639l99 10q109 14 168 96q27 39 26.5 71t-24 50.5 t-46 25.5t-75.5 15q-100 -168 -148 -268z" />
<glyph unicode="&#xaf;" horiz-adv-x="993" d="M375 842l26 61h437l-25 -61h-438z" />
<glyph unicode="&#xb0;" horiz-adv-x="661" d="M203 1408q0 54 39 93t92 39t92 -39t39 -93t-39 -92t-95.5 -38t-92 38t-35.5 92zM238 1399q0 -47 32.5 -68.5t65.5 -21.5t61.5 30.5t28.5 68.5t-26.5 65.5t-66.5 27.5t-67.5 -27.5t-27.5 -74.5z" />
<glyph unicode="&#xb1;" horiz-adv-x="937" d="M270 100q0 43 35 43l533 -16q35 0 43 -27v-8q0 -18 -35 -20q-313 0 -541 -27h-2q-12 0 -22.5 19.5t-10.5 35.5zM291 537q6 53 47 59l285 -6q10 37 34.5 145.5t34.5 147.5q14 47 45 47q23 0 11.5 -45t-58.5 -297h266q23 0 30 -10.5t7 -18.5q0 -27 -43 -27q-2 0 -272 -12 q-6 -37 -19 -98q-27 -154 -28 -182q-4 -23 -49 -33q-12 -2 -23 -2q-29 0 -29 24q0 10 74 287q-49 -4 -154.5 -9t-136.5 -9q-20 -2 -22 39z" />
<glyph unicode="&#xb2;" horiz-adv-x="649" d="M-10 499q0 7 8 23q6 4 99 80t120 103q326 289 326 442q0 41 -21.5 55.5t-50.5 5.5q-68 -18 -106.5 -64t-75.5 -124q-12 -29 -30.5 -19.5t-12.5 27.5q35 98 112.5 172t176.5 74q59 0 97 -31t38 -81t-44 -114.5t-130 -146.5q-111 -102 -263 -229l-18 -17q23 -23 67 -42 t75.5 -19t80.5 28.5t74 58.5t34 21.5t-11 -43.5q-121 -156 -211 -155q-113 0 -207 63l-90 -69q-18 -6 -27.5 -6t-9.5 7z" />
<glyph unicode="&#xb3;" horiz-adv-x="610" d="M8 598.5q0 11.5 27 1.5q10 -29 37.5 -49.5t58.5 -20.5q113 0 204 103.5t91 206.5q0 33 -17.5 54t-36 21t-36 -5t-37.5 -13q-70 -23 -72 0q-2 10 13 16q92 18 186 94t94 171q0 14 -17.5 23t-35.5 9q-76 0 -162 -98q-10 -12 -20.5 -11t-5.5 25q123 152 251 152 q51 0 84 -22.5t33 -69.5q0 -135 -244 -236q133 -20 134 -125q0 -121 -127 -224t-271 -103q-96 0 -125 75q-6 14 -6 25.5z" />
<glyph unicode="&#xb4;" horiz-adv-x="546" d="M113 859q0 7 4 13.5t58 47.5t117.5 85t92.5 65.5t56.5 21.5t49 -10.5t21.5 -26t-6 -27.5q-10 -25 -184 -103.5t-197 -78.5q-2 0 -7 3t-5 10z" />
<glyph unicode="&#xb5;" horiz-adv-x="663" d="M-264 -516l395 776q14 27 49 98.5t53 108.5q53 106 111 192h4q14 -10 33 -10q47 0 98 43l4 -4q-37 -41 -93 -144.5t-101 -174.5q-121 -217 -121 -303q0 -55 51 -56q117 0 318 359q106 188 157 303h4q25 -14 62 -14.5t53 40.5l6 -2l-160 -309q-141 -262 -141 -342 q0 -41 35 -41q51 0 115 70q92 104 161 260h13l4 -4q-156 -346 -297 -346q-51 0 -79 32.5t-28 85t21 109.5q-51 -84 -121 -153.5t-137.5 -69.5t-98.5 57l-264 -577q-4 -6 -37.5 -6.5t-60.5 12.5q-8 8 -8 10z" />
<glyph unicode="&#xb6;" horiz-adv-x="825" d="M332 0l272 743q-141 0 -196 76q-29 37 -29 92.5t28.5 134t100.5 153.5t158 107.5t219 32.5h352l-37 -102h-41l-452 -1237h-138l453 1237h-100l-453 -1237h-137z" />
<glyph unicode="&#xb7;" horiz-adv-x="534" d="M254 451q0 55 32.5 81.5t67.5 26.5t53.5 -21.5t18.5 -38t-4 -38t-33 -46t-63.5 -24.5t-53 21.5t-18.5 38.5z" />
<glyph unicode="&#xb8;" horiz-adv-x="776" d="M147 -332q0 14 10.5 14.5t32.5 -22.5q49 -51 187.5 -51t185.5 74q29 43 29 91t-47 78.5t-99.5 30.5t-101.5 -24.5t-58.5 -24.5t-21.5 9.5t-12 20.5t10 21.5t80 63.5t78 53t14 -16q-2 -2 -28 -19q-61 -43 -62 -53q41 6 104.5 6t141.5 -39t78 -119.5t-107 -152.5 q-53 -35 -138 -35t-180.5 23.5t-95.5 70.5z" />
<glyph unicode="&#xb9;" horiz-adv-x="503" d="M66 512l305 567q-20 -16 -76.5 -49t-81.5 -51q-37 -20 -40 -12t17 30l33 25q57 43 209 195q37 43 62.5 45t38 2t12.5 -9.5t-2 -23.5q-66 -119 -183.5 -355.5t-181.5 -351.5q-16 -25 -78 -24q-35 0 -34 12z" />
<glyph unicode="&#xba;" horiz-adv-x="559" d="M119 968q0 40 25.5 102.5t82 112.5t105.5 50h4q37 0 54.5 -27.5t17.5 -68.5t-25 -99.5t-84 -111.5q12 -25 37.5 -25t41 7t29 22.5t24.5 29t21.5 35t16.5 32.5t23 48q4 8 9 5t5 -7t-2 -8q-53 -125 -94 -154q-82 -57 -129 -2q-45 -35 -86 -35h-5q-37 0 -54 27t-17 67z M172 939q0 -42 37 -42q29 0 59 25q-16 27 -16 51q4 43 35.5 43t31.5 -29q0 -2 -1 -6t-1 -6q63 100 63.5 162.5t-34.5 62.5q-27 0 -65.5 -37t-73.5 -109.5t-35 -114.5z" />
<glyph unicode="&#xbb;" horiz-adv-x="923" d="M55 55q0 20 47.5 57.5t81 64t69.5 53t64.5 46t49.5 33.5l20 15l2 278q2 2 5 9t5 10l17 8l18 -8q31 -82 49.5 -182.5t24.5 -131.5l-420 -262l-14 -2q-8 0 -17 4zM354 47v19q27 45 232 188q82 58 98 70l-2 135q0 139 12 162l17 8l16 -8q14 -14 46 -162t32 -152l-420 -262 l-16 -2z" />
<glyph unicode="&#xbc;" horiz-adv-x="1273" d="M66 512l305 567q-20 -16 -76.5 -49t-81.5 -51q-37 -20 -40 -12t17 30l33 25q57 43 209 195q37 43 62.5 45t38 2t12.5 -9.5t-2 -23.5q-66 -119 -183.5 -355.5t-181.5 -351.5q-16 -25 -78 -24q-35 0 -34 12zM120 -7q-5 5 13 25q164 186 528.5 642t454.5 581q20 25 59 25 t39 -19q0 -8 -12 -23.5t-99 -124t-155.5 -194.5t-174 -217t-191.5 -233.5t-172 -202.5q-231 -264 -279 -264q-6 0 -11 5zM696 233l9 39q47 57 116 125l84 88q133 152 176 211q29 47 133 47q27 0 39 -12q-2 -29 -385 -356q-53 -43 -88 -88l248 6q25 51 78 153q29 31 78 36 t45 -15q0 -6 -4 -12q0 -14 -78 -158h10q35 -6 37 -12t0 -10.5t-6 -8.5q-6 -6 -39 -20h-31l-119 -232q-10 -10 -41.5 -16t-50 -6t-37.5 6q0 4 59.5 115.5t67.5 126.5z" />
<glyph unicode="&#xbd;" horiz-adv-x="1273" d="M59 -2q0 6 88.5 106.5t453 556t454.5 580.5q20 25 41.5 25t31.5 -2q37 -8 18.5 -32t-105.5 -132.5t-155.5 -194.5t-174 -217t-191.5 -233.5t-172 -202.5q-256 -293 -287 -262q-2 2 -2 8zM66 512l305 567q-20 -16 -76.5 -49t-81.5 -51q-37 -20 -40 -12t17 30l33 25 q57 43 209 195q37 43 62.5 45t36 2t14.5 -3.5t-2 -29.5q-66 -119 -183.5 -355.5t-181.5 -351.5q-8 -12 -36.5 -19t-52 -5t-23.5 12zM586 -13q0 7 8 23q6 4 99 80t120 103q326 289 326 442q0 41 -21.5 55.5t-52.5 5.5q-66 -18 -104.5 -64t-75.5 -124q-12 -29 -30.5 -19.5 t-12.5 27.5q35 98 112.5 172t175.5 74q59 0 97.5 -31t38.5 -81t-44 -114.5t-132 -146.5q-109 -102 -261 -229l-18 -17q23 -23 67 -42t75.5 -19t80.5 28.5t74 58.5t34 21.5t-12 -43.5q-121 -156 -210 -155q-113 0 -207 63l-90 -69q-18 -6 -27.5 -6t-9.5 7z" />
<glyph unicode="&#xbe;" horiz-adv-x="1273" d="M8 598.5q0 11.5 27 1.5q10 -29 37.5 -49.5t58.5 -20.5q113 0 204 103.5t91 206.5q0 33 -17.5 54t-36 21t-36 -5t-37.5 -13q-70 -23 -72 0q-2 10 13 16q92 18 186 94t94 171q0 14 -17.5 23t-35.5 9q-76 0 -162 -98q-10 -12 -20.5 -11t-5.5 25q123 152 251 152 q51 0 84 -22.5t33 -69.5q0 -135 -244 -236q133 -20 134 -125q0 -121 -127 -224t-271 -103q-96 0 -125 75q-6 14 -6 25.5zM121 -4q0 8 12 22q164 186 528.5 642t454.5 581q20 25 59 25t39 -19q0 -8 -12 -23.5t-99 -124t-155.5 -194.5t-174 -217t-191.5 -233.5t-173 -202.5 t-153 -166t-91.5 -82t-34.5 -16t-9 8zM696 233l9 39q47 57 116 125l84 88q133 152 176 211q29 47 133 47q27 0 39 -12q-2 -29 -385 -356q-53 -43 -88 -88l248 6q25 51 78 153q29 31 78 36t45 -15q0 -6 -4 -12q0 -14 -78 -158h10q35 -6 37 -12t0 -10.5t-6 -8.5q-6 -6 -39 -20 h-31l-119 -232q-10 -10 -41.5 -16t-50 -6t-37.5 6q0 4 59.5 115.5t67.5 126.5z" />
<glyph unicode="&#xbf;" horiz-adv-x="811" d="M12 -518q0 115 135 268q47 53 162 165t182.5 202t114.5 215q8 18 25.5 12t13.5 -27q-16 -72 -69.5 -164t-90 -142t-137.5 -172t-115 -140q-74 -94 -73 -170q0 -61 69 -94q31 -12 57.5 -12.5t61.5 3t88 30t86 64.5t33 68v11q-10 -39 -72 -74q-35 -16 -57.5 -16.5 t-36.5 8.5q-35 18 -35 69.5t45 86t90 34.5q70 0 93 -57q10 -20 10 -49t-14 -70q-29 -63 -132 -123q-133 -78 -241 -78q-125 0 -178 92q-14 27 -15 60zM600 579.5q0 16.5 4 38t33 46t63.5 24.5t53 -21.5t18.5 -37.5q0 -55 -32.5 -82t-67.5 -27t-53.5 21.5t-18.5 38z" />
<glyph unicode="&#xc0;" horiz-adv-x="1458" d="M43 209q0 197 137 471q80 156 180 264q-131 61 -192 131q-47 49 -47 121t29 92q20 27 36 6q8 -16 -2 -40.5t-10 -47.5q0 -49 51 -102q68 -74 170 -119q195 211 437.5 337t508.5 126q154 0 243 -66.5t89 -181.5t-145 -227q-193 -147 -617 -148q-236 0 -430 64 q-49 -45 -135 -180.5t-144.5 -280.5t-58.5 -252q0 -23 2 -41q25 -170 172 -170q166 0 385 180q307 258 480 574q61 110 112 110q45 0 45 -53q0 -57 -47 -110q-145 -160 -205 -482q-12 -68 -12 -128t25.5 -93t58.5 -33q98 0 230 160q117 150 178 291q16 33 32.5 29t2.5 -37 q-84 -186 -191 -328q-55 -76 -137 -126t-163 -50t-122 64.5t-41 152.5t21.5 174t56.5 133q-207 -248 -440 -397q-123 -76 -273 -90q-14 -2 -48 -2t-81 24q-141 59 -141 281zM512 926q172 -53 395 -54q365 0 547 123q139 95 139 236q0 80 -67.5 124t-177.5 44 q-248 0 -449 -127t-387 -346zM1182 1700q0 16 11 28.5t30.5 12.5t166 -114t146.5 -124q0 -18 -18 -18q-14 0 -133 62.5t-132 68.5q-72 33 -71 84z" />
<glyph unicode="&#xc1;" horiz-adv-x="1458" d="M43 209q0 197 137 471q80 156 180 264q-131 61 -192 131q-47 49 -47 121t29 92q20 27 36 6q8 -16 -2 -40.5t-10 -47.5q0 -49 51 -102q68 -74 170 -119q195 211 437.5 337t508.5 126q154 0 243 -66.5t89 -181.5t-145 -227q-193 -147 -617 -148q-236 0 -430 64 q-49 -45 -135 -180.5t-144.5 -280.5t-58.5 -252q0 -23 2 -41q25 -170 172 -170q166 0 385 180q307 258 480 574q61 110 112 110q45 0 45 -53q0 -57 -47 -110q-145 -160 -205 -482q-12 -68 -12 -128t25.5 -93t58.5 -33q98 0 230 160q117 150 178 291q16 33 32.5 29t2.5 -37 q-84 -186 -191 -328q-55 -76 -137 -126t-163 -50t-122 64.5t-41 152.5t21.5 174t56.5 133q-207 -248 -440 -397q-123 -76 -273 -90q-14 -2 -48 -2t-81 24q-141 59 -141 281zM512 926q172 -53 395 -54q365 0 547 123q139 95 139 236q0 80 -67.5 124t-177.5 44 q-248 0 -449 -127t-387 -346zM1405 1546q8 12 111.5 84t113.5 82q41 29 65.5 29t44 -9.5t19.5 -22.5t-8 -29.5t-162.5 -87t-166.5 -70.5h-11q-14 8 -6 24z" />
<glyph unicode="&#xc2;" horiz-adv-x="1458" d="M43 209q0 197 137 471q80 156 180 264q-131 61 -192 131q-47 49 -47 121t29 92q20 27 36 6q8 -16 -2 -40.5t-10 -47.5q0 -49 51 -102q68 -74 170 -119q195 211 437.5 337t508.5 126q154 0 243 -66.5t89 -181.5t-145 -227q-193 -147 -617 -148q-236 0 -430 64 q-49 -45 -135 -180.5t-144.5 -280.5t-58.5 -252q0 -23 2 -41q25 -170 172 -170q166 0 385 180q307 258 480 574q61 110 112 110q45 0 45 -53q0 -57 -47 -110q-145 -160 -205 -482q-12 -68 -12 -128t25.5 -93t58.5 -33q98 0 230 160q117 150 178 291q16 33 32.5 29t2.5 -37 q-84 -186 -191 -328q-55 -76 -137 -126t-163 -50t-122 64.5t-41 152.5t21.5 174t56.5 133q-207 -248 -440 -397q-123 -76 -273 -90q-14 -2 -48 -2t-81 24q-141 59 -141 281zM512 926q172 -53 395 -54q365 0 547 123q139 95 139 236q0 80 -67.5 124t-177.5 44 q-248 0 -449 -127t-387 -346zM1151 1518l305 217q39 6 57.5 6t20.5 -6l74 -217q6 -12 -13 -13q-20 0 -28 13l-94 145q-244 -131 -271 -145q-20 -18 -49 -11q-10 4 -2 11z" />
<glyph unicode="&#xc3;" horiz-adv-x="1458" d="M43 209q0 197 137 471q80 156 180 264q-131 61 -192 131q-47 49 -47 121t29 92q20 27 36 6q8 -16 -2 -40.5t-10 -47.5q0 -49 51 -102q68 -74 170 -119q195 211 437.5 337t508.5 126q154 0 243 -66.5t89 -181.5t-145 -227q-193 -147 -617 -148q-236 0 -430 64 q-49 -45 -135 -180.5t-144.5 -280.5t-58.5 -252q0 -23 2 -41q25 -170 172 -170q166 0 385 180q307 258 480 574q61 110 112 110q45 0 45 -53q0 -57 -47 -110q-145 -160 -205 -482q-12 -68 -12 -128t25.5 -93t58.5 -33q98 0 230 160q117 150 178 291q16 33 32.5 29t2.5 -37 q-84 -186 -191 -328q-55 -76 -137 -126t-163 -50t-122 64.5t-41 152.5t21.5 174t56.5 133q-207 -248 -440 -397q-123 -76 -273 -90q-14 -2 -48 -2t-81 24q-141 59 -141 281zM512 926q172 -53 395 -54q365 0 547 123q139 95 139 236q0 80 -67.5 124t-177.5 44 q-248 0 -449 -127t-387 -346zM1174 1583q86 154 188 154q47 0 133 -36t109.5 -37t31.5 -1q63 0 99 72q2 6 12 6q27 0 31 -10q-80 -164 -191 -164q-45 0 -131 37q-96 43 -147.5 43t-87.5 -68q-4 -14 -37 -4q-10 4 -10 8z" />
<glyph unicode="&#xc4;" horiz-adv-x="1458" d="M43 209q0 197 137 471q80 156 180 264q-131 61 -192 131q-47 49 -47 121t29 92q20 27 36 6q8 -16 -2 -40.5t-10 -47.5q0 -49 51 -102q68 -74 170 -119q195 211 437.5 337t508.5 126q154 0 243 -66.5t89 -181.5t-145 -227q-193 -147 -617 -148q-236 0 -430 64 q-49 -45 -135 -180.5t-144.5 -280.5t-58.5 -252q0 -23 2 -41q25 -170 172 -170q166 0 385 180q307 258 480 574q61 110 112 110q45 0 45 -53q0 -57 -47 -110q-145 -160 -205 -482q-12 -68 -12 -128t25.5 -93t58.5 -33q98 0 230 160q117 150 178 291q16 33 32.5 29t2.5 -37 q-84 -186 -191 -328q-55 -76 -137 -126t-163 -50t-122 64.5t-41 152.5t21.5 174t56.5 133q-207 -248 -440 -397q-123 -76 -273 -90q-14 -2 -48 -2t-81 24q-141 59 -141 281zM512 926q172 -53 395 -54q365 0 547 123q139 95 139 236q0 80 -67.5 124t-177.5 44 q-248 0 -449 -127t-387 -346zM1315 1672q0 30 18.5 49.5t48 19.5t49 -18.5t19.5 -48t-18.5 -49t-48 -19.5t-49 18t-19.5 48zM1579 1672q0 30 18.5 49.5t48 19.5t49 -18.5t19.5 -48t-18.5 -49t-48 -19.5t-49 18t-19.5 48z" />
<glyph unicode="&#xc5;" horiz-adv-x="1458" d="M43 209q0 197 137 471q80 156 180 264q-131 61 -192 131q-47 49 -47 121t29 92q20 27 36 6q8 -16 -2 -40.5t-10 -47.5q0 -49 51 -102q68 -74 170 -119q195 211 437.5 337t508.5 126q154 0 243 -66.5t89 -181.5t-145 -227q-193 -147 -617 -148q-236 0 -430 64 q-49 -45 -135 -180.5t-144.5 -280.5t-58.5 -252q0 -23 2 -41q25 -170 172 -170q166 0 385 180q307 258 480 574q61 110 112 110q45 0 45 -53q0 -57 -47 -110q-145 -160 -205 -482q-12 -68 -12 -128t25.5 -93t58.5 -33q98 0 230 160q117 150 178 291q16 33 32.5 29t2.5 -37 q-84 -186 -191 -328q-55 -76 -137 -126t-163 -50t-122 64.5t-41 152.5t21.5 174t56.5 133q-207 -248 -440 -397q-123 -76 -273 -90q-14 -2 -48 -2t-81 24q-141 59 -141 281zM512 926q172 -53 395 -54q365 0 547 123q139 95 139 236q0 80 -67.5 124t-177.5 44 q-248 0 -449 -127t-387 -346zM1475 1612q0 53 45 88q53 39 107 39t87 -29t33 -75t-45 -81q-49 -37 -106.5 -36.5t-89 29t-31.5 65.5zM1546 1628q-2 -33 14.5 -54.5t43 -21.5t46 23.5t23.5 56.5q2 33 -14.5 54.5t-43 19.5t-47 -23.5t-22.5 -54.5z" />
<glyph unicode="&#xc6;" horiz-adv-x="2811" d="M37 228q0 239 156 517q82 147 180 261q-137 66 -205 141q-49 55 -49 133t31 98q20 27 36 11q12 -18 1 -45t-11 -52q0 -55 59.5 -122.5t174.5 -120.5q481 535 999 534q195 0 291 -102q154 90 319.5 128t245.5 38q274 0 397 -99q82 -70 82 -147q0 -94 -100 -181t-258 -122 q-39 -8 -63.5 -8t-24.5 14q0 25 76.5 33t142.5 74.5t90 144.5q8 25 8 63.5t-39 85.5q-68 88 -274 88q-125 0 -278.5 -44t-278.5 -142q16 -43 16 -84q0 -156 -182 -272q16 -68 74.5 -111t128 -61.5t137.5 -33t110 -38t37 -62.5q-8 -36 -88 -36l-233 2q-289 0 -438 -142 q-160 -145 -160 -340q0 -252 242 -358q125 -55 332.5 -55t441 88t379.5 209q158 135 157 237q0 55 -59.5 69.5t-63.5 31.5q-2 14 24 14t56 -16q113 -55 113 -148q0 -117 -154 -248q-154 -129 -405.5 -207.5t-519.5 -78.5q-391 0 -590 198q-113 113 -113 291q0 63 27 125 q-72 -86 -161 -172t-147.5 -130t-127.5 -87q-121 -76 -267 -88q-12 -2 -46 -2t-81 26q-147 61 -147 300zM143 176q0 -23 2 -41q25 -170 172 -170q166 0 385 180q156 131 305.5 311.5t222.5 317.5t130 137q47 0 47 -59q0 -63 -51 -119l-10 -16q57 29 147 56.5t205 33.5 q-180 59 -256 176q-215 -78 -486.5 -78t-449.5 58q-207 -293 -285 -486.5t-78 -300.5zM539 1004q154 -49 376 -50q98 0 233.5 11.5t270.5 64.5q-8 33 -8 51q3 207 234 365q-66 84 -216.5 84t-276.5 -41t-235.5 -121t-194.5 -164t-183 -200zM1573 1126q104 95 104 220 q-96 -106 -102 -211z" />
<glyph unicode="&#xc7;" horiz-adv-x="1454" d="M123 438q0 74 18.5 195t81 262t148.5 250q-35 137 -35 252.5t26 216.5q4 16 13.5 23.5t13.5 7.5q20 0 12 -50.5t-8 -143.5t27 -237q164 211 385 308q170 74 356 73q53 0 111 -6q315 -35 426 -241q45 -86 45 -178.5t-43 -190.5q-90 -197 -309 -291q-141 -61 -310 -61 q-72 0 -145 10q-367 53 -508 348q-49 -70 -101.5 -233.5t-60.5 -251.5t-8 -147.5t8 -123.5q14 -113 86 -204t192 -126.5t208 -35.5q285 0 485 119q121 72 189.5 163t146.5 250q12 27 25.5 19t-1.5 -39q-78 -158 -144.5 -250t-184.5 -176q-229 -156 -482 -156h-18 q-4 -4 -29 -20q-59 -39 -59 -52q41 6 104.5 6.5t141.5 -38.5t78 -120t-107 -153q-53 -35 -138 -34.5t-180.5 24t-95.5 70.5q0 14 10.5 14t32.5 -22q49 -51 187.5 -51.5t185.5 73.5q29 43 29 91t-47 79t-99.5 31t-101.5 -24.5t-58.5 -24.5t-21.5 9t-12 20.5t11 23.5t128 100 q-135 10 -269 66.5t-221 177.5t-106 264q-8 61 -8 135zM469 1051q145 -371 606 -371q260 0 417 145.5t157 329.5t-160 287q-119 76 -293 76t-350 -101q-221 -128 -377 -366z" />
<glyph unicode="&#xc8;" horiz-adv-x="1847" d="M41 160q0 45 16.5 111.5t73.5 152.5t166 159.5t232.5 109.5t222.5 40q-104 37 -174 95.5t-70 127.5v13q14 158 184 283.5t355.5 174t318.5 48.5q227 0 334 -91q68 -57 67 -120q0 -86 -104 -166t-252 -113q-37 -8 -59.5 -8t-22.5 12q0 23 65.5 30t122 46t89.5 94 q39 68 39 119t-48 94q-66 55 -208 55t-294.5 -44t-281.5 -144q-156 -121 -156 -264q0 -57 36 -103.5t104.5 -67t140.5 -34.5q156 -29 156 -82q0 -47 -88 -47l-220 2q-270 0 -421 -131q-178 -152 -179 -352q0 -94 44 -173t158 -130.5t307.5 -51.5t408.5 82t362 197 q168 131 168 229q0 47 -49 58.5t-51 25.5q-4 18 30.5 16.5t57.5 -14.5q92 -49 92 -127q0 -115 -158.5 -239.5t-400.5 -198.5t-452.5 -74t-342.5 41q-231 72 -303 265q-16 49 -16 94zM1329 1698q0 43 33 43q25 0 156 -104.5t131 -114.5q0 -14 -19 -15q-8 0 -117.5 57.5 t-117.5 61.5q-66 29 -66 72z" />
<glyph unicode="&#xc9;" horiz-adv-x="1847" d="M41 153.5q0 45.5 16.5 112t73.5 152.5t166 159.5t232.5 109.5t222.5 40q-100 37 -173 102.5t-73 141.5v12q14 166 183 293t351.5 172t315.5 45q233 0 342 -94q68 -59 67 -125q0 -92 -105.5 -177t-254.5 -118q-37 -8 -60.5 -8t-21.5 12q8 25 69.5 32t118.5 50 q115 82 131 213v14q0 51 -49 94q-63 57 -254.5 57.5t-396.5 -100.5q-246 -121 -280 -309q-4 -23 -4.5 -63.5t35.5 -90t104.5 -73t140.5 -37.5q156 -35 156 -88q0 -47 -88 -47l-220 2q-270 0 -421 -131q-178 -152 -179 -352q0 -94 44 -173t158 -130.5t307.5 -51.5t408.5 82 t362 197q168 131 168 229q0 47 -49 58.5t-51 25.5q-4 18 30.5 16.5t57.5 -14.5q92 -49 92 -127q0 -115 -158.5 -239.5t-400.5 -198.5t-452.5 -74t-342.5 41q-231 72 -303 264q-16 49 -16 94.5zM1491 1550.5q6 10.5 53 44t100.5 71.5t78 55.5t48 17.5t41 -8.5t17.5 -21.5 t-7 -28.5t-153.5 -82t-158.5 -66.5h-11q-14 8 -8 18.5z" />
<glyph unicode="&#xca;" horiz-adv-x="1847" d="M41 160q0 45 16.5 111.5t73.5 152.5t166 159.5t232.5 109.5t222.5 40q-104 37 -174 95.5t-70 127.5v13q14 158 184 283.5t355.5 174t318.5 48.5q227 0 334 -91q68 -57 67 -120q0 -86 -104 -166t-252 -113q-37 -8 -59.5 -8t-22.5 12q0 23 65.5 30t122 46t89.5 94 q39 68 39 119t-48 94q-66 55 -208 55t-294.5 -44t-281.5 -144q-156 -121 -156 -264q0 -57 36 -103.5t104.5 -67t140.5 -34.5q156 -29 156 -82q0 -47 -88 -47l-220 2q-270 0 -421 -131q-178 -152 -179 -352q0 -94 44 -173t158 -130.5t307.5 -51.5t408.5 82t362 197 q168 131 168 229q0 47 -49 58.5t-51 25.5q-4 18 30.5 16.5t57.5 -14.5q92 -49 92 -127q0 -115 -158.5 -239.5t-400.5 -198.5t-452.5 -74t-342.5 41q-231 72 -303 265q-16 49 -16 94zM1186 1521q0 5 4 7l301 207q37 6 57.5 6t20.5 -6l71 -207q2 -2 2 -6t-17 -4t-26 10 l-92 139q-242 -125 -261 -138t-39.5 -13t-20.5 5z" />
<glyph unicode="&#xcb;" horiz-adv-x="1847" d="M41 164q0 45 16.5 111.5t73.5 152.5t166 160t232.5 109.5t222.5 39.5q-104 37 -174 95.5t-70 128.5v12q14 158 184 283.5t355.5 174t318.5 48.5q227 0 334 -90q68 -57 67 -121q0 -86 -104 -166t-252 -113q-37 -8 -59.5 -8t-22.5 12q0 23 65.5 30t122 46t89.5 94 q39 68 39 119t-48 94q-66 55 -208 55.5t-294.5 -44t-281.5 -144.5q-156 -121 -156 -264q0 -57 36 -103.5t104.5 -67t140.5 -34.5q156 -29 156 -82q0 -47 -88 -47l-220 2q-270 0 -421 -131q-178 -152 -179 -352q0 -94 44 -173t158 -130t307.5 -51t408.5 81.5t362 196.5 q168 131 168 229q0 47 -49 58.5t-51 25.5q-4 18 30.5 16.5t57.5 -14.5q92 -49 92 -127q0 -115 -158.5 -239.5t-400.5 -198.5t-452.5 -74t-342.5 41q-231 72 -303 265q-16 49 -16 94zM1296 1672q0 30 18.5 49.5t48.5 19.5t49.5 -18.5t19.5 -48t-18.5 -49t-48.5 -19.5 t-49.5 18t-19.5 48zM1561 1672q0 30 18 49.5t48 19.5t49.5 -18.5t19.5 -48t-18.5 -49t-48.5 -19.5t-49 18t-19 48z" />
<glyph unicode="&#xcc;" horiz-adv-x="1855" d="M-28.5 -96q-0.5 80 41.5 189.5t136.5 194.5t149.5 89q20 0 25 -4q6 -10 -23 -25q-63 -27 -141 -119q-121 -145 -121 -325q0 -137 88 -236q111 -123 315 -168q88 -20 135.5 -20t97.5 1t132 21q170 43 325.5 139.5t266 208t205.5 248.5q160 229 241 453q143 379 307 661 q-326 -68 -518 -151q-197 -84 -303 -193q-137 -135 -176 -307q-12 -49 -12 -90q0 -86 47 -139t101.5 -53t116.5 24.5t108 81.5q68 84 67 199q0 57 -16 71q-4 6 4 19q20 31 39 0q27 -51 26.5 -111.5t-39.5 -132.5q-70 -131 -200 -180q-66 -25 -140.5 -25t-160.5 67.5 t-86 188.5q0 37 8 80q117 526 1167 705q18 39 66.5 96t82 68.5t56.5 11.5q70 0 70 -64q0 -80 -88 -112q-72 -29 -156 -43q-139 -258 -252 -660q-39 -139 -119 -310t-190 -314q-408 -522 -1043 -523q-295 0 -469 129q-119 86 -157 230q-14 49 -14.5 129zM2204 1702 q0 39 32 39q23 0 154 -102.5t131 -112.5q0 -16 -18 -17q-8 0 -118 57.5t-118 61.5q-63 35 -63 74zM2251 1274q139 29 133 78q-4 25 -27.5 24.5t-105.5 -102.5z" />
<glyph unicode="&#xcd;" horiz-adv-x="1855" d="M-39 -33q0 80 42 189.5t136 194.5t150 89q20 0 24 -6q6 -8 -22 -22q-63 -27 -141 -121q-121 -143 -121 -324q0 -137 88 -235q111 -123 313 -168q90 -20 137 -20.5t97.5 0.5t132.5 22q170 43 325.5 139t266 208t204.5 247q160 231 242 454q143 379 307 662 q-326 -68 -518 -150q-197 -86 -305 -192q-135 -137 -174 -309q-12 -49 -12 -90q0 -86 47 -139.5t101 -53.5t116.5 24.5t109.5 82.5q66 84 66 198q0 57 -17 72q-4 6 5 18q20 31 38 0q27 -51 27 -111.5t-39 -131.5q-70 -131 -201 -181q-66 -25 -140.5 -24.5t-160.5 68 t-86 188.5q0 37 9 80q117 526 1167 704q18 39 66.5 96.5t82 68.5t56.5 11q68 0 69 -57q0 -61 -49 -94q-45 -29 -108 -49l-86 -19q-139 -258 -252 -659q-39 -139 -119 -310.5t-190 -314.5q-408 -522 -1043 -522q-295 0 -469 127q-119 88 -158 229q-14 51 -14 131zM1989 1506 q0 7 4 13.5t58 47.5t117.5 85t92.5 65.5t56.5 21.5t49 -10.5t21.5 -25.5t-6 -28q-10 -25 -184 -103.5t-197 -78.5q-2 0 -7 3t-5 10zM2241 1337q139 29 133 78q-4 25 -27.5 24.5t-105.5 -102.5z" />
<glyph unicode="&#xce;" horiz-adv-x="1855" d="M-39 -33q0 80 42 189.5t136 194.5t150 89q20 0 24 -6q6 -8 -22 -22q-63 -27 -141 -121q-121 -143 -121 -324q0 -137 88 -235q111 -123 313 -168q90 -20 137 -20.5t97.5 0.5t132.5 22q170 43 325.5 139t266 208t204.5 247q160 231 242 454q143 379 307 662 q-326 -68 -518 -150q-197 -86 -305 -192q-135 -137 -174 -309q-12 -49 -12 -90q0 -86 47 -139.5t101 -53.5t116.5 24.5t109.5 82.5q66 84 66 198q0 57 -17 72q-4 6 5 18q20 31 38 0q27 -51 27 -111.5t-39 -131.5q-70 -131 -201 -181q-66 -25 -140.5 -24.5t-160.5 68 t-86 188.5q0 37 9 80q117 526 1167 704q18 39 66.5 96.5t82 68.5t56.5 11q68 0 69 -57q0 -61 -49 -94q-45 -29 -108 -49l-86 -19q-139 -258 -252 -659q-39 -139 -119 -310.5t-190 -314.5q-408 -522 -1043 -522q-295 0 -469 127q-119 88 -158 229q-14 51 -14 131z M2075 1510.5q0 5.5 4 7.5l305 217q37 6 57.5 6t20.5 -6l73 -217q2 -2 2 -7.5t-18 -5.5t-25 13l-94 145q-243 -131 -270 -145q-14 -12 -34.5 -12.5t-20.5 5zM2241 1337q139 29 133 78q-4 25 -27.5 24.5t-105.5 -102.5z" />
<glyph unicode="&#xcf;" horiz-adv-x="1855" d="M-39 -33q0 80 42 189.5t136 194.5t150 89q20 0 24 -6q6 -8 -22 -22q-63 -27 -141 -121q-121 -143 -121 -324q0 -137 88 -235q111 -123 313 -168q90 -20 137 -20.5t97.5 0.5t132.5 22q170 43 325.5 139t266 208t204.5 247q160 231 242 454q143 379 307 662 q-326 -68 -518 -150q-197 -86 -305 -192q-135 -137 -174 -309q-12 -49 -12 -90q0 -86 47 -139.5t101 -53.5t116.5 24.5t109.5 82.5q66 84 66 198q0 57 -17 72q-4 6 5 18q20 31 38 0q27 -51 27 -111.5t-39 -131.5q-70 -131 -201 -181q-66 -25 -140.5 -24.5t-160.5 68 t-86 188.5q0 37 9 80q117 526 1167 704q18 39 66.5 96.5t82 68.5t56.5 11q68 0 69 -57q0 -61 -49 -94q-45 -29 -108 -49l-86 -19q-139 -258 -252 -659q-39 -139 -119 -310.5t-190 -314.5q-408 -522 -1043 -522q-295 0 -469 127q-119 88 -158 229q-14 51 -14 131zM2195 1660 q0 30 18.5 49.5t48.5 19.5t49.5 -18.5t19.5 -48.5t-18.5 -49.5t-48.5 -19.5t-49.5 18.5t-19.5 48.5zM2241 1337q139 29 133 78q-4 25 -27.5 24.5t-105.5 -102.5zM2460 1660q0 30 18.5 49.5t48 19.5t49 -18.5t19.5 -48.5t-18.5 -49.5t-48 -19.5t-49 18.5t-19.5 48.5z" />
<glyph unicode="&#xd0;" horiz-adv-x="2103" d="M6 149q0 46 47 99q74 84 205 84q88 0 177 -32t317 -153q137 133 299 426l-168 -18q-14 -2 -26.5 22.5t-6.5 50t33 25.5q117 0 211 -2q66 129 154.5 289t119.5 203q82 123 162 215q-229 137 -488 137q-106 0 -217 -22q-317 -68 -483 -277q-102 -127 -102 -242 q0 -156 149 -202q53 -14 92 -14.5t87 12t96 57.5q90 90 96 168q2 18 23.5 13t17.5 -32q-20 -150 -158 -227q-84 -45 -168 -45l-106 18q-156 53 -205 199q-20 55 -21 111q0 113 84 223q180 242 639 309q90 12 178 12q285 0 543 -135l51 60q29 25 88 65q88 61 127 62 q16 0 9 -14.5t-37.5 -35t-52.5 -49.5l-97 -139q219 -145 334 -373q92 -182 92 -397q0 -266 -139 -432q-115 -139 -285 -201q-125 -45 -256 -45q-49 0 -98 6q-315 39 -555 146q-190 -154 -422 -154q-264 0 -326 148q-14 35 -14 81zM139 140q0 -36 17 -68q43 -88 176 -88 q196 -1 366 122q-240 115 -303 137.5t-123.5 22.5t-96.5 -45t-36 -81zM817 111q223 -100 504 -127q35 -4 70 -4q211 0 368 131q182 154 207 374q6 51 6 101q0 188 -74 354q-92 211 -272 352q-74 -113 -211 -341t-184 -304l102 -2q35 -2 43 -27q-4 -25 -35 -28q-57 0 -151 -4 q-219 -344 -373 -475z" />
<glyph unicode="&#xd1;" horiz-adv-x="2127" d="M2 594q0 123 65.5 285.5t219.5 312.5q291 287 614 354q90 18 157.5 18.5t115.5 -5.5q127 -18 198 -121q57 -80 58 -203q0 -111 -25 -185.5t-33 -98t-29.5 -73t-27.5 -63.5t-33 -74q-86 -186 -82 -188l64 102q125 195 270 369q270 328 485 426q121 57 211 57t150.5 -44 t60.5 -150.5t-67.5 -259t-197.5 -390t-220 -432t-90 -346.5q0 -53 14 -96q29 -94 111 -94q45 0 93 22.5t72.5 22.5t24.5 -26.5t-39 -48t-63 -21.5q-328 0 -328 284q0 104 36 211t255 567.5t237 581.5q4 18 5 35q0 86 -101 86q-68 0 -153 -45q-322 -154 -613 -588 q-172 -256 -391 -727q-80 -172 -84 -180q-29 -59 -115 -59q-51 0 -55 32q-2 6 0 15q98 145 275.5 537t242.5 683q20 96 20.5 171t-20.5 128q-43 109 -145 125q-31 4 -86 4t-165 -31.5t-247 -117.5q-309 -193 -448 -502q-76 -168 -76 -309q0 -72 18 -135q68 -170 238 -179 q211 0 369 177q126 141 126 278q0 131 -137 131q-16 0 -35.5 -2t-24.5 5t3 16q18 25 121.5 24.5t136.5 -90.5q14 -35 14 -74q0 -88 -65 -200q-111 -184 -305 -263q-100 -41 -222 -40.5t-221.5 83t-130.5 234.5q-6 39 -6 84zM1894 1610q72 127 158 127q35 0 107 -29 q80 -33 125.5 -32.5t74.5 59.5q4 6 19.5 6t15.5 -8q0 -137 -158 -138q-39 0 -110 31q-76 35 -120 35t-73 -55q-4 -12 -32 -2q-4 4 -7 6z" />
<glyph unicode="&#xd2;" horiz-adv-x="1605" d="M74 958q0 246 211 412q225 176 532 176t509 -171t202 -488v-41q205 135 266 258q10 23 26.5 19.5t16.5 -13.5t-12 -29q-121 -190 -305 -307q-8 -96 -52.5 -231t-149 -279.5t-245.5 -253.5q-225 -174 -459 -174q-246 0 -356 182q-82 133 -82 296t60 325q-143 96 -158 258 q-4 31 -4 61zM184 961q0 -162 88 -238q80 170 236 344q170 190 360 233q29 6 77 6.5t112 -38.5q14 -8 15 -16.5t-9 -12.5t-30.5 3t-69 7t-138.5 -49t-182 -153q-182 -207 -266 -394q129 -59 309 -59q80 0 170 12q293 37 547 174q4 56 4 109q0 346 -221 512 q-147 111 -344 110q-57 0 -117 -10q-250 -37 -408 -207q-133 -147 -133 -333zM283 295q0 -283 170 -367q92 -43 183 -43t179 41q178 80 321.5 254t217.5 383q29 83 37 146q-342 -182 -721 -183q-184 0 -324 56q-63 -166 -63 -287zM1161 1698q0 43 35 43q25 0 164 -110 t139 -120q0 -18 -18 -18q-12 0 -126 60.5t-126 66.5q-68 35 -68 78z" />
<glyph unicode="&#xd3;" horiz-adv-x="1605" d="M74 958q0 246 211 412q225 176 532 176t509 -171t202 -488v-41q205 135 266 258q10 23 26.5 19.5t16.5 -13.5t-12 -29q-121 -190 -305 -307q-8 -96 -52.5 -231t-149 -279.5t-245.5 -253.5q-225 -174 -459 -174q-246 0 -356 182q-82 133 -82 296t60 325q-143 96 -158 258 q-4 31 -4 61zM184 961q0 -162 88 -238q80 170 236 344q170 190 360 233q29 6 77 6.5t112 -38.5q14 -8 15 -16.5t-9 -12.5t-30.5 3t-69 7t-138.5 -49t-182 -153q-182 -207 -266 -394q129 -59 309 -59q80 0 170 12q293 37 547 174q4 56 4 109q0 346 -221 512 q-147 111 -344 110q-57 0 -117 -10q-250 -37 -408 -207q-133 -147 -133 -333zM283 295q0 -283 170 -367q92 -43 183 -43t179 41q178 80 321.5 254t217.5 383q29 83 37 146q-342 -182 -721 -183q-184 0 -324 56q-63 -166 -63 -287zM1227 1506q0 7 4 13.5t58 47.5t117.5 85 t92.5 65.5t56.5 21.5t49 -10.5t21.5 -25.5t-6 -28q-10 -25 -184 -103.5t-197 -78.5q-2 0 -7 3t-5 10z" />
<glyph unicode="&#xd4;" horiz-adv-x="1605" d="M74 958q0 246 211 412q225 176 532 176t509 -171t202 -488v-41q205 135 266 258q10 23 26.5 19.5t16.5 -13.5t-12 -29q-121 -190 -305 -307q-8 -96 -52.5 -231t-149 -279.5t-245.5 -253.5q-225 -174 -459 -174q-246 0 -356 182q-82 133 -82 296t60 325q-143 96 -158 258 q-4 31 -4 61zM184 961q0 -162 88 -238q80 170 236 344q170 190 360 233q29 6 77 6.5t112 -38.5q14 -8 15 -16.5t-9 -12.5t-30.5 3t-69 7t-138.5 -49t-182 -153q-182 -207 -266 -394q129 -59 309 -59q80 0 170 12q293 37 547 174q4 56 4 109q0 346 -221 512 q-147 111 -344 110q-57 0 -117 -10q-250 -37 -408 -207q-133 -147 -133 -333zM283 295q0 -283 170 -367q92 -43 183 -43t179 41q178 80 321.5 254t217.5 383q29 83 37 146q-342 -182 -721 -183q-184 0 -324 56q-63 -166 -63 -287zM1049 1556l251 181q31 4 47.5 4t16.5 -4 l61 -181q4 -8 -8 -8q-18 0 -26 8l-78 121q-201 -109 -223 -121q-16 -14 -39 -8q-4 4 -2 8z" />
<glyph unicode="&#xd5;" horiz-adv-x="1605" d="M74 958q0 246 211 412q225 176 532 176t509 -171t202 -488v-41q205 135 266 258q10 23 26.5 19.5t16.5 -13.5t-12 -29q-121 -190 -305 -307q-8 -96 -52.5 -231t-149 -279.5t-245.5 -253.5q-225 -174 -459 -174q-246 0 -356 182q-82 133 -82 296t60 325q-143 96 -158 258 q-4 31 -4 61zM184 961q0 -162 88 -238q80 170 236 344q170 190 360 233q29 6 77 6.5t112 -38.5q14 -8 15 -16.5t-9 -12.5t-30.5 3t-69 7t-138.5 -49t-182 -153q-182 -207 -266 -394q129 -59 309 -59q80 0 170 12q293 37 547 174q4 56 4 109q0 346 -221 512 q-147 111 -344 110q-57 0 -117 -10q-250 -37 -408 -207q-133 -147 -133 -333zM283 295q0 -283 170 -367q92 -43 183 -43t179 41q178 80 321.5 254t217.5 383q29 83 37 146q-342 -182 -721 -183q-184 0 -324 56q-63 -166 -63 -287zM858 1612q70 125 154 125q6 0 27.5 -1 t89 -29t87 -29t25.5 -1q51 0 80 60q2 6 10 6t21 -6l4 -4q-61 -135 -156 -136q-39 0 -110 31q-76 35 -119 35t-74 -55q0 -6 -10 -6h-17q-12 4 -12 10z" />
<glyph unicode="&#xd6;" horiz-adv-x="1605" d="M74 958q0 246 211 412q225 176 532 176t509 -171t202 -488v-41q205 135 266 258q10 23 26.5 19.5t16.5 -13.5t-12 -29q-121 -190 -305 -307q-8 -96 -52.5 -231t-149 -279.5t-245.5 -253.5q-225 -174 -459 -174q-246 0 -356 182q-82 133 -82 296t60 325q-143 96 -158 258 q-4 31 -4 61zM184 961q0 -162 88 -238q80 170 236 344q170 190 360 233q29 6 77 6.5t112 -38.5q14 -8 15 -16.5t-9 -12.5t-30.5 3t-69 7t-138.5 -49t-182 -153q-182 -207 -266 -394q129 -59 309 -59q80 0 170 12q293 37 547 174q4 56 4 109q0 346 -221 512 q-147 111 -344 110q-57 0 -117 -10q-250 -37 -408 -207q-133 -147 -133 -333zM283 295q0 -283 170 -367q92 -43 183 -43t179 41q178 80 321.5 254t217.5 383q29 83 37 146q-342 -182 -721 -183q-184 0 -324 56q-63 -166 -63 -287zM1047 1672q0 30 18 49.5t48 19.5 t49.5 -18.5t19.5 -48t-18.5 -49t-48.5 -19.5t-49 18t-19 48zM1311 1672q0 30 18.5 49.5t48 19.5t49 -18.5t19.5 -48t-18.5 -49t-48 -19.5t-49 18t-19.5 48z" />
<glyph unicode="&#xd7;" horiz-adv-x="622" d="M170 260l152 164l-89 172q2 6 17.5 22.5t21.5 18.5l86 -174l152 164q6 0 14 -17.5t8 -25.5l-151 -164l88 -172q-2 -6 -17.5 -22.5t-21.5 -18.5l-86 174l-151 -164q-4 2 -13.5 19.5t-9.5 23.5z" />
<glyph unicode="&#xd8;" horiz-adv-x="1579" d="M100 995q0 125 64.5 246t191.5 201q233 145 477 145t418 -100l99 174l69 -33l-104 -184q240 -178 239 -520v-39q205 135 267 258q10 23 26.5 19.5t16.5 -13.5t-13 -29q-121 -190 -305 -307q-8 -96 -52 -231.5t-148.5 -279.5t-244.5 -252.5t-302 -153.5 q-76 -20 -157 -20.5t-169 26.5l-24 10l-87 -154l-65 29l88 160q-133 96 -172 295q-10 61 -10 127q0 145 59 309q-143 96 -158 258q-4 31 -4 59zM211 997q0 -160 88 -235q80 170 236 344q170 190 358 233q31 6 79 6.5t111 -38.5q14 -8 15.5 -16.5t-9 -12.5t-31 3t-68.5 7 t-138 -49t-182 -154q-182 -207 -267 -393q123 -61 312 -61q29 0 57 2l449 799q-154 119 -367 118q-217 0 -424 -141q-115 -78 -167 -191.5t-52 -220.5zM311 311q0 -207 109 -305l313 559h-37q-186 0 -323 56q-62 -150 -62 -310zM479 -33q92 -43 182.5 -43t178.5 41 q180 82 323.5 256t216.5 381q29 82 37 146q-283 -150 -596 -177zM860 641q299 33 570 178q4 54 4 103q0 293 -156 456z" />
<glyph unicode="&#xd9;" horiz-adv-x="1929" d="M-8 742.5q0 263.5 201 514.5q162 203 434 353q236 131 454 131q115 0 213 -41q199 -86 199 -330q0 -182 -117 -452q-68 -160 -130 -292t-103 -267.5t-41 -227.5q0 -172 115 -172q123 0 288 205l56 76q82 119 212 378t132 261q61 108 114 108q41 -20 41 -59 q0 -47 -51 -137q-170 -305 -223 -621q-14 -86 -14 -156q0 -141 75 -141h23q37 0 37 -16q0 -25 -45 -31h-25q-68 12 -104.5 71.5t-39.5 122t-3 103.5q0 117 26 244q-145 -240 -286 -355q-133 -106 -252 -106q-86 0 -134 55q-61 74 -61 185.5t63.5 293t169 412.5t137 358 t31.5 228q0 150 -79 196q-96 51 -218 52q-217 0 -464 -144q-367 -215 -496 -543q-53 -137 -53 -250.5t39 -205.5q86 -209 299 -209q250 0 399 254q82 135 82 239q0 154 -139 154q-33 0 -83 -11.5t-46 1.5q6 16 61 40.5t111 24.5q84 0 127 -71q29 -51 28.5 -121t-34.5 -164 q-78 -207 -267 -320q-139 -86 -266 -86t-225 76q-168 129 -168 392.5zM1679 1692q0 49 39 49q27 0 182.5 -123t155.5 -135q0 -18 -20 -19q-12 0 -140.5 67.5t-140.5 74.5q-76 37 -76 86z" />
<glyph unicode="&#xda;" horiz-adv-x="1929" d="M-8 742.5q0 263.5 201 514.5q162 203 434 353q236 131 454 131q115 0 213 -41q199 -86 199 -330q0 -182 -117 -452q-68 -160 -130 -292t-103 -267.5t-41 -227.5q0 -172 115 -172q123 0 288 205l56 76q82 119 212 378t132 261q61 109 114 108q57 -29 33 -98 q-20 -57 -57 -123q-156 -281 -209 -596q-14 -86 -14 -156q0 -141 75 -141h23q37 0 37 -16q0 -25 -45 -31h-25q-68 12 -104.5 71.5t-39.5 122t-3 103.5q0 117 26 244q-145 -240 -286 -355q-133 -106 -252 -106q-86 0 -134 55q-61 74 -61 185.5t63.5 293t169 412.5t137 358 t31.5 228q0 150 -79 196q-96 51 -218 52q-217 0 -464 -144q-367 -215 -496 -543q-53 -137 -53 -250.5t39 -205.5q86 -209 299 -209q250 0 399 254q82 135 82 239q0 154 -139 154q-33 0 -83 -11.5t-46 1.5q6 16 61 40.5t111 24.5q84 0 127 -71q29 -51 28.5 -121t-34.5 -164 q-78 -207 -267 -320q-139 -86 -266 -86t-225 76q-168 129 -168 392.5zM1671 1385.5q0 7.5 4 13.5t58.5 47t118 85t92 65.5t56.5 21.5t49.5 -10.5t21.5 -25.5t-7 -28q-10 -25 -184 -103.5t-197 -78.5q-2 0 -7 3t-5 10.5z" />
<glyph unicode="&#xdb;" horiz-adv-x="1929" d="M-8 742.5q0 263.5 201 514.5q162 203 434 353q236 131 454 131q115 0 213 -41q199 -86 199 -330q0 -182 -117 -452q-68 -160 -130 -292t-103 -267.5t-41 -227.5q0 -172 115 -172q123 0 288 205l56 76q82 119 212 378t132 261q61 109 114 108q57 -29 33 -98 q-20 -57 -57 -123q-156 -281 -209 -596q-14 -86 -14 -156q0 -141 75 -141h23q37 0 37 -16q0 -25 -45 -31h-25q-68 12 -104.5 71.5t-39.5 122t-3 103.5q0 117 26 244q-145 -240 -286 -355q-133 -106 -252 -106q-86 0 -134 55q-61 74 -61 185.5t63.5 293t169 412.5t137 358 t31.5 228q0 150 -79 196q-96 51 -218 52q-217 0 -464 -144q-367 -215 -496 -543q-53 -137 -53 -250.5t39 -205.5q86 -209 299 -209q250 0 399 254q82 135 82 239q0 154 -139 154q-33 0 -83 -11.5t-46 1.5q6 16 61 40.5t111 24.5q84 0 127 -71q29 -51 28.5 -121t-34.5 -164 q-78 -207 -267 -320q-139 -86 -266 -86t-225 76q-168 129 -168 392.5zM1651 1510.5q0 5.5 4 7.5l305 217q39 6 57.5 6t20.5 -6l73 -217q2 -2 2.5 -7.5t-18 -5.5t-24.5 13l-95 145q-243 -131 -270 -145q-14 -12 -34.5 -12.5t-20.5 5z" />
<glyph unicode="&#xdc;" horiz-adv-x="1929" d="M-8 742.5q0 263.5 201 514.5q162 203 434 353q236 131 454 131q115 0 213 -41q199 -86 199 -330q0 -182 -117 -452q-68 -160 -130 -292t-103 -267.5t-41 -227.5q0 -172 115 -172q123 0 288 205l56 76q82 119 212 378t132 261q61 108 114 108q41 -20 41 -59 q0 -47 -51 -137q-170 -305 -223 -621q-14 -86 -14 -156q0 -141 75 -141h23q37 0 37 -16q0 -25 -45 -31h-25q-68 12 -104.5 71.5t-39.5 122t-3 103.5q0 117 26 244q-145 -240 -286 -355q-133 -106 -252 -106q-86 0 -134 55q-61 74 -61 185.5t63.5 293t169 412.5t137 358 t31.5 228q0 150 -79 196q-96 51 -218 52q-217 0 -464 -144q-367 -215 -496 -543q-53 -137 -53 -250.5t39 -205.5q86 -209 299 -209q250 0 399 254q82 135 82 239q0 154 -139 154q-33 0 -83 -11.5t-46 1.5q6 16 61 40.5t111 24.5q84 0 127 -71q29 -51 28.5 -121t-34.5 -164 q-78 -207 -267 -320q-139 -86 -266 -86t-225 76q-168 129 -168 392.5zM1638 1471.5q0 29.5 18.5 49t48.5 19.5t49.5 -18.5t19.5 -48t-18.5 -49t-48.5 -19.5t-49.5 18.5t-19.5 48zM1903 1471.5q0 29.5 18 49t48 19.5t49.5 -18.5t19.5 -48t-18.5 -49t-48 -19.5t-49 18.5 t-19.5 48z" />
<glyph unicode="&#xdd;" horiz-adv-x="2060" d="M37 692.5q0 155.5 75.5 311t197.5 286.5t261.5 221.5t292.5 149.5q162 63 297 63t240 -41q109 -49 153.5 -132t44.5 -175q0 -231 -169 -514q-264 -451 -320 -700q-8 -43 -8 -90t30.5 -88t90.5 -41q84 0 182 71q117 82 233 269q195 311 293 637q6 33 37 51t45 18 q37 0 37 -61.5t-40 -235.5t-139 -471t-204 -483q31 2 109.5 4t129 4t121 13.5t115.5 31.5q109 51 127 152q-4 27 3 29.5t12 -7.5q14 -27 14 -57.5t-33 -84.5t-129 -94t-500 -44q-98 -147 -248.5 -260t-318.5 -176.5t-283.5 -63.5t-195.5 27q-154 51 -154 155q0 135 248 238 q317 131 885 131q201 492 280 792q-186 -401 -415 -557q-121 -82 -234 -82t-175 61.5t-62 168.5q0 223 303 717q94 154 151 311q66 174 66 299t-81 178t-196 53q-45 0 -96 -10q-369 -70 -666 -383q-150 -158 -219 -323q-72 -178 -71 -306q0 -53 14 -98q41 -150 162 -205 q61 -27 127 -26q227 0 387 254q90 145 90 254q0 141 -127 141q-25 0 -59.5 -7t-36.5 5q-2 16 47 28.5t94 12.5q106 0 143 -90q16 -39 17 -84q0 -90 -64 -209q-125 -227 -366 -328q-74 -31 -136 -31q-199 0 -311 144q-98 121 -98 276.5zM547 -653q0 -16 8 -33 q43 -70 197.5 -70t295 51.5t273.5 150.5t219 239q-537 0 -823 -166q-170 -98 -170 -172zM1823 1375q0 7 4 13.5t58 47.5t117.5 85t92.5 65.5t56.5 21.5t49 -10.5t21.5 -26t-6 -27.5q-10 -25 -184 -103.5t-197 -78.5q-2 0 -7 3t-5 10z" />
<glyph unicode="&#xde;" horiz-adv-x="688" d="M23 16q37 35 184 294t215 401q152 319 244 634.5t90 395.5q8 -12 40.5 -17.5t41.5 -13.5q43 -39 43 -78t-19 -96l-110 -279q135 -23 247.5 -86t163.5 -153q35 -61 35 -105q0 -115 -94 -231q-63 -78 -155.5 -133t-223.5 -90t-276 -35q-23 0 -46 2l-153 -313 q-33 -66 -60.5 -86.5t-50 -20.5h-30t-39 6t-47.5 4zM422 467q162 4 282.5 42t218 120t131 156.5t33.5 119.5q0 158 -135 240q-74 41 -215 74l-102 -279q-115 -293 -148 -340z" />
<glyph unicode="&#xdf;" horiz-adv-x="894" d="M-821 -522q0 55 39 100t89 45t74.5 -27.5t24.5 -48.5q0 -61 -35 -93t-71.5 -32t-65.5 25q23 -59 119 -59q23 0 45 6q184 47 330.5 225t283.5 522q70 176 115 299q96 256 291 727q82 160 176 224q53 35 117.5 34.5t146.5 -29t115 -86t33 -139.5q0 -178 -187 -307 q-33 -23 -59.5 -40t-55 -45.5t-43 -54.5t-14.5 -61.5t23 -70.5q135 -215 135 -320q0 -61 -43.5 -126.5t-102.5 -106.5q27 -4 37 -4q82 0 162 96q43 53 154 268q4 10 14 11q18 2 18 -15q0 -4 -9 -23.5t-17 -39t-26.5 -56t-32 -59t-34 -55.5t-40.5 -51l-43 -45 q-35 -35 -82 -50q-76 -25 -148 -4q-47 -20 -84 -20q-145 0 -176 114q-6 27 -6 65t25.5 73t56.5 38t53.5 -12.5t22.5 -52.5v-14q0 -51 23.5 -91t62.5 -59q90 70 90 219q0 51 -35 174q-43 152 -43 187t14.5 73.5t43 67.5t81 76t95.5 98t62.5 118t19.5 108q0 147 -115 186 q-35 12 -68 12q-68 0 -142.5 -65.5t-119.5 -192.5t-137 -405.5t-149.5 -442.5t-140.5 -344t-178 -290.5t-224 -200.5q-145 -98 -281 -99q-174 0 -184 136v10zM436 109q0 -12 2 -27q16 -55 76 -55q25 0 41 8q-76 47 -82 153q-37 -36 -37 -79z" />
<glyph unicode="&#xe0;" horiz-adv-x="716" d="M47 164q0 201 174 407q98 115 242 150q39 10 74 10q94 0 159 -65q20 -23 12 -43.5t-34 -16.5q-23 74 -99 74q-88 0 -217 -139q-74 -82 -137 -193q-80 -133 -80 -213t52 -80q123 0 321 377q39 76 65.5 103.5t67.5 27.5q8 0 42 -6t50 -2q-37 -37 -104.5 -167t-80.5 -194.5 t-13 -104.5t30 -40q39 0 97 72q84 104 166 272q8 18 18 21q16 6 16 -13q0 -10 -6 -24q-188 -381 -317 -381q-59 0 -96 57q-18 31 -18.5 82t20.5 125q-164 -264 -283 -264q-33 0 -59 20q-61 43 -62 148zM284.5 1040.5q0.5 49.5 39.5 49.5q27 0 182.5 -123.5t155.5 -135.5 q0 -18 -21 -18q-12 0 -140 67.5t-141 73.5q-76 37 -75.5 86.5z" />
<glyph unicode="&#xe1;" horiz-adv-x="716" d="M47 164q0 201 174 407q98 115 242 150q39 10 74 10q94 0 159 -65q20 -23 12 -43.5t-34 -16.5q-23 74 -99 74q-88 0 -217 -139q-74 -82 -137 -193q-80 -133 -80 -213t52 -80q123 0 321 377q39 76 65.5 103.5t67.5 27.5q8 0 42 -6t50 -2q-37 -37 -104.5 -167t-80.5 -194.5 t-13 -104.5t30 -40q39 0 97 72q84 104 166 272q8 18 18 21q16 6 16 -13q0 -10 -6 -24q-188 -381 -317 -381q-59 0 -96 57q-18 31 -18.5 82t20.5 125q-164 -264 -283 -264q-33 0 -59 20q-61 43 -62 148zM449 820q0 7 4 13.5t58 47.5t117.5 85t92.5 65.5t56.5 21.5t49 -10.5 t21.5 -26t-6 -27.5q-10 -25 -184 -103.5t-197 -78.5q-2 0 -7 3t-5 10z" />
<glyph unicode="&#xe2;" horiz-adv-x="716" d="M47 164q0 201 174 407q98 115 242 150q39 10 74 10q94 0 159 -65q20 -23 12 -43.5t-34 -16.5q-23 74 -99 74q-88 0 -217 -139q-74 -82 -137 -193q-80 -133 -80 -213t52 -80q123 0 321 377q39 76 65.5 103.5t67.5 27.5q8 0 42 -6t50 -2q-37 -37 -104.5 -167t-80.5 -194.5 t-13 -104.5t30 -40q39 0 97 72q84 104 166 272q8 18 18 21q16 6 16 -13q0 -10 -6 -24q-188 -381 -317 -381q-59 0 -96 57q-18 31 -18.5 82t20.5 125q-164 -264 -283 -264q-33 0 -59 20q-61 43 -62 148zM379 832.5q0 5.5 4 7.5l305 217q37 4 57.5 4t20.5 -4l74 -217 q2 -2 2 -7.5t-17.5 -5.5t-25.5 13l-94 145q-244 -131 -271 -145q-14 -12 -34.5 -12.5t-20.5 5z" />
<glyph unicode="&#xe3;" horiz-adv-x="716" d="M47 164q0 201 174 407q98 115 242 150q39 10 74 10q94 0 159 -65q20 -23 12 -43.5t-34 -16.5q-23 74 -99 74q-88 0 -217 -139q-74 -82 -137 -193q-80 -133 -80 -213t52 -80q123 0 321 377q39 76 65.5 103.5t67.5 27.5q8 0 42 -6t50 -2q-37 -37 -104.5 -167t-80.5 -194.5 t-13 -104.5t30 -40q39 0 97 72q84 104 166 272q8 18 19 21.5t14 -7t-5 -30.5q-188 -381 -317 -381q-59 0 -96 57q-18 31 -18.5 82t20.5 125q-164 -264 -283 -264q-33 0 -59 20q-61 43 -62 148zM311 920q86 154 189 153q47 0 133 -36t109.5 -37t31.5 -1q63 0 98 72q2 6 13 6 q27 0 30 -10q-79 -164 -190 -164q-45 0 -131 37q-96 43 -147.5 43t-88.5 -68q-4 -14 -36 -4q-10 4 -11 9z" />
<glyph unicode="&#xe4;" horiz-adv-x="716" d="M47 164q0 201 174 407q98 115 242 150q39 10 74 10q94 0 159 -65q20 -23 12 -43.5t-34 -16.5q-23 74 -99 74q-88 0 -217 -139q-74 -82 -137 -193q-80 -133 -80 -213t52 -80q123 0 321 377q39 76 65.5 103.5t67.5 27.5q8 0 42 -6t50 -2q-37 -37 -104.5 -167t-80.5 -194.5 t-13 -104.5t30 -40q39 0 97 72q84 104 166 272q8 18 18 21q16 6 16 -13q0 -10 -6 -24q-188 -381 -317 -381q-59 0 -96 57q-18 31 -18.5 82t20.5 125q-164 -264 -283 -264q-33 0 -59 20q-61 43 -62 148zM440 939q0 30 18.5 49.5t48.5 19.5t49 -18.5t19 -48.5t-18 -49.5 t-48 -19.5t-49.5 18.5t-19.5 48.5zM705 939q0 30 18 49.5t48 19.5t49.5 -18.5t19.5 -48.5t-18.5 -49.5t-48.5 -19.5t-49 18.5t-19 48.5z" />
<glyph unicode="&#xe5;" horiz-adv-x="716" d="M47 164q0 201 174 407q98 115 242 150q39 10 74 10q94 0 159 -65q20 -23 12 -43.5t-34 -16.5q-23 74 -99 74q-88 0 -217 -139q-74 -82 -137 -193q-80 -133 -80 -213t52 -80q123 0 321 377q39 76 65.5 103.5t67.5 27.5q8 0 42 -6t50 -2q-37 -37 -104.5 -167t-80.5 -194.5 t-13 -104.5t30 -40q39 0 97 72q84 104 166 272q8 18 18 21q16 6 16 -13q0 -10 -6 -24q-188 -381 -317 -381q-59 0 -96 57q-18 31 -18.5 82t20.5 125q-164 -264 -283 -264q-33 0 -59 20q-61 43 -62 148zM502 989q0 53 45 88q53 39 107.5 39t87 -28.5t32.5 -74.5t-45 -81 q-49 -37 -106.5 -37t-89 28.5t-31.5 65.5zM573 1005.5q-2 -32.5 14.5 -54t43 -21.5t46 23.5t23.5 56.5q2 33 -14 54t-43 19t-47.5 -23.5t-22.5 -54z" />
<glyph unicode="&#xe6;" horiz-adv-x="892" d="M47 164q0 201 174 407q98 115 242 150q39 10 74 10q94 0 159 -65l6 -9q102 74 179 74q45 0 82 -26q35 -29 34 -66q0 -119 -147 -233q-45 -35 -126 -63t-124 -28q-35 -70 -35 -129t22.5 -105t80.5 -46q186 0 338 350q14 33 34 29q8 -2 8.5 -10.5t-46 -107.5t-93.5 -161 q-104 -143 -258 -143q-66 0 -121 39q-82 57 -81 180q0 25 2 49q-164 -264 -283 -264q-33 0 -59 20q-61 43 -62 148zM141 135q0 -80 52 -80q123 0 321 377q60 113 152 195q-25 53 -88 53q-92 0 -220 -139q-74 -82 -137 -193q-80 -133 -80 -213zM616 350q37 2 100.5 25.5 t112.5 64.5q113 97 113 203q0 41 -33 41q-57 0 -174 -141q-33 -41 -76 -107z" />
<glyph unicode="&#xe7;" horiz-adv-x="532" d="M35 -332q0 14 10 14.5t33 -22.5q49 -51 187 -51t186 74q29 43 28.5 91t-47.5 78.5t-100 30.5t-102.5 -24.5t-57.5 -24.5t-20.5 9.5t-12.5 20.5t17.5 30.5t130.5 97.5h-2q-115 0 -165 56t-50 130q0 90 44 196.5t101 184.5q119 162 274 162q76 0 110 -36t34 -83 q0 -70 -58 -119q-29 -27 -48 -26.5t-33 14.5q72 86 71.5 145.5t-49.5 59.5q-96 0 -219 -176q-39 -55 -76 -145.5t-37 -163t30 -117.5t92.5 -45t115.5 29.5t101 94t73 107.5t68 129q14 29 24 24t10 -14.5t-26.5 -66t-53 -104.5t-73.5 -109q-82 -113 -228 -125l5 -8 q-2 -2 -27 -19q-63 -43 -64 -53q39 6 103.5 6t142.5 -39t78 -119.5t-106 -152.5q-51 -35 -137.5 -35t-181.5 23.5t-95 70.5z" />
<glyph unicode="&#xe8;" horiz-adv-x="503" d="M63 190.5q0 92.5 44.5 195.5t120 192.5t173.5 130.5q47 20 90.5 20t79.5 -24q35 -29 35 -64q0 -123 -147 -235q-45 -35 -127 -63t-125 -28q-29 -70 -29 -155q0 -57 25.5 -91t72.5 -34q186 0 338 350q14 33 35 29q8 -2 8 -10.5t-46 -107.5t-93 -161q-104 -143 -258 -143 q-82 0 -139.5 53t-57.5 145.5zM211 1023q0 48 39 48q27 0 182.5 -123t155.5 -135q0 -18 -21 -18q-12 0 -140 67.5t-140 73.5q-76 39 -76 87zM221 350q35 0 101.5 24.5t115.5 65.5q113 97 113 203q0 41 -33 41q-57 0 -174 -141q-70 -86 -123 -193z" />
<glyph unicode="&#xe9;" horiz-adv-x="503" d="M63 190.5q0 92.5 44.5 195.5t120 192.5t173.5 130.5q47 20 90.5 20t79.5 -24q35 -29 35 -64q0 -123 -147 -235q-45 -35 -127 -63t-125 -28q-29 -70 -29 -155q0 -57 25.5 -91t72.5 -34q186 0 338 350q14 33 35 29q12 -6 2 -31q-86 -186 -133 -248q-104 -143 -258 -143 q-82 0 -139.5 53t-57.5 145.5zM221 350q35 0 101.5 24.5t115.5 65.5q113 97 113 203q0 41 -33 41q-57 0 -174 -141q-70 -86 -123 -193zM414 820q0 7 4 13.5t58 47.5t117.5 85t92.5 65.5t56.5 21.5t49 -10.5t21.5 -26t-6 -27.5q-10 -25 -184 -103.5t-197 -78.5q-2 0 -7 3 t-5 10z" />
<glyph unicode="&#xea;" horiz-adv-x="503" d="M63 190.5q0 92.5 44.5 195.5t120 192.5t173.5 130.5q47 20 90.5 20t79.5 -24q35 -29 35 -64q0 -123 -147 -235q-45 -35 -127 -63t-125 -28q-29 -70 -29 -155q0 -57 25.5 -91t72.5 -34q186 0 338 350q14 33 35 29q12 -6 2 -31q-86 -186 -133 -248q-104 -143 -258 -143 q-82 0 -139.5 53t-57.5 145.5zM221 350q35 0 101.5 24.5t115.5 65.5q113 97 113 203q0 41 -33 41q-57 0 -174 -141q-70 -86 -123 -193zM289 832.5q0 5.5 4 7.5l305 217q37 4 57.5 4t20.5 -4l74 -217q2 -2 2 -7.5t-17.5 -5.5t-25.5 13l-95 145q-243 -131 -270 -145 q-14 -12 -34.5 -12.5t-20.5 5z" />
<glyph unicode="&#xeb;" horiz-adv-x="503" d="M63 190.5q0 92.5 44.5 195.5t120 192.5t173.5 130.5q47 20 90.5 20t79.5 -24q35 -29 35 -64q0 -123 -147 -235q-45 -35 -127 -63t-125 -28q-29 -70 -29 -155q0 -57 25.5 -91t72.5 -34q186 0 338 350q14 33 35 29q12 -6 2 -31q-86 -186 -133 -248q-104 -143 -258 -143 q-82 0 -139.5 53t-57.5 145.5zM221 350q35 0 101.5 24.5t115.5 65.5q113 97 113 203q0 41 -33 41q-57 0 -174 -141q-70 -86 -123 -193zM330 900q0 30 18.5 49.5t48 19.5t49 -18.5t19.5 -48.5t-18.5 -49t-48 -19t-49 18t-19.5 48zM594 900q0 30 18.5 49.5t48 19.5t49 -18.5 t19.5 -48.5t-18.5 -49t-48 -19t-49 18t-19.5 48z" />
<glyph unicode="&#xec;" horiz-adv-x="344" d="M20 150.5q0 60.5 31 115.5l178 340q39 76 51.5 87.5t59.5 11.5h104q-4 -4 -20 -17q-37 -25 -55 -57q-158 -256 -213 -398q-37 -80 -37 -131q0 -57 65 -57l80 39q82 80 193 309q16 31 28 19q6 -4 6.5 -13.5t-18 -47.5t-31 -62.5t-50.5 -92t-67.5 -101.5t-74.5 -64.5 t-102.5 -30.5t-92.5 45t-35 105.5zM110.5 1044.5q0.5 49.5 39.5 49.5q27 0 182 -123t155 -135q0 -18 -20 -19q-12 0 -140 67.5t-141 73.5q-76 37 -75.5 86.5z" />
<glyph unicode="&#xed;" horiz-adv-x="344" d="M20 150.5q0 60.5 31 115.5l178 340q39 76 51.5 87.5t59.5 11.5h104q-4 -4 -20 -17q-37 -25 -55 -57q-158 -256 -213 -398q-37 -80 -37 -131q0 -57 65 -57l80 39q82 80 193 309q16 31 28.5 19.5t-9 -55.5t-34 -68.5t-50.5 -92t-67.5 -101.5t-74.5 -64.5t-102.5 -30.5 t-92.5 45t-35 105.5zM381 863q0 7 4 13.5t58.5 47.5t118 85t92 65.5t56 21.5t49 -10.5t21.5 -26t-6 -27.5q-10 -25 -184 -103.5t-197 -78.5q-2 0 -7 3t-5 10z" />
<glyph unicode="&#xee;" horiz-adv-x="344" d="M20 150.5q0 60.5 31 115.5l178 340q39 76 51.5 87.5t59.5 11.5h104q-4 -4 -20 -17q-37 -25 -55 -57q-158 -256 -213 -398q-37 -80 -37 -131q0 -57 65 -57l80 39q82 80 193 309q16 31 28.5 19.5t-9 -55.5t-34 -68.5t-50.5 -92t-67.5 -101.5t-74.5 -64.5t-102.5 -30.5 t-92.5 45t-35 105.5zM186 824q0 5 4 7l306 218q37 4 57 4t20 -4l74 -218q2 -2 2 -7t-17.5 -5t-25.5 12l-94 146q-243 -132 -270 -146q-14 -12 -35 -12t-21 5z" />
<glyph unicode="&#xef;" horiz-adv-x="344" d="M20 150.5q0 60.5 31 115.5l178 340q39 76 51.5 87.5t59.5 11.5h104q-4 -4 -20 -17q-37 -25 -55 -57q-158 -256 -213 -398q-37 -80 -37 -131q0 -57 65 -57l80 39q82 80 193 309q16 31 28.5 19.5t-9 -55.5t-34 -68.5t-50.5 -92t-67.5 -101.5t-74.5 -64.5t-102.5 -30.5 t-92.5 45t-35 105.5zM219 877.5q0 29.5 18.5 49t48 19.5t49 -18.5t19.5 -48t-18.5 -49t-48 -19.5t-49 18.5t-19.5 48zM483 877.5q0 29.5 18.5 49t48.5 19.5t49 -18.5t19 -48t-18 -49t-48 -19.5t-49.5 18.5t-19.5 48z" />
<glyph unicode="&#xf0;" horiz-adv-x="794" d="M74 182q0 207 172 367q117 111 233 110q53 0 82 -31.5t29 -84.5v-31q23 100 22 193q0 209 -92 366q-33 -23 -89 -64.5t-65.5 -48t-32 10t-29.5 38t15 40.5l156 86q-78 92 -184 92l-74 -8q-23 0 -22 14q0 43 134 43t226 -96l160 86q33 18 51 -4q4 -6 4 -15.5t-35 -31 t-139 -89.5q90 -133 90 -354q0 -297 -145 -545q-86 -143 -201 -202q-66 -33 -134.5 -33t-100 60.5t-31.5 131.5zM164 96q0 -82 57 -82q117 1 287 314q53 94 53 202.5t-72 108.5q-80 0 -165 -115q-160 -213 -160 -428z" />
<glyph unicode="&#xf1;" d="M-80 -14q33 66 129 268q172 358 225 410q25 25 68 24q8 0 42 -6t50 -2q-76 -41 -248 -385q96 119 175 189.5t190 131t162 60.5q12 0 22 -4q-252 -442 -252 -578q0 -53 39 -53q104 0 281 354q12 29 27.5 21t0.5 -39q-109 -219 -183.5 -302t-149 -83t-113.5 57 q-20 27 -20 73t20.5 111.5t112.5 212.5q23 37 22.5 58.5t-35 21.5t-133.5 -92q-147 -135 -284 -405q-12 -20 -27.5 -25.5t-61 -7.5t-59.5 -10zM291 854q86 154 188 154q47 0 133 -36t109.5 -37t32.5 -1q63 0 98 72q2 6 12 6q27 0 31 -11q-79 -163 -190 -163q-45 0 -132 36 q-96 43 -147 43.5t-88 -67.5q-4 -14 -37 -4q-10 4 -10 8z" />
<glyph unicode="&#xf2;" d="M59 188q0 86 45 185q61 143 173 243.5t212 100.5q150 0 150 -189q0 -86 -45 -184q-57 -133 -172 -242q27 -51 96 -51q55 0 105 55q61 63 87.5 111.5t39 71t32 64.5t23.5 51.5t14 9.5q20 2 21 -15q0 -6 -4 -14l-13 -29q-12 -29 -18 -41t-21.5 -43.5t-27 -50t-30.5 -49.5 t-34.5 -49.5t-38 -41t-43.5 -34.5q-51 -31 -96 -31q-84 0 -131 54q-94 -70 -174 -70q-150 0 -150 188zM174 137.5q0 -94.5 72 -94.5q51 0 114 55q-33 47 -32 101q4 88 71 88q27 0 44.5 -18.5t17.5 -34t-4 -31.5q35 51 80 145q51 104 51 204.5t-76 100.5q-55 0 -131 -73.5 t-135 -200.5q-72 -147 -72 -241.5zM256 1044.5q0 49.5 39 49.5q27 0 182.5 -123t155.5 -135q0 -18 -21 -19q-12 0 -140 67.5t-140 73.5q-76 37 -76 86.5z" />
<glyph unicode="&#xf3;" d="M59 188q0 86 45 185q61 143 173 243.5t212 100.5q150 0 150 -189q0 -86 -45 -184q-57 -133 -172 -242q27 -51 96 -51q55 0 105 55q61 63 87.5 111.5t39 71t32 64.5t23.5 51.5t15 10.5t16.5 -7.5t-0.5 -22.5l-13 -29q-12 -29 -18 -41t-21.5 -43.5t-27 -50t-30.5 -49.5 t-34.5 -49.5t-38 -41t-43.5 -34.5q-51 -31 -96 -31q-84 0 -131 54q-94 -70 -174 -70q-150 0 -150 188zM174 137.5q0 -94.5 72 -94.5q51 0 114 55q-33 47 -32 101q4 88 71 88q27 0 44.5 -18.5t17.5 -34t-4 -31.5q35 51 80 145q51 104 51 204.5t-76 100.5q-55 0 -131 -73.5 t-135 -200.5q-72 -147 -72 -241.5zM512 869.5q0 7.5 4 13.5t58.5 47t118 85t92 65.5t56 21.5t49 -10.5t21.5 -25.5t-6 -28q-10 -25 -184 -103.5t-197 -78.5q-2 0 -7 3t-5 10.5z" />
<glyph unicode="&#xf4;" d="M59 188q0 86 45 185q61 143 173 243.5t212 100.5q150 0 150 -189q0 -86 -45 -184q-57 -133 -172 -242q27 -51 96 -51q55 0 105 55q61 63 87.5 111.5t39 71t32 64.5t23.5 51.5t14 9.5q20 2 21 -15q0 -6 -4 -14l-13 -29q-12 -29 -18 -41t-21.5 -43.5t-27 -50t-30.5 -49.5 t-34.5 -49.5t-38 -41t-43.5 -34.5q-51 -31 -96 -31q-84 0 -131 54q-94 -70 -174 -70q-150 0 -150 188zM174 137.5q0 -94.5 72 -94.5q51 0 114 55q-33 47 -32 101q4 88 71 88q27 0 44.5 -18.5t17.5 -34t-4 -31.5q35 51 80 145q51 104 51 204.5t-76 100.5q-55 0 -131 -73.5 t-135 -200.5q-72 -147 -72 -241.5zM324 832.5q0 5.5 4 7.5l305 217q39 4 57.5 4t20.5 -4l73 -217q2 -2 2 -7.5t-17 -5.5t-26 13l-94 145q-243 -131 -270 -145q-14 -12 -34.5 -12.5t-20.5 5z" />
<glyph unicode="&#xf5;" d="M59 188q0 86 45 185q61 143 173 243.5t212 100.5q150 0 150 -189q0 -86 -45 -184q-57 -133 -172 -242q27 -51 96 -51q55 0 105 55q61 63 87.5 111.5t39 71t32 64.5t23.5 51.5t15 10.5t16.5 -7.5t-0.5 -22.5l-13 -29q-12 -29 -18 -41t-21.5 -43.5t-27 -50t-30.5 -49.5 t-34.5 -49.5t-38 -41t-43.5 -34.5q-51 -31 -96 -31q-84 0 -131 54q-94 -70 -174 -70q-150 0 -150 188zM174 137.5q0 -94.5 72 -94.5q51 0 114 55q-33 47 -32 101q4 88 71 88q27 0 44.5 -18.5t17.5 -34t-4 -31.5q35 51 80 145q51 104 51 204.5t-76 100.5q-55 0 -131 -73.5 t-135 -200.5q-72 -147 -72 -241.5zM283 899q86 154 188 154q47 0 133 -36t109.5 -37t31.5 -1q63 0 99 72q2 6 12 6q27 0 31 -10q-80 -164 -191 -164q-45 0 -131 37q-96 43 -147 43t-88 -68q-4 -14 -37 -4q-10 4 -10 8z" />
<glyph unicode="&#xf6;" d="M59 188q0 86 45 185q61 143 173 243.5t212 100.5q150 0 150 -189q0 -86 -45 -184q-57 -133 -172 -242q27 -51 96 -51q55 0 105 55q61 63 87.5 111.5t39 71t32 64.5t23.5 51.5t14 9.5q20 2 21 -15q0 -6 -4 -14l-13 -29q-12 -29 -18 -41t-21.5 -43.5t-27 -50t-30.5 -49.5 t-34.5 -49.5t-38 -41t-43.5 -34.5q-51 -31 -96 -31q-84 0 -131 54q-94 -70 -174 -70q-150 0 -150 188zM174 137.5q0 -94.5 72 -94.5q51 0 114 55q-33 47 -32 101q4 88 71 88q27 0 44.5 -18.5t17.5 -34t-4 -31.5q35 51 80 145q51 104 51 204.5t-76 100.5q-55 0 -131 -73.5 t-135 -200.5q-72 -147 -72 -241.5zM399 935q0 30 18.5 49.5t48.5 19.5t49.5 -18.5t19.5 -48.5t-18.5 -49.5t-48.5 -19.5t-49.5 18.5t-19.5 48.5zM664 935q0 30 18 49.5t48 19.5t49.5 -18.5t19.5 -48.5t-18.5 -49.5t-48.5 -19.5t-49 18.5t-19 48.5z" />
<glyph unicode="&#xf7;" horiz-adv-x="821" d="M131 305v37l2 2h705l4 -2v-37l-4 -2h-705zM348 55q6 35 35 59.5t63.5 24.5t55 -24.5t15.5 -59.5t-34.5 -59.5t-64.5 -24.5t-55.5 24.5t-14.5 59.5zM436 514q4 35 34 59.5t64.5 24.5t55 -24.5t14.5 -59.5t-34.5 -59.5t-63.5 -24.5t-55.5 24.5t-14.5 59.5z" />
<glyph unicode="&#xf8;" d="M59 184q0 90 45 189q61 143 173 243.5t212 100.5q35 0 64 -15l51 91l39 -19l-55 -94q49 -47 49 -142.5t-50 -211t-165 -224.5q27 -51 96 -51q55 0 105 55q61 63 87.5 111.5t39 71t32 64.5t23.5 51.5t14 9.5q20 2 21 -15q0 -6 -4 -14l-13 -29q-12 -29 -18 -41t-21.5 -43.5 t-27 -50t-30.5 -49.5t-34.5 -49.5t-38 -41t-43.5 -34.5q-51 -31 -96 -31q-84 0 -131 54q-94 -70 -174 -70h-4h-2l-64 -111l-37 17l58 100q-100 31 -101 178zM172.5 158q0.5 -65 20.5 -92l331 585h-12q-59 0 -135 -75.5t-140.5 -214t-64 -203.5zM227 45h15q51 0 118 53 q-32 48 -32 101v22zM358 274q14 12 41 12.5t44.5 -18t17.5 -34t-4 -31.5q129 190 129 364q0 39 -25 66z" />
<glyph unicode="&#xf9;" horiz-adv-x="731" d="M45 119q0 88 76 213q-33 0 -19 33l37 71q70 133 115 226q20 43 80 43h125q-74 -53 -148.5 -206t-115.5 -240t-41 -132t15 -63.5t42 -18.5q39 0 108 82q109 127 306 535q23 43 80 43h110q-45 -35 -70.5 -72t-70.5 -131q-123 -246 -137 -326q-6 -29 -7 -53q0 -66 45 -70 q111 0 273 342q12 29 24.5 23t12.5 -16.5t-18.5 -47.5t-36 -71.5t-53.5 -95t-66 -95.5q-80 -90 -157 -90t-105 68q-12 31 -12.5 78t20.5 116q-150 -262 -277 -262q-111 0 -129 92q-6 11 -6 25zM291 1052q0 48 39 48q27 0 182.5 -123t155.5 -135q0 -18 -21 -19 q-12 0 -140 67.5t-140 74.5q-76 39 -76 87z" />
<glyph unicode="&#xfa;" horiz-adv-x="731" d="M45 119q0 88 76 213q-33 0 -19 33l37 71q70 133 115 226q20 43 80 43h125q-74 -53 -148.5 -206t-115.5 -240t-41 -132t15 -63.5t42 -18.5q39 0 108 82q109 127 306 535q23 43 80 43h110q-45 -35 -70.5 -72t-70.5 -131q-123 -246 -137 -326q-6 -29 -7 -53q0 -66 45 -70 q111 0 273 342q12 29 27.5 21t-6 -53.5t-39 -80t-53.5 -95t-66 -95.5q-80 -90 -157 -90t-105 68q-12 31 -12.5 78t20.5 116q-150 -262 -277 -262q-111 0 -129 92q-6 11 -6 25zM496 845q0 7 4 13t58 47t117.5 85t92.5 65.5t56.5 21.5t49 -10t21.5 -25.5t-6 -27.5 q-10 -25 -184 -104t-197 -79q-2 0 -7 3.5t-5 10.5z" />
<glyph unicode="&#xfb;" horiz-adv-x="731" d="M45 119q0 88 76 213q-33 0 -19 33l37 71q70 133 115 226q20 43 80 43h125q-74 -53 -148.5 -206t-115.5 -240t-41 -132t15 -63.5t42 -18.5q39 0 108 82q109 127 306 535q23 43 80 43h110q-45 -35 -70.5 -72t-70.5 -131q-123 -246 -137 -326q-6 -29 -7 -53q0 -66 45 -70 q111 0 273 342q12 29 24.5 23t12.5 -16.5t-18.5 -47.5t-36 -71.5t-53.5 -95t-66 -95.5q-80 -90 -157 -90t-105 68q-12 31 -12.5 78t20.5 116q-150 -262 -277 -262q-111 0 -129 92q-6 11 -6 25zM373 855q0 5 4 7l305 217q39 6 57.5 6t20.5 -6l74 -217q2 -2 2 -7t-17.5 -5 t-25.5 12l-95 146q-243 -132 -270 -146q-14 -12 -34.5 -12t-20.5 5z" />
<glyph unicode="&#xfc;" horiz-adv-x="731" d="M45 119q0 88 76 213q-33 0 -19 33l37 71q70 133 115 226q20 43 80 43h125q-74 -53 -148.5 -206t-115.5 -240t-41 -132t15 -63.5t42 -18.5q39 0 108 82q109 127 306 535q23 43 80 43h110q-45 -35 -70.5 -72t-70.5 -131q-123 -246 -137 -326q-6 -29 -7 -53q0 -66 45 -70 q111 0 273 342q12 29 24.5 23t12.5 -16.5t-18.5 -47.5t-36 -71.5t-53.5 -95t-66 -95.5q-80 -90 -157 -90t-105 68q-12 31 -12.5 78t20.5 116q-150 -262 -277 -262q-111 0 -129 92q-6 11 -6 25zM416 976q0 30 18.5 49t48 19t49 -18t19.5 -48t-18.5 -49.5t-48 -19.5t-49 18.5 t-19.5 48.5zM680 976q0 30 18.5 49t48 19t49 -18t19.5 -48t-18.5 -49.5t-48 -19.5t-49 18.5t-19.5 48.5z" />
<glyph unicode="&#xfd;" horiz-adv-x="817" d="M-356 -518q0 53 30 121q53 104 193 168q104 49 276 91t222 56q74 129 176 461q-119 -209 -199 -293t-162 -84q-111 0 -129 92q-8 14 -4 43t5 41t13.5 40t16.5 40q23 47 39 74q-33 0 -19 33l37 71q70 133 115 226q20 43 80 43h125q-4 -4 -21 -17q-37 -25 -55 -57 q-74 -127 -184 -363q-45 -96 -45 -141t15 -63.5t42 -18.5q39 0 108 82q145 170 322 535q23 43 80 43h110q-53 -37 -83.5 -93.5t-66.5 -153t-90 -256t-83 -239.5q193 57 295 203q45 63 129 225q14 29 25.5 23t11.5 -16.5t-34 -79t-69 -127t-90 -120t-122.5 -97t-180.5 -76.5 q-158 -287 -317 -422q-150 -123 -324 -123q-90 0 -139 38t-49 91zM-309.5 -527q0.5 -38 29 -58.5t71.5 -20.5q119 0 254 122t238 261l45 76q-338 -88 -426 -127q-132 -57 -189 -170q-23 -45 -22.5 -83zM528 859q0 7 4.5 13.5t58.5 47.5t117.5 85t92 65.5t56.5 21.5 t49.5 -10.5t21.5 -26t-6 -27.5q-10 -25 -184 -103.5t-197 -78.5q-2 0 -7.5 3t-5.5 10z" />
<glyph unicode="&#xfe;" horiz-adv-x="788" d="M-301 -551q37 35 184.5 294t214.5 400q152 319 259.5 684t105.5 445q8 -12 41 -17.5t41 -13.5q43 -39 43 -78t-19 -96l-258 -694q129 211 203 277.5t131 66.5q14 0 27 -4q102 -27 102 -160q0 -90 -47 -198.5t-130 -209t-202 -137.5q-45 -12 -103.5 -12t-127.5 37 l-238 -488q-33 -66 -60.5 -86t-50 -20h-29.5t-39 6t-48 4zM180 63q27 -27 74 -26.5t133 72.5q137 115 229 284q60 110 60 180q0 33 -13.5 61t-41.5 28q-72 0 -167.5 -133.5t-273.5 -465.5z" />
<glyph unicode="&#xff;" horiz-adv-x="817" d="M-356 -518q0 53 30 121q53 104 193 168q104 49 276 91t222 56q74 129 176 461q-119 -209 -199 -293t-162 -84q-111 0 -129 92q-8 14 -4 43t5 41t13.5 40t16.5 40q23 47 39 74q-33 0 -19 33l37 71q70 133 115 226q20 43 80 43h125q-4 -4 -21 -17q-37 -25 -55 -57 q-74 -127 -184 -363q-45 -96 -45 -141t15 -63.5t42 -18.5q39 0 108 82q145 170 322 535q23 43 80 43h110q-53 -37 -83.5 -93.5t-66.5 -153t-90 -256t-83 -239.5q193 57 295 203q45 63 129 225q14 29 25.5 23t11.5 -16.5t-34 -79t-69 -127t-90 -120t-122.5 -97t-180.5 -76.5 q-158 -287 -317 -422q-150 -123 -324 -123q-90 0 -139 38t-49 91zM-309.5 -527q0.5 -38 29 -58.5t71.5 -20.5q119 0 254 122t238 261l45 76q-338 -88 -426 -127q-132 -57 -189 -170q-23 -45 -22.5 -83zM377 949.5q0 29.5 18.5 49t48 19.5t49 -18.5t19.5 -48t-18.5 -49 t-48 -19.5t-49 18.5t-19.5 48zM641 949.5q0 29.5 18.5 49t48 19.5t49 -18.5t19.5 -48t-18.5 -49t-48 -19.5t-49 18.5t-19.5 48z" />
<glyph unicode="&#x100;" horiz-adv-x="1458" d="M37 228q0 239 156 517q82 147 180 261q-137 66 -205 141q-49 55 -49 133t31 98q20 27 36 11q12 -18 1 -45t-11 -52q0 -55 59.5 -122.5t174.5 -120.5q481 535 999 534q162 0 257 -72.5t95 -187.5q0 -125 -139 -242q-70 -61 -199 -106q-197 -70 -468 -70t-449 58 q-207 -293 -285 -486.5t-78 -300.5q0 -23 2 -41q25 -170 172 -170q166 0 385 180q156 131 305.5 311.5t222.5 317.5t130 137q47 0 47 -59q0 -63 -51 -119q-90 -100 -166 -252q-115 -229 -115 -413q0 -72 25.5 -105t58.5 -33q98 0 230 160q117 150 178 291q16 33 32.5 29 t2.5 -37q-84 -186 -191 -328q-55 -76 -137 -126t-163 -50t-122 64.5t-41 152.5t21.5 174t56.5 133q-207 -248 -440 -397q-123 -76 -273 -90q-14 -2 -48 -2t-81 24q-147 61 -147 300zM539 1004q154 -49 376 -50q420 0 613 136q149 104 149 258q0 88 -72.5 135t-199.5 47 t-253 -41t-235.5 -121t-194.5 -164t-183 -200zM1307 1679l26 62h436l-24 -62h-438z" />
<glyph unicode="&#x101;" horiz-adv-x="716" d="M47 164q0 201 174 407q98 115 242 150q39 10 74 10q94 0 159 -65q20 -23 12 -43.5t-34 -16.5q-23 74 -99 74q-88 0 -217 -139q-74 -82 -137 -193q-80 -133 -80 -213t52 -80q123 0 321 377q39 76 65.5 103.5t67.5 27.5q8 0 42 -6t50 -2q-37 -37 -104.5 -167t-80.5 -194.5 t-13 -104.5t30 -40q39 0 97 72q84 104 166 272q8 18 19 21.5t14 -7t-5 -30.5q-188 -381 -317 -381q-59 0 -96 57q-18 31 -18.5 82t20.5 125q-164 -264 -283 -264q-33 0 -59 20q-61 43 -62 148zM418 885l26 61h437l-25 -61h-438z" />
<glyph unicode="&#x102;" horiz-adv-x="1458" d="M43 209q0 197 137 471q80 156 180 264q-131 61 -192 131q-47 49 -47 121t29 92q20 27 36 6q8 -16 -2 -40.5t-10 -47.5q0 -49 51 -102q68 -74 170 -119q195 211 437.5 337t508.5 126q154 0 243 -66.5t89 -181.5t-145 -227q-193 -147 -617 -148q-236 0 -430 64 q-49 -45 -135 -180.5t-144.5 -280.5t-58.5 -252q0 -23 2 -41q25 -170 172 -170q166 0 385 180q307 258 480 574q61 110 112 110q45 0 45 -53q0 -57 -47 -110q-145 -160 -205 -482q-12 -68 -12 -128t25.5 -93t58.5 -33q98 0 230 160q117 150 178 291q16 33 32.5 29t2.5 -37 q-84 -186 -191 -328q-55 -76 -137 -126t-163 -50t-122 64.5t-41 152.5t21.5 174t56.5 133q-207 -248 -440 -397q-123 -76 -273 -90q-14 -2 -48 -2t-81 24q-141 59 -141 281zM512 926q172 -53 395 -54q365 0 547 123q139 95 139 236q0 80 -67.5 124t-177.5 44 q-248 0 -449 -127t-387 -346zM1307 1690q0 51 34 51q8 0 14.5 -13.5t15.5 -34t22 -32.5q53 -51 124.5 -51t109.5 16t56.5 33.5t49.5 58.5q20 27 41 13q4 -5 4 -11q0 -61 -111 -133q-76 -47 -155.5 -47t-135.5 29q-70 35 -69 121z" />
<glyph unicode="&#x103;" horiz-adv-x="716" d="M47 164q0 201 174 407q98 115 242 150q39 10 74 10q94 0 159 -65q20 -23 12 -43.5t-34 -16.5q-23 74 -99 74q-88 0 -217 -139q-74 -82 -137 -193q-80 -133 -80 -213t52 -80q123 0 321 377q39 76 65.5 103.5t67.5 27.5q8 0 42 -6t50 -2q-37 -37 -104.5 -167t-80.5 -194.5 t-13 -104.5t30 -40q39 0 97 72q84 104 166 272q8 18 19 21.5t14 -7t-5 -30.5q-188 -381 -317 -381q-59 0 -96 57q-18 31 -18.5 82t20.5 125q-164 -264 -283 -264q-33 0 -59 20q-61 43 -62 148zM473 1051q0 51 35 51q8 0 14 -13.5t15.5 -34t21.5 -32.5q53 -51 125 -51 t109.5 16.5t56 33.5t49.5 58q20 27 41 13q4 -5 4 -11q0 -61 -113 -133q-74 -47 -153.5 -47t-136.5 29q-68 35 -68 121z" />
<glyph unicode="&#x104;" horiz-adv-x="1458" d="M37 228q0 239 156 517q82 147 180 261q-137 66 -205 141q-49 55 -49 133t31 98q20 27 36 11q12 -18 1 -45t-11 -52q0 -55 59.5 -122.5t174.5 -120.5q481 535 999 534q162 0 257 -72.5t95 -187.5q0 -125 -139 -242q-70 -61 -199 -106q-197 -70 -468 -70t-449 58 q-207 -293 -285 -486.5t-78 -300.5q0 -23 2 -41q25 -170 172 -170q166 0 385 180q156 131 305.5 311.5t222.5 317.5t130 137q47 0 47 -59q0 -63 -51 -119q-90 -100 -166 -252q-115 -229 -115 -413q0 -72 25.5 -105t58.5 -33q98 0 230 160q117 150 178 291q16 33 32.5 29 t2.5 -37q-84 -186 -191 -328q-29 -41 -80 -84v-14q-90 -72 -165.5 -170.5t-77 -165t58.5 -66.5q43 0 104 62q14 6 18.5 3t2.5 -11q-8 -37 -65.5 -76t-112.5 -39q-109 0 -109 86q0 66 64.5 154t148.5 161q-45 -16 -88 -16q-80 0 -121 64.5t-41 152.5t21.5 174t56.5 133 q-207 -248 -440 -397q-123 -76 -273 -90q-14 -2 -48 -2t-81 24q-147 61 -147 300zM539 1004q154 -49 376 -50q420 0 613 136q149 104 149 258q0 88 -72.5 135t-199.5 47t-253 -41t-235.5 -121t-194.5 -164t-183 -200z" />
<glyph unicode="&#x105;" horiz-adv-x="716" d="M47 164q0 201 174 407q98 115 242 150q39 10 74 10q94 0 159 -65q20 -23 12 -43.5t-34 -16.5q-23 74 -99 74q-88 0 -217 -139q-74 -82 -137 -193q-80 -133 -80 -213t52 -80q123 0 321 377q39 76 65.5 103.5t67.5 27.5q8 0 42 -6t50 -2q-37 -37 -104.5 -167t-80.5 -194.5 t-13 -104.5t30 -40q39 0 97 72q84 104 166 272q8 18 18 21q16 6 16 -13q0 -10 -6 -24q-133 -272 -235 -348q-86 -72 -153.5 -164t-69 -156.5t58.5 -64.5q43 0 104 61q14 6 18.5 3t2.5 -11q-8 -37 -65.5 -76t-112.5 -39q-109 0 -109 86q0 68 70.5 162t158.5 168 q-78 8 -96 111q-4 16 -4 50t21 101q-164 -264 -283 -264q-33 0 -59 20q-61 43 -62 148z" />
<glyph unicode="&#x106;" horiz-adv-x="1454" d="M133 467q0 78 20.5 208t85 267t148.5 221q-35 106 -35 197.5t27 169.5q4 12 15.5 19t19.5 0t1 -40.5t-7 -105.5t26 -184q160 164 377 239q166 57 344 58q55 0 111 -7q324 -29 424 -200q37 -63 36.5 -135t-53.5 -154q-109 -168 -358 -232q-111 -28 -236 -28 q-467 0 -637 278q-25 -27 -68.5 -131t-76.5 -256q-37 -168 -37 -314.5t70.5 -270t220.5 -170.5q113 -33 201 -33q285 0 485 119q121 72 189.5 163t146.5 250q12 27 25.5 19t-1.5 -39q-78 -158 -144.5 -250t-180.5 -172q-229 -160 -496 -160q-160 0 -306 62.5t-231 192.5 t-100 284q-6 57 -6 135zM481 1090q143 -289 594 -289q268 0 432 133q125 104 125 231q0 162 -178 242q-111 47 -271.5 47t-354 -89t-347.5 -275zM1317 1550q0 4 3 10.5t48 38.5q139 98 168 120t51 22q57 0 58 -35q-1 -8 -5 -18q-8 -20 -150 -85t-153 -65q-20 0 -20 12z" />
<glyph unicode="&#x107;" horiz-adv-x="532" d="M70 178q0 90 44 196.5t101 184.5q119 162 274 162q76 0 110 -36t34 -83q0 -70 -58 -119q-29 -27 -48 -26.5t-33 14.5q72 86 71.5 145.5t-49.5 59.5q-96 0 -219 -176q-39 -55 -76 -145.5t-37 -163t30 -117.5t92.5 -45t115.5 29.5t101 94t73 107.5t68 129q14 29 28.5 23 t-0.5 -37q-49 -102 -76.5 -153.5t-78.5 -115.5q-92 -115 -252 -114q-115 0 -165 56t-50 130zM485 871.5q0 7.5 4.5 13.5t58.5 47t117.5 85t92 65.5t56.5 21.5t49.5 -10.5t21.5 -25.5t-6 -28q-10 -25 -184 -103.5t-197 -78.5q-2 0 -7.5 3t-5.5 10.5z" />
<glyph unicode="&#x108;" horiz-adv-x="1454" d="M133 467q0 78 20.5 208t85 267t148.5 221q-35 106 -35 197.5t27 169.5q8 23 27 22q18 0 10 -38.5t-8 -110.5t26 -184q160 164 377 239q166 57 344 58q55 0 111 -7q324 -29 424 -200q37 -63 36.5 -135t-53.5 -154q-109 -168 -358 -232q-111 -28 -236 -28q-467 0 -637 278 q-25 -27 -68.5 -131t-76.5 -256q-37 -168 -37 -314.5t70.5 -270t220.5 -170.5q113 -33 201 -33q285 0 485 119q121 72 189.5 163t146.5 250q12 27 25.5 19t-1.5 -39q-78 -158 -144.5 -250t-180.5 -172q-229 -160 -496 -160q-160 0 -306 62.5t-231 192.5t-100 284 q-6 57 -6 135zM481 1090q143 -289 594 -289q268 0 432 133q125 104 125 231q0 162 -178 242q-111 47 -271.5 47t-354 -89t-347.5 -275zM1212 1563l261 174q34 4 50.5 4t18.5 -4l68 -197q4 -12 -11 -12q-18 0 -26 12l-86 131q-203 -96 -227 -108q-18 -18 -46 -11q-4 6 -2 11z " />
<glyph unicode="&#x109;" horiz-adv-x="532" d="M70 178q0 90 44 196.5t101 184.5q119 162 274 162q76 0 110 -36t34 -83q0 -70 -58 -119q-29 -27 -48 -26.5t-33 14.5q72 86 71.5 145.5t-49.5 59.5q-96 0 -219 -176q-39 -55 -76 -145.5t-37 -163t30 -117.5t92.5 -45t115.5 29.5t101 94t73 107.5t68 129q14 29 28.5 23 t-0.5 -37q-49 -102 -76.5 -153.5t-78.5 -115.5q-92 -115 -252 -114q-115 0 -165 56t-50 130zM258 820q0 5 4 7l305 217q39 4 57.5 4.5t20.5 -4.5l74 -217q2 -2 2 -7t-17.5 -5t-25.5 12l-94 146q-244 -132 -271 -146q-14 -12 -34.5 -12t-20.5 5z" />
<glyph unicode="&#x10a;" horiz-adv-x="1454" d="M133 467q0 78 20.5 208t85 267t148.5 221q-35 106 -35 197.5t27 169.5q8 23 27 22q18 0 10 -38.5t-8 -110.5t26 -184q160 164 377 239q166 57 344 58q55 0 111 -7q324 -29 424 -200q37 -63 36.5 -135t-53.5 -154q-109 -168 -358 -232q-111 -28 -236 -28q-467 0 -637 278 q-25 -27 -68.5 -131t-76.5 -256q-37 -168 -37 -314.5t70.5 -270t220.5 -170.5q113 -33 201 -33q285 0 485 119q121 72 189.5 163t146.5 250q12 27 25.5 19t-1.5 -39q-78 -158 -144.5 -250t-180.5 -172q-229 -160 -496 -160q-160 0 -306 62.5t-231 192.5t-100 284 q-6 57 -6 135zM481 1090q143 -289 594 -289q268 0 432 133q125 104 125 231q0 162 -178 242q-111 47 -271.5 47t-354 -89t-347.5 -275zM1399 1626q0 35 31.5 75t64.5 40q49 0 49 -62q0 -31 -30.5 -62.5t-72.5 -31.5t-42 41z" />
<glyph unicode="&#x10b;" horiz-adv-x="532" d="M70 178q0 90 44 196.5t101 184.5q119 162 274 162q76 0 110 -36t34 -83q0 -70 -58 -119q-29 -27 -48 -26.5t-33 14.5q72 86 71.5 145.5t-49.5 59.5q-96 0 -219 -176q-39 -55 -76 -145.5t-37 -163t30 -117.5t92.5 -45t115.5 29.5t101 94t73 107.5t68 129q14 29 24 24 t10 -14.5t-27.5 -68t-55 -109.5t-78.5 -115q-92 -115 -252 -114q-115 0 -165 56t-50 130zM512 887q0 35 31.5 74.5t64.5 39.5q49 0 49 -63q0 -29 -30.5 -60.5t-72.5 -31.5t-42 41z" />
<glyph unicode="&#x10c;" horiz-adv-x="1454" d="M123 448q0 74 17.5 192t80 249t146.5 215q-35 106 -35 197.5t26 168.5q8 23 27 23q18 0 10 -39t-8 -110.5t27 -184.5q160 164 377 238q166 59 344 59q55 0 110 -6q324 -29 424 -201q37 -63 37 -135t-53 -153q-109 -168 -359 -232q-110 -29 -235 -29q-467 0 -637 279 q-25 -27 -67 -125t-71.5 -241.5t-29.5 -286t73.5 -263t205 -160.5t219.5 -40q285 0 485 119q121 72 189.5 163t146.5 250q12 27 25.5 19t-1.5 -39q-78 -158 -144.5 -250t-180.5 -172q-229 -160 -496 -160q-160 0 -306 62.5t-233 186.5t-106 269q-8 63 -8 137zM461 1030 q143 -289 594 -289q268 0 432 133q125 104 125 232q0 162 -178 242q-111 47 -272 47t-354 -89.5t-347 -275.5zM1239 1726q-6 12 12 13h11q12 0 18 -13l94 -145q244 131 271 145q14 12 34.5 12.5t20.5 -4.5t-4 -8l-305 -217q-39 -6 -57.5 -6t-20.5 6z" />
<glyph unicode="&#x10d;" horiz-adv-x="532" d="M70 178q0 90 44 196.5t101 184.5q119 162 274 162q76 0 110 -36t34 -83q0 -70 -58 -119q-29 -27 -48 -26.5t-33 14.5q72 86 71.5 145.5t-49.5 59.5q-96 0 -219 -176q-39 -55 -76 -145.5t-37 -163t30 -117.5t92.5 -45t115.5 29.5t101 94t73 107.5t68 129q14 29 28.5 23 t-0.5 -37q-49 -102 -76.5 -153.5t-78.5 -115.5q-92 -115 -252 -114q-115 0 -165 56t-50 130zM471 1150q0 5 18.5 5t24.5 -12l94 -146q244 132 271 146q14 12 34.5 12t20.5 -5t-4 -7l-305 -217q-39 -4 -57.5 -4t-20.5 4l-74 217q-2 2 -2 7z" />
<glyph unicode="&#x10e;" horiz-adv-x="2103" d="M6 130q0 44 49 93q76 76 203 76q86 0 186.5 -33t307.5 -137q102 90 204.5 241.5t177 293t182 307.5t214.5 276q-231 127 -490 127q-104 0 -215 -20q-324 -63 -489 -262q-96 -115 -96 -218q0 -145 149 -188q51 -12 90 -12t88 11t97 54q92 84 96 154q2 16 23.5 12t17.5 -28 q-20 -137 -158 -209q-82 -43 -151.5 -43t-122.5 16q-158 51 -207 188q-18 49 -19 99q0 106 88 211q180 219 635 280q92 12 183 13q281 0 538 -125q80 86 147.5 130t106.5 44q25 0 29 -8.5t-1 -13.5t-14 -5q-35 0 -90 -67.5t-90 -126.5q219 -135 334 -347q92 -168 92 -366 q0 -291 -180 -445q-154 -129 -360 -157q-99 -15 -199 -15q-346 0 -594 131q-188 -143 -422 -143q-264 0 -326 137q-14 31 -14 75zM139 121q0 -33 17 -64q45 -80 178 -80q196 0 364 113q-219 100 -293.5 124t-135 24t-95.5 -42t-35 -75zM817 94q203 -113 481 -112 q326 0 521 170q154 137 153 383q0 174 -74 325q-92 195 -272 326q-57 -84 -227 -343t-285 -419q-170 -232 -297 -330zM1647 1735q0 4 17 4t26 -10l94 -136q243 124 270 136q16 12 35.5 12t19.5 -5t-4 -7l-305 -201q-39 -4 -57.5 -4t-20.5 4l-73 201q-2 2 -2 6z" />
<glyph unicode="&#x10f;" horiz-adv-x="1341" d="M55 168q0 90 46 199.5t130 210t203 135.5q43 14 101.5 14t130.5 -37q139 262 237 486q29 68 56.5 87t51 19h28.5t39 -5t52 -3q-47 -43 -249 -418q-258 -479 -312 -639q-20 -59 -20 -98q0 -66 53 -66q96 0 256 322q6 12 11 24.5t16.5 16.5t15.5 -5.5t-4 -29.5 q-164 -381 -332 -381q-55 0 -88 49t-33 97.5t11 89.5q-119 -197 -205 -224q-25 -10 -48.5 -10t-45.5 6q-100 27 -101 160zM154 147q0 -33 13 -59.5t42 -26.5q70 0 172 143.5t268 452.5q-27 27 -75 27t-134 -72q-137 -115 -227 -282q-59 -111 -59 -183zM1130 942q0 10 17 16 q61 20 104 66.5t52 112.5q-27 -20 -60 -20.5t-53.5 24t-13.5 59.5q4 35 33.5 59.5t67.5 24.5t59.5 -32.5t21.5 -77.5q0 -90 -62.5 -150.5t-144.5 -87.5q-8 -4 -14.5 -4t-6.5 10z" />
<glyph unicode="&#x110;" horiz-adv-x="2103" d="M6 149q0 46 47 99q74 84 205 84q88 0 177 -32t317 -153q137 133 299 426l-168 -18q-14 -2 -26.5 22.5t-6.5 50t33 25.5q117 0 211 -2q66 129 154.5 289t119.5 203q82 123 162 215q-229 137 -488 137q-106 0 -217 -22q-317 -68 -483 -277q-102 -127 -102 -242 q0 -156 149 -202q53 -14 92 -14.5t87 12t96 57.5q90 90 96 168q2 18 23.5 13t17.5 -32q-20 -150 -158 -227q-84 -45 -168 -45l-106 18q-156 53 -205 199q-20 55 -21 111q0 113 84 223q180 242 639 309q90 12 178 12q285 0 543 -135q80 92 147.5 140.5t108.5 48.5 q23 0 27 -9.5t-1 -14.5t-14 -5q-35 0 -90 -73.5t-90 -137.5q219 -145 334 -373q92 -182 92 -397q0 -266 -127 -424q-104 -129 -254 -182q-178 -63 -352 -64q-352 1 -600 144q-190 -154 -422 -154q-264 0 -326 148q-14 35 -14 81zM139 140q0 -36 17 -68q43 -88 176 -88 q196 -1 366 122q-240 115 -303 137.5t-123.5 22.5t-96.5 -45t-36 -81zM817 111q207 -123 486 -123q324 0 516 184q154 150 153 414q0 188 -74 354q-92 211 -272 352q-74 -113 -211 -341t-184 -304l102 -2q35 -2 43 -27q-4 -25 -35 -28q-57 0 -151 -4q-219 -344 -373 -475z " />
<glyph unicode="&#x111;" horiz-adv-x="751" d="M55 168q0 90 46 199.5t130 210t203 135.5q43 14 101.5 14t130.5 -37q47 90 133 262l-127 -14q-14 -2 -26.5 22.5t-6.5 50t33 25.5q96 0 166 -2l65 142q29 68 56.5 87t51 19h28.5t39 -5t52 -3q-35 -33 -153 -242q86 -4 145 -4q35 -2 43 -27q-4 -25 -35 -28q-102 0 -190 -6 q-391 -703 -391 -848q0 -66 53 -66q96 0 256 322q6 12 11 24.5t16.5 16.5t15.5 -5.5t-4 -29.5q-164 -381 -332 -381q-55 0 -88 49t-33 97.5t11 89.5q-119 -197 -205 -224q-25 -10 -48.5 -10t-45.5 6q-100 27 -101 160zM154 147q0 -33 13 -59.5t42 -26.5q70 0 172 143.5 t268 452.5q-27 27 -75 27t-134 -72q-137 -115 -227 -282q-59 -111 -59 -183z" />
<glyph unicode="&#x112;" horiz-adv-x="1794" d="M47.5 184q-0.5 45 16 111.5t74 153t166 160t232 109.5t222.5 40q-100 37 -173 102.5t-73 140.5q0 127 106 236q190 195 553 256q100 16 170 16q252 0 361 -94q68 -59 67 -125q0 -92 -105 -177t-255 -118q-37 -8 -60.5 -8t-21.5 12q8 25 69.5 32t119.5 50q115 82 131 213 v15q0 51 -50 94q-63 57 -211.5 57t-295 -38t-273.5 -136q-154 -117 -153 -266q0 -59 35.5 -108.5t104 -73t138.5 -39.5q158 -33 158 -86q0 -47 -88 -47l-219 2q-270 0 -422 -131q-178 -152 -178 -353q0 -94 44 -173t157.5 -130t307 -51t408.5 82t363 197q168 131 167 229 q0 47 -49 58.5t-51 25.5q-4 18 31 16t57 -14q92 -49 92 -127q0 -115 -158.5 -240t-400 -198.5t-452.5 -73.5t-342 41q-231 72 -301 264q-18 49 -18.5 94zM1292 1679l27 62h436l-24 -62h-439z" />
<glyph unicode="&#x113;" horiz-adv-x="503" d="M63 190.5q0 92.5 44.5 195.5t120 192.5t173.5 130.5q47 20 90.5 20t79.5 -24q35 -29 35 -64q0 -123 -147 -235q-45 -35 -127 -63t-125 -28q-29 -70 -29 -155q0 -57 25.5 -91t72.5 -34q186 0 338 350q14 33 35 29q12 -6 2 -31q-86 -186 -133 -248q-104 -143 -258 -143 q-82 0 -139.5 53t-57.5 145.5zM221 350q35 0 101.5 24.5t115.5 65.5q113 97 113 203q0 41 -33 41q-57 0 -174 -141q-70 -86 -123 -193zM293 918l26 61h437l-25 -61h-438z" />
<glyph unicode="&#x116;" horiz-adv-x="1794" d="M47.5 186q-0.5 45 16 112t74 153t166 159.5t232 109.5t222.5 40q-100 37 -173 102.5t-73 141.5q0 127 106 235q190 195 553 256q100 16 170 16q252 0 361 -94q68 -59 67 -125q0 -92 -105 -177t-255 -118q-37 -8 -60.5 -8t-21.5 12q8 25 69.5 32t119.5 48q115 84 131 217 v13q0 51 -50 94q-63 57 -211.5 57t-295 -38t-273.5 -134q-154 -119 -153 -268q0 -59 35.5 -108.5t104 -73t138.5 -37.5q158 -35 158 -88q0 -47 -88 -47l-219 2q-270 0 -422 -131q-178 -152 -178 -353q0 -94 44 -173t157.5 -130t307 -51t408.5 82t363 197q168 131 167 229 q0 47 -49 58.5t-51 25.5q-4 18 31 16t57 -14q92 -49 92 -127q0 -115 -158.5 -240t-400 -198.5t-452.5 -73.5t-342 41q-231 72 -301 264q-18 49 -18.5 94zM1468 1626q0 35 32 75t65 40q49 0 49 -62q0 -31 -31 -62.5t-73 -31.5t-42 41z" />
<glyph unicode="&#x117;" horiz-adv-x="503" d="M63 190.5q0 92.5 44.5 195.5t120 192.5t173.5 130.5q47 20 90.5 20t79.5 -24q35 -29 35 -64q0 -123 -147 -235q-45 -35 -127 -63t-125 -28q-29 -70 -29 -155q0 -57 25.5 -91t72.5 -34q186 0 338 350q14 33 35 29q8 -2 8 -10.5t-46 -107.5t-93 -161q-104 -143 -258 -143 q-82 0 -139.5 53t-57.5 145.5zM221 350q35 0 101.5 24.5t115.5 65.5q113 97 113 203q0 41 -33 41q-57 0 -174 -141q-70 -86 -123 -193zM506 934q0 35 31.5 75t64.5 40q49 0 49 -62q0 -31 -30.5 -62.5t-72.5 -31.5t-42 41z" />
<glyph unicode="&#x118;" horiz-adv-x="1794" d="M43 287q0 45 16.5 111.5t73.5 152.5t166 159.5t232.5 109.5t222.5 40q-102 37 -174 102.5t-72 141.5v12q14 166 186 298t360.5 182.5t325.5 50.5q43 0 84 -5q170 -20 244 -84.5t74 -130.5q0 -92 -105.5 -177t-255.5 -117q-37 -8 -60.5 -8.5t-21.5 12.5q8 25 69.5 32 t119.5 48q115 84 131 217v12q0 51 -49 94q-61 57 -207 57t-301.5 -46t-286.5 -152q-156 -127 -156 -277q0 -59 36 -108t104.5 -72.5t138.5 -40.5q158 -33 158 -86q0 -47 -88 -47l-220 2q-270 0 -421 -131q-178 -152 -179 -352q0 -94 44 -173t158 -130.5t307.5 -51.5 t408.5 82t362 197q168 131 168 229q0 47 -49 58.5t-51 25.5q-4 18 31 16.5t57 -14.5q92 -49 92 -127q0 -115 -151.5 -234.5t-368.5 -191t-451 -84.5q-90 -72 -164.5 -169t-75.5 -163.5t58 -66.5q43 0 105 61q14 6 18 3t2 -11q-8 -37 -65.5 -75.5t-114.5 -38.5 q-106 0 -107 86q0 80 96.5 194.5t192.5 177.5h-26q-170 0 -302 41q-231 72 -301 265q-18 49 -18 94z" />
<glyph unicode="&#x119;" horiz-adv-x="503" d="M63 190.5q0 92.5 44.5 195.5t120 192.5t173.5 130.5q47 20 90.5 20t79.5 -24q35 -29 35 -64q0 -123 -147 -235q-45 -35 -127 -63t-125 -28q-29 -70 -29 -155q0 -57 25.5 -91t72.5 -34q186 0 338 350q14 33 35 29q8 -2 8 -10.5t-5 -18.5t-22.5 -48t-23.5 -52.5t-24.5 -48 t-28.5 -51t-29.5 -45t-36.5 -44.5q-51 -51 -81 -67q-84 -70 -150 -160t-67 -154.5t59 -64.5q43 0 104 61q14 6 18.5 3t2.5 -11q-8 -37 -65.5 -76t-114.5 -39q-106 0 -107 86q0 68 67.5 158t153.5 164q-29 -4 -47 -4q-82 0 -139.5 53t-57.5 145.5zM221 350q35 0 101.5 24.5 t115.5 65.5q113 97 113 203q0 41 -33 41q-57 0 -174 -141q-70 -86 -123 -193z" />
<glyph unicode="&#x11a;" horiz-adv-x="1794" d="M41 153.5q0 45.5 16.5 112t73.5 152.5t166 159.5t232.5 109.5t222.5 40q-100 37 -173 102.5t-73 141.5v12q14 166 183 293t351.5 172t315.5 45q233 0 342 -94q68 -59 67 -125q0 -92 -105.5 -177t-254.5 -118q-37 -8 -60.5 -8t-21.5 12q8 25 69.5 32t118.5 50 q115 82 131 213v14q0 51 -49 94q-63 57 -254.5 57.5t-396.5 -100.5q-246 -121 -280 -309q-4 -23 -4.5 -63.5t35.5 -90t104.5 -73t140.5 -37.5q156 -35 156 -88q0 -47 -88 -47l-220 2q-270 0 -421 -131q-178 -152 -179 -352q0 -94 44 -173t158 -130.5t307.5 -51.5t408.5 82 t362 197q168 131 168 229q0 47 -49 58.5t-51 25.5q-4 18 30.5 16.5t57.5 -14.5q92 -49 92 -127q0 -115 -158.5 -239.5t-400.5 -198.5t-452.5 -74t-342.5 41q-231 72 -303 264q-16 49 -16 94.5zM1354 1720q-4 8 4 9.5t17 1.5t16 -11l86 -112q220 100 245 112q12 10 31 10.5 t19 -4t-3 -6.5l-278 -168q-33 -4 -51.5 -4t-18.5 4z" />
<glyph unicode="&#x11b;" horiz-adv-x="503" d="M63 190.5q0 92.5 44.5 195.5t120 192.5t173.5 130.5q47 20 90.5 20t79.5 -24q35 -29 35 -64q0 -123 -147 -235q-45 -35 -127 -63t-125 -28q-29 -70 -29 -155q0 -57 25.5 -91t72.5 -34q186 0 338 350q14 33 35 29q12 -6 2 -31q-86 -186 -133 -248q-104 -143 -258 -143 q-82 0 -139.5 53t-57.5 145.5zM221 350q35 0 101.5 24.5t115.5 65.5q113 97 113 203q0 41 -33 41q-57 0 -174 -141q-70 -86 -123 -193zM432 1107q0 5 18.5 5t24.5 -12l94 -146q244 132 271 146q14 12 34.5 12t20.5 -5t-4 -7l-305 -217q-37 -6 -57.5 -6t-20.5 6l-74 217 q-2 2 -2 7z" />
<glyph unicode="&#x11c;" horiz-adv-x="1486" d="M-82 -655q0 27 14 57q55 123 291 227q178 80 376 109t443 33q152 256 207 503l8 35q-98 -94 -222 -166.5t-216 -101.5q-252 -82 -409 -21q-127 43 -189.5 167t-62.5 284q-1 221 108 461q-119 133 -119 276.5t113 276.5q23 27 33 16q6 -8 -10 -31q-80 -113 -80 -229 q0 -135 94 -252q10 25 39 74q139 240 399 360q199 92 381 93q57 0 111 -9q240 -39 313 -200q27 -57 27 -133t-66 -170q-127 -188 -420 -250q-115 -25 -236.5 -25t-248.5 35t-215 98q-104 -229 -105 -422q0 -287 203 -352q70 -18 142.5 -18t146.5 18q147 39 264 117t148 149 q82 190 176 191q47 0 63 -53q8 -20 4 -46q-20 -160 -87.5 -316.5t-190.5 -358.5q246 -2 448 -54q43 -10 43 -28q0 -23 -59 -8q-141 37 -408 36h-53q-125 -180 -333 -318t-404 -190q-109 -29 -184.5 -28.5t-126.5 18.5q-150 55 -150 146zM23 -670q0 -57 98 -78q33 -8 72 -8 q145 0 368 105q283 129 449 366q-215 -6 -377 -32q-233 -35 -445 -170q-165 -107 -165 -183zM403 911q88 -70 200 -98.5t179.5 -28.5t108.5 4q322 35 491 213q104 109 105 216q0 193 -252 233q-35 6 -74 6q-160 0 -346 -100q-272 -147 -412 -445zM1169 1563l244 174 q31 4 46.5 4t15.5 -4l59 -174q4 -8 -8 -11q-18 -2 -25 11l-76 116q-195 -106 -215 -116q-16 -14 -39 -9q-4 4 -2 9z" />
<glyph unicode="&#x11d;" horiz-adv-x="802" d="M-217 -489q0 131 178 235q152 88 387 166q109 35 158 55q53 156 53 340q0 37 -4 55q-57 -117 -158 -239q-119 -147 -235 -115q-106 45 -107 176q0 176 176 387q96 115 226 146q35 10 69 10q92 0 181 -61q33 -27 32.5 -45.5t-12.5 -36t-25.5 -4t-17.5 25.5q-27 76 -86 76 q-109 0 -244 -152q-76 -86 -131 -184q-68 -123 -67.5 -189.5t41.5 -88.5q14 -6 28 -7q47 0 118 64.5t131.5 164t76.5 155t39.5 69.5t52.5 16t39 11q16 -92 16 -216t-43 -282q94 68 134 121t64 96t42 85t24.5 54.5t20.5 15.5t14 -14q0 -10 -6 -24q-90 -186 -150.5 -269 t-164.5 -133q-49 -139 -142.5 -276t-235 -241.5t-280.5 -104.5q-193 0 -192 158zM-174 -528q0 -78 100 -78q59 0 134 34.5t124 71.5q84 68 185 201q76 106 116 207l-71 -25q-319 -111 -451 -196q-96 -63 -127 -162q-10 -30 -10 -53zM311 789.5q0 5.5 4 7.5l306 217 q39 6 57 6t20 -6l74 -217q2 -2 2 -7.5t-17.5 -5.5t-25.5 13l-94 145q-243 -131 -270 -145q-14 -12 -35 -12.5t-21 5z" />
<glyph unicode="&#x11e;" horiz-adv-x="1486" d="M-82 -655q0 27 14 57q55 123 291 227q178 80 376 109t443 33q152 256 207 503l8 35q-98 -94 -222 -166.5t-216 -101.5q-252 -82 -409 -21q-127 43 -189.5 167t-62.5 284q-1 221 108 461q-119 133 -119 276.5t113 276.5q23 27 33 16q6 -8 -10 -31q-80 -113 -80 -229 q0 -135 94 -252q10 25 39 74q143 246 389 377q190 102 369 102q51 0 100 -8q238 -39 319 -205q31 -66 31 -143.5t-53 -167.5q-113 -193 -391 -260q-121 -29 -249 -29t-255 35t-215 98q-104 -229 -105 -422q0 -287 203 -352q70 -18 142.5 -18t146.5 18q147 39 264 117 t148 149q82 190 176 191q47 0 63 -53q8 -20 4 -46q-20 -160 -87.5 -316.5t-190.5 -358.5q246 -2 448 -54q43 -10 43 -28q0 -23 -59 -8q-141 37 -408 36h-53q-125 -180 -333 -318t-404 -190q-109 -29 -184.5 -28.5t-126.5 18.5q-150 55 -150 146zM23 -670q0 -57 98 -78 q33 -8 72 -8q145 0 368 105q283 129 449 366q-215 -6 -377 -32q-233 -35 -445 -170q-165 -107 -165 -183zM403 911q88 -70 200 -98.5t179 -28.5q391 0 586 222q96 109 96 217q0 31 -8 61q-39 158 -254 193q-30 4 -61 4q-158 0 -338 -111q-260 -162 -400 -459zM1212 1700 q0 41 27 41q10 0 14 -17q12 -33 27 -47q43 -41 109.5 -41t97.5 19.5t65 66.5q16 20 27.5 13.5t9.5 -15.5q-67 -141 -229 -141q-49 0 -94 23q-53 27 -54 98z" />
<glyph unicode="&#x11f;" horiz-adv-x="802" d="M-217 -489q0 131 178 235q152 88 387 166q109 35 158 55q53 156 53 340q0 37 -4 55q-57 -117 -158 -239q-119 -147 -235 -115q-106 45 -107 176q0 176 176 387q96 115 226 146q35 10 69 10q92 0 181 -61q33 -27 32.5 -45.5t-12.5 -36t-25.5 -4t-17.5 25.5q-27 76 -86 76 q-109 0 -244 -152q-76 -86 -131 -184q-68 -123 -67.5 -189.5t41.5 -88.5q14 -6 28 -7q47 0 118 64.5t131.5 164t76.5 155t39.5 69.5t52.5 16t39 11q16 -92 16 -216t-43 -282q94 68 134 121t64 96t42 85t24.5 54.5t20.5 15.5t14 -14q0 -10 -6 -24q-90 -186 -150.5 -269 t-164.5 -133q-49 -139 -142.5 -276t-235 -241.5t-280.5 -104.5q-193 0 -192 158zM-174 -528q0 -78 100 -78q59 0 134 34.5t124 71.5q84 68 185 201q76 106 116 207l-71 -25q-319 -111 -451 -196q-96 -63 -127 -162q-10 -30 -10 -53zM418 1071q0 51 35 51q8 0 14 -13 t15.5 -33.5t21.5 -33.5q53 -51 124.5 -51t109.5 16.5t56.5 34t49.5 58.5q20 27 41 12q4 -4 4 -10q0 -61 -111 -133q-76 -47 -155.5 -47t-135.5 28q-70 35 -69 121z" />
<glyph unicode="&#x120;" horiz-adv-x="1486" d="M-82 -655q0 27 14 57q55 123 291 227q178 80 376 109t443 33q152 256 207 503l8 35q-98 -94 -222 -166.5t-216 -101.5q-252 -82 -409 -21q-127 43 -189.5 167t-62.5 284q-1 221 108 461q-119 133 -119 276.5t113 276.5q23 27 33 16q6 -8 -10 -31q-80 -113 -80 -229 q0 -135 94 -252q10 25 39 74q143 246 389 377q190 102 369 102q51 0 100 -8q238 -39 319 -205q31 -66 31 -143.5t-53 -167.5q-113 -193 -391 -260q-121 -29 -249 -29t-255 35t-215 98q-104 -229 -105 -422q0 -287 203 -352q70 -18 142.5 -18t146.5 18q147 39 264 117 t148 149q82 190 176 191q47 0 63 -53q8 -20 4 -46q-20 -160 -87.5 -316.5t-190.5 -358.5q246 -2 448 -54q43 -10 43 -28q0 -23 -59 -8q-141 37 -408 36h-53q-125 -180 -333 -318t-404 -190q-109 -29 -184.5 -28.5t-126.5 18.5q-150 55 -150 146zM23 -670q0 -57 98 -78 q33 -8 72 -8q145 0 368 105q283 129 449 366q-215 -6 -377 -32q-233 -35 -445 -170q-165 -107 -165 -183zM403 911q88 -70 200 -98.5t179 -28.5q391 0 586 222q96 109 96 217q0 31 -8 61q-39 158 -254 193q-30 4 -61 4q-158 0 -338 -111q-260 -162 -400 -459zM1247 1649 q0 27 25.5 59.5t52.5 32.5q39 0 39 -51q0 -25 -24.5 -49.5t-58.5 -24.5t-34 33z" />
<glyph unicode="&#x121;" horiz-adv-x="802" d="M-217 -489q0 131 178 235q152 88 387 166q109 35 158 55q53 156 53 340q0 37 -4 55q-57 -117 -158 -239q-119 -147 -235 -115q-106 45 -107 176q0 176 176 387q96 115 226 146q35 10 69 10q92 0 181 -61q33 -27 32.5 -45.5t-12.5 -36t-25.5 -4t-17.5 25.5q-27 76 -86 76 q-109 0 -244 -152q-76 -86 -131 -184q-68 -123 -67.5 -189.5t41.5 -88.5q14 -6 28 -7q47 0 118 64.5t131.5 164t76.5 155t39.5 69.5t52.5 16t39 11q16 -92 16 -216t-43 -282q94 68 134 121t64 96t42 85t24.5 54.5t20.5 15.5t14 -14q0 -10 -6 -24q-90 -186 -150.5 -269 t-164.5 -133q-49 -139 -142.5 -276t-235 -241.5t-280.5 -104.5q-193 0 -192 158zM-174 -528q0 -78 100 -78q59 0 134 34.5t124 71.5q84 68 185 201q76 106 116 207l-71 -25q-319 -111 -451 -196q-96 -63 -127 -162q-10 -30 -10 -53zM582 958q0 35 31.5 75t64.5 40 q49 0 49 -61q0 -31 -30.5 -62.5t-72.5 -31.5t-42 40z" />
<glyph unicode="&#x122;" horiz-adv-x="1144" d="M-82 -502q0 27 14 58q55 123 291 227q178 80 376 108.5t443 32.5q152 256 207 504l8 35q-98 -94 -222 -167t-216 -103q-147 -45 -242.5 -45.5t-166.5 26.5q-127 43 -189.5 167t-62.5 284q-1 220 108 460q-119 133 -119 276.5t113 276.5q23 27 33 17q6 -8 -10 -31 q-80 -113 -80 -229q0 -135 94 -252q10 25 39 74q143 246 389 376q190 102 369 103q51 0 100 -8q238 -39 319 -205q31 -66 31 -143.5t-53 -168.5q-113 -193 -391 -260q-121 -29 -249 -28.5t-255 35t-215 98.5q-104 -229 -105 -422q0 -287 203 -352q70 -20 142.5 -20.5 t146.5 20.5q147 39 264 116.5t148 149.5q82 190 176 190q47 0 63 -53q8 -20 4 -45q-20 -160 -87.5 -316.5t-190.5 -359.5q246 -2 448 -53q43 -10 43 -29q0 -23 -59 -8q-141 37 -408 37h-53q-125 -180 -333 -318.5t-404 -191.5q-109 -27 -184.5 -27t-126.5 19 q-150 55 -150 145zM23 -516q0 -57 98 -78q33 -8 72 -8q145 0 368 102q283 131 449 369q-215 -6 -377 -33q-233 -35 -445 -170q-165 -106 -165 -182zM403 1065q88 -70 200 -98.5t179 -28.5q391 0 586 221q96 109 96 217q0 31 -8 62q-39 158 -254 192q-30 4 -61 4 q-158 0 -338 -110q-260 -162 -400 -459zM623 -805q-2 10 12 14q100 31 113 127q-23 -14 -45.5 -14t-37 17.5t-11.5 43t24.5 43t46.5 17.5q66 0 66 -67.5t-48.5 -115.5t-105.5 -67q-4 -2 -8 -2t-6 4z" />
<glyph unicode="&#x123;" horiz-adv-x="802" d="M-217 -489q0 131 178 235q152 88 387 166q109 35 158 55q53 156 53 340q0 37 -4 55q-57 -117 -158 -239q-119 -147 -235 -115q-106 45 -107 176q0 176 176 387q96 115 226 146q35 10 69 10q92 0 181 -61q33 -27 32.5 -45.5t-12.5 -36t-25.5 -4t-17.5 25.5q-27 76 -86 76 q-109 0 -244 -152q-76 -86 -131 -184q-68 -123 -67.5 -189.5t41.5 -88.5q14 -6 28 -7q47 0 118 64.5t131.5 164t76.5 155t39.5 69.5t52.5 16t39 11q16 -92 16 -216t-43 -282q94 68 134 121t64 96t42 85t24.5 54.5t20.5 15.5t14 -14q0 -10 -6 -24q-90 -186 -150.5 -269 t-164.5 -133q-49 -139 -142.5 -276t-235 -241.5t-280.5 -104.5q-193 0 -192 158zM-174 -528q0 -78 100 -78q59 0 134 34.5t124 71.5q84 68 185 201q76 106 116 207l-71 -25q-319 -111 -451 -196q-96 -63 -127 -162q-10 -30 -10 -53zM539 971q0 82 60 141t132 84q6 2 12.5 2 t6.5 -8q0 -10 -17 -14q-127 -43 -139 -160q27 18 55.5 18t46 -22.5t13.5 -54t-31 -53t-61.5 -21.5t-56 25.5t-21.5 62.5z" />
<glyph unicode="&#x124;" horiz-adv-x="2828" d="M8 379q25 94 110 176t140 84q20 0 24.5 -5t-3 -12.5t-17.5 -11.5q-61 -27 -127 -116q-86 -119 -86 -277q0 -246 238 -367q143 -72 336 -71q84 0 157 16q694 156 977 899q-53 0 -103 -23.5t-65.5 -23.5t-17.5 12q0 35 49 67t86 36h80q131 328 299 663q-53 -6 -151.5 -14 t-160 -14t-151.5 -20.5t-149.5 -34t-132 -54.5t-121.5 -80q-117 -111 -166 -270q-20 -66 -20.5 -139.5t53 -143t141.5 -69.5q174 0 248 200q35 94 34.5 132t-13.5 57.5t7 23.5q14 2 25 -16q25 -53 24.5 -114.5t-41.5 -133.5q-70 -127 -188 -170q-57 -20 -114.5 -20 t-114.5 24q-109 47 -160 160q-33 68 -33 129.5t19.5 140t77 160.5t143.5 132t172 83t203.5 49.5t204.5 24.5t210 14t183 13q23 39 68.5 95t78.5 65.5t51 9.5q76 0 76 -64.5t-84 -107.5t-158 -43q-55 -106 -156.5 -380t-107.5 -288q154 0 396.5 -17.5t297.5 -17.5 q41 119 140.5 340t175.5 335t142.5 137.5t90 23.5t23.5 -7q0 -6 -26.5 -19t-91 -107.5t-163 -289t-172.5 -411.5q125 0 159 12.5t41 4t-20 -26.5q-68 -47 -198 -55q-2 -4 -33 -99q-102 -317 -102 -444q0 -72 25.5 -100.5t54 -28.5t63.5 24q117 86 256 371q16 35 31.5 29 t-0.5 -43q-76 -162 -126 -238t-114 -139q-84 -80 -168 -80q-94 0 -131 78q-18 37 -18 67.5t1 64.5t7 88t29.5 135t37 123t40 113.5t28.5 78.5q-88 0 -694 26q-125 -373 -394 -667q-131 -145 -305 -244q-233 -129 -491 -129q-109 0 -242 31.5t-252 120.5t-169 241t-3 336z M2183 1481q133 20 131 71q-2 23 -22 27q-2 2 -6 2q-25 0 -103 -100zM2521 1569l236 168q28 4 44.5 4t16.5 -4l55 -168q4 -10 -10 -10q-14 2 -20 10l-74 112q-186 -100 -207 -112q-18 -16 -32.5 -10t-8.5 10z" />
<glyph unicode="&#x125;" horiz-adv-x="679" d="M-82 -14q389 809 563 1128q39 72 69 100.5t71 28.5q10 0 42.5 -5t49.5 -3q-61 -63 -220 -351t-305 -585q96 121 173 188.5t187.5 128t162.5 60.5q12 0 22 -4q-252 -443 -252 -580q0 -57 41 -57q96 0 273 360q14 29 28.5 20t-0.5 -40q-137 -283 -229 -346 q-49 -37 -110.5 -37t-102.5 57q-18 27 -18.5 73t20 111.5t113.5 212.5q23 37 22.5 58.5t-35 21.5t-133.5 -92q-147 -135 -287 -405q-14 -31 -75 -31q-55 -4 -70 -12zM440 1363q0 5 4 7l306 217q37 6 57 6t20 -6l74 -217q2 -2 2 -7t-18.5 -5t-24.5 12l-94 146 q-243 -132 -270 -146q-14 -12 -35 -12t-21 5z" />
<glyph unicode="&#x126;" horiz-adv-x="2828" d="M8 379q25 94 110 176t140 84q20 0 24.5 -5t-3 -12.5t-17.5 -11.5q-61 -27 -127 -116q-86 -119 -86 -277q0 -246 238 -367q143 -72 336 -71q84 0 157 16q694 156 977 899q-53 0 -103 -23.5t-65.5 -23.5t-17.5 12q0 35 49 67t86 36h80q70 174 135 319h-405l20 82h424 q86 186 125 262q-53 -6 -151.5 -14t-160 -14t-151.5 -20.5t-149.5 -34t-132 -54.5t-121.5 -80q-117 -111 -166 -270q-20 -66 -20.5 -139.5t53 -143t141.5 -69.5q174 0 248 200q35 94 34.5 132t-13.5 57.5t7 23.5q14 2 25 -16q25 -53 24.5 -114.5t-41.5 -133.5 q-70 -127 -188 -170q-57 -20 -114.5 -20t-114.5 24q-109 47 -160 160q-33 68 -33 129.5t19.5 140t77 160.5t143.5 132t172 83t203.5 49.5t204.5 24.5t210 14t183 13q23 39 68.5 95t78.5 65.5t51 9.5q76 0 76 -64.5t-84 -107.5t-158 -43q-47 -92 -114 -267h729 q160 336 262 371q78 29 97.5 29t26.5 -3.5t-7.5 -11.5t-20.5 -12q-25 -12 -94.5 -115.5t-147.5 -257.5h328l-18 -82h-348q-82 -176 -144 -352q125 0 159 12.5t41 4t-20 -26.5q-68 -47 -198 -55q-2 -4 -33 -99q-102 -317 -102 -444q0 -72 25.5 -100.5t54 -28.5t63.5 24 q117 86 256 371q16 35 31.5 29t-0.5 -43q-76 -162 -126 -238t-114 -139q-84 -80 -168 -80q-94 0 -131 78q-18 37 -18 67.5t1 64.5t7 88t29.5 135t37 123t40 113.5t28.5 78.5q-88 0 -694 26q-125 -373 -394 -667q-131 -145 -305 -244q-233 -129 -491 -129q-109 0 -242 31.5 t-252 120.5t-169 241t-3 336zM1882 762q154 0 396.5 -17.5t297.5 -17.5q41 121 146 354h-721zM2183 1481q133 20 131 71q-2 23 -22 27q-2 2 -6 2q-25 0 -103 -100z" />
<glyph unicode="&#x127;" horiz-adv-x="679" d="M-82 -14q338 705 494 999h-158l27 41h151l49 88q39 72 69 100.5t71 28.5q10 0 42.5 -5t49.5 -3q-39 -39 -140 -209h138l-25 -41h-137q-170 -297 -361 -686q96 121 173 188.5t187.5 128t162.5 60.5q12 0 22 -4q-252 -442 -252 -580q0 -57 41 -57q96 0 273 360q14 29 25 23 t11 -16.5t-23.5 -58.5t-47 -92t-68.5 -116q-94 -143 -200 -143q-70 0 -111 57q-18 27 -18.5 73t20.5 111.5t113 212.5q23 37 22.5 58.5t-35 21.5t-133.5 -92q-147 -135 -287 -405q-14 -31 -75 -31q-55 -4 -70 -12z" />
<glyph unicode="&#x128;" horiz-adv-x="1902" d="M-39 -33q0 80 42 189.5t136 194.5t150 89q20 0 24 -6q6 -8 -22 -22q-63 -27 -141 -121q-121 -143 -121 -324q0 -137 88 -235q111 -123 313 -168q90 -20 137 -20.5t97.5 0.5t132.5 22q170 43 325.5 139t266 208t204.5 247q160 231 242 454q143 379 307 662 q-326 -68 -518 -150q-197 -86 -305 -192q-135 -137 -174 -309q-12 -49 -12 -90q0 -86 47 -139.5t101 -53.5t116.5 24.5t109.5 82.5q66 84 66 198q0 57 -17 72q-4 6 5 18q20 31 38 0q27 -51 27 -111.5t-39 -131.5q-70 -131 -201 -181q-66 -25 -140.5 -24.5t-160.5 68 t-86 188.5q0 37 9 80q117 526 1167 704q18 39 66.5 96.5t82 68.5t56.5 11q68 0 69 -57q0 -61 -49 -94q-45 -29 -108 -49l-86 -19q-139 -258 -252 -659q-39 -139 -119 -310.5t-190 -314.5q-408 -522 -1043 -522q-295 0 -469 127q-119 88 -158 229q-14 51 -14 131zM2118 1597 q72 127 159 127q43 0 115 -28q78 -33 123 -33t78 59q2 6 10 6.5t20 -4.5l5 -4q-66 -137 -160 -137q-41 0 -113 31q-78 35 -123 35t-73 -56q-4 -12 -33 -2q-6 4 -8 6zM2241 1337q139 29 133 78q-4 25 -27.5 24.5t-105.5 -102.5z" />
<glyph unicode="&#x129;" horiz-adv-x="356" d="M20 150.5q0 60.5 31 115.5l178 340q39 76 51.5 87.5t59.5 11.5h104q-4 -4 -20 -17q-37 -25 -55 -57q-158 -256 -213 -398q-37 -80 -37 -131q0 -57 65 -57l80 39q82 80 193 309q16 31 28.5 19.5t-9 -55.5t-34 -68.5t-50.5 -92t-67.5 -101.5t-74.5 -64.5t-102.5 -30.5 t-92.5 45t-35 105.5zM190 838q72 127 160 127q43 0 115 -29q78 -33 123 -33t78 60q2 6 10 6t20 -4l4 -4q-65 -138 -159 -138q-41 0 -113 31q-78 35 -123 35t-74 -55q-4 -12 -32 -3q-6 4 -9 7z" />
<glyph unicode="&#x12a;" horiz-adv-x="1902" d="M-39 -33q0 80 42 189.5t136 194.5t150 89q20 0 24 -6q6 -8 -22 -22q-63 -27 -141 -121q-121 -143 -121 -324q0 -137 88 -235q111 -123 313 -168q90 -20 137 -20.5t97.5 0.5t132.5 22q170 43 325.5 139t266 208t204.5 247q160 231 242 454q143 379 307 662 q-326 -68 -518 -150q-197 -86 -305 -192q-135 -137 -174 -309q-12 -49 -12 -90q0 -86 47 -139.5t101 -53.5t116.5 24.5t109.5 82.5q66 84 66 198q0 57 -17 72q-4 6 5 18q20 31 38 0q27 -51 27 -111.5t-39 -131.5q-70 -131 -201 -181q-66 -25 -140.5 -24.5t-160.5 68 t-86 188.5q0 37 9 80q117 526 1167 704q18 39 66.5 96.5t82 68.5t56.5 11q68 0 69 -57q0 -61 -49 -94q-45 -29 -108 -49l-86 -19q-139 -258 -252 -659q-39 -139 -119 -310.5t-190 -314.5q-408 -522 -1043 -522q-295 0 -469 127q-119 88 -158 229q-14 51 -14 131zM2128 1630 l26 62h437l-25 -62h-438zM2241 1337q139 29 133 78q-4 25 -27.5 24.5t-105.5 -102.5z" />
<glyph unicode="&#x12b;" horiz-adv-x="356" d="M20 150.5q0 60.5 31 115.5l178 340q39 76 51.5 87.5t59.5 11.5h104q-4 -4 -20 -17q-37 -25 -55 -57q-158 -256 -213 -398q-37 -80 -37 -131q0 -57 65 -57l80 39q82 80 193 309q16 31 28.5 19.5t-9 -55.5t-34 -68.5t-50.5 -92t-67.5 -101.5t-74.5 -64.5t-102.5 -30.5 t-92.5 45t-35 105.5zM221 860l25 55h403l-22 -55h-406z" />
<glyph unicode="&#x12e;" horiz-adv-x="1902" d="M10 63q0 106 47 234q37 94 131.5 179t149.5 89q20 0 24 -4q6 -10 -22 -24q-63 -27 -141 -119q-121 -145 -121 -326q0 -137 88 -235q111 -123 313 -168q90 -20 137.5 -20.5t97.5 0.5t132 22q170 43 325.5 139t266 208t204.5 249q160 229 242 452q86 229 136.5 321.5 t62.5 114t34.5 59.5t24.5 42q-326 -68 -518 -150q-197 -86 -305 -192q-135 -137 -174 -309q-12 -49 -12 -90q0 -86 47 -139.5t101 -53.5t116.5 24.5t109.5 82.5q66 84 66 198q0 57 -17 72q-4 6 5 18q20 31 38 0q27 -51 27 -111.5t-39 -131.5q-70 -131 -201 -181 q-66 -25 -140.5 -24.5t-160.5 68t-86 188.5q0 37 9 80q117 526 1167 704q18 39 66.5 96.5t82 68.5t56.5 11q68 0 69 -57q0 -61 -49 -94q-45 -29 -108 -49l-86 -19q-98 -182 -199 -516q-129 -418 -399 -733q-137 -160 -322 -268q-258 -152 -598 -162q-80 -74 -139.5 -158 t-60.5 -146.5t59 -62.5q43 0 104 62q14 6 18.5 3t2.5 -12q-6 -35 -64.5 -73.5t-115.5 -38.5q-106 0 -107 84q0 72 77 170t169 172q-348 4 -520 190q-100 111 -101 266zM2241 1337q139 29 133 78q-4 25 -27.5 24.5t-105.5 -102.5z" />
<glyph unicode="&#x12f;" horiz-adv-x="356" d="M-115 -358q0 78 89 185t182 173q-61 6 -89 50t-28 93q0 59 27 123l131 334q4 12 4 32.5t-25 53.5l113 2q47 0 55 -17.5t-12 -54.5l-164 -383q-35 -76 -35 -129q1 -59 64 -59q39 0 82 39q76 76 192 309q14 31 29 19q4 -4 4 -13.5t-16.5 -45.5t-26.5 -56.5t-45 -82.5 t-59.5 -94t-64.5 -68t-77 -46q-86 -74 -155.5 -166t-70.5 -157.5t58 -65.5q43 0 105 61q14 6 18 3t2 -11q-8 -37 -65.5 -75.5t-114.5 -38.5q-106 0 -107 86zM262 833.5q0 16.5 3 37t32 45t63.5 24.5t54 -21.5t19.5 -38t-4 -38t-32.5 -46t-63.5 -24.5t-53.5 22.5t-18.5 39z " />
<glyph unicode="&#x130;" horiz-adv-x="1902" d="M-39 -31q0 80 42 189.5t136 194.5t150 89q20 0 24 -4q6 -10 -22 -24q-63 -27 -141 -119q-121 -145 -121 -326q0 -137 88 -235q111 -123 313 -168q90 -20 137 -20.5t97.5 0.5t132.5 22q170 43 325.5 139t266 208t204.5 249q160 229 242 452q143 379 307 662 q-326 -68 -518 -152q-197 -84 -305 -192q-135 -135 -174 -307q-12 -49 -12 -90q0 -86 47 -139.5t101 -53.5t116.5 24.5t109.5 82.5q66 84 66 198q0 57 -17 72q-4 6 5 18q20 31 38 0q27 -51 27 -111.5t-39 -131.5q-70 -131 -201 -181q-66 -25 -140.5 -24.5t-160.5 68 t-86 188.5q0 37 9 80q117 526 1167 704q18 39 66.5 96.5t82 68.5t56.5 11q68 0 69 -57q0 -61 -49 -94q-45 -29 -108 -49l-86 -19q-139 -258 -252 -659q-39 -139 -119 -310.5t-190 -314.5q-408 -522 -1043 -522q-295 0 -469 129q-119 86 -158 229q-14 49 -14 129zM2175 1626 q0 35 31.5 75t64.5 40q49 0 49 -62q0 -31 -30.5 -62.5t-72.5 -31.5t-42 41zM2241 1339q139 29 133 78q-4 25 -27.5 24.5t-105.5 -102.5z" />
<glyph unicode="&#x131;" horiz-adv-x="356" d="M20 150.5q0 60.5 31 115.5l178 340q39 76 51.5 87.5t59.5 11.5h104q-4 -4 -20 -17q-37 -25 -55 -57q-158 -256 -213 -398q-37 -80 -37 -131q0 -57 65 -57l80 39q82 80 193 309q16 31 28 19q6 -4 6.5 -13.5t-18 -47.5t-31 -62.5t-50.5 -92t-67.5 -101.5t-74.5 -64.5 t-102.5 -30.5t-92.5 45t-35 105.5z" />
<glyph unicode="&#x134;" horiz-adv-x="2043" d="M-111 -348q0 104 56 246q39 94 137 176t154 84q25 2 24 -8q-2 -8 -27 -21q-66 -27 -145.5 -117t-105 -181t-25.5 -140q0 -150 80 -240q55 -63 137 -112.5t176 -67.5q139 -27 221 -27t146 17q387 86 692 444q217 254 410 672q47 100 82 180q203 455 376 731 q-285 -47 -579 -205q-150 -80 -256 -202q-137 -156 -137 -334q0 -96 46 -149.5t97 -53.5t112.5 22.5t110.5 79.5q78 88 78 205q0 49 -14 66q-25 16 -4 31q23 12 47 -15q20 -45 20 -105.5t-45 -138.5q-76 -129 -209 -176q-61 -20 -117 -20q-92 0 -165 59q-94 78 -95 209 q0 166 119 320q90 115 212 190.5t276 134.5q248 96 538 135q25 41 74 96.5t82 64.5t53 9q72 0 72 -59q-2 -55 -45 -84.5t-121 -54.5l-88 -17q-158 -272 -303 -733q-55 -174 -155.5 -400t-205 -389t-223.5 -266.5t-246 -164.5q-336 -162 -665 -162q-170 0 -312 47 q-221 74 -303 244q-37 76 -37 180zM2253 1510.5q0 5.5 4 7.5l305 217q39 6 57.5 6t20.5 -6l74 -217q2 -2 2 -7.5t-18.5 -5.5t-24.5 13l-95 145q-243 -131 -270 -145q-14 -12 -34.5 -12.5t-20.5 5zM2376 1348q141 24 139 75q-4 31 -33 23q-6 -2 -15 -9t-17.5 -13.5 t-19.5 -18.5t-18.5 -19.5t-19.5 -20.5t-16 -17z" />
<glyph unicode="&#x135;" horiz-adv-x="362" d="M-809 -518q0 53 31 121q53 104 192 168q104 49 276.5 91t221.5 56q51 88 60.5 107.5t148.5 306.5q-33 0 -19 33l109 235q6 12 6 32.5t-27 53.5l113 2q47 0 55.5 -17.5t-12.5 -54.5l-164 -383q-51 -121 -127 -270q80 31 117 47.5t89 59.5t90 99t128 226q14 29 28.5 21 t0.5 -39q-59 -123 -94 -182.5t-90.5 -121t-123 -98t-180.5 -77.5q-158 -287 -319 -422q-61 -51 -145 -87t-175.5 -36t-140.5 38t-49 91zM-762 -526q0 -37 28.5 -58.5t69.5 -21.5q119 0 256 123q193 172 281 336q-340 -90 -424 -127q-133 -57 -188 -170q-23 -45 -23 -82z M61 789.5q0 5.5 5 7.5l305 217q39 6 57 6t21 -6l73 -217q2 -2 2 -7.5t-17.5 -5.5t-25.5 13l-94 145q-243 -131 -270 -145q-14 -12 -35 -12.5t-21 5z" />
<glyph unicode="&#x136;" horiz-adv-x="2443" d="M-12.5 212q0.5 85 24 175t102.5 160.5t130 77.5q27 4 26 -13q0 -10 -12 -16q-49 -23 -119 -107q-90 -111 -90 -274q0 -168 103 -272q125 -131 294 -164q117 -23 193 -23t133 17q168 39 314.5 121.5t246 176t190.5 223.5t143 228.5t185.5 399.5t233.5 503q-31 -4 -176 -16 q-268 -23 -418 -66q-281 -78 -399 -299q-57 -106 -58 -206q0 -53 17 -105q45 -137 178 -137q168 0 235 174q33 84 33 139.5t-4 78t6 22.5q16 -4 29 -27q18 -43 18 -101.5t-39 -133.5q-61 -129 -172 -170q-68 -25 -127 -25q-102 0 -184 74q-111 98 -111 256q0 223 209 374 q193 143 557 183q111 12 253.5 21t181.5 14q22 38 68 94.5t80 66t65.5 9.5t48 -27t16.5 -53.5t-39 -61.5q-66 -59 -207 -73q-117 -211 -268 -678q-55 -170 -148.5 -361.5t-200 -335t-281.5 -253t-396 -142.5q-72 -10 -159 -10t-189 22q-375 86 -484 369q-33 86 -32.5 171z M1473 -655q0 10 16 14q127 43 139 160q-27 -18 -55.5 -18.5t-46 22t-13 54.5t31 53.5t61 21.5t56 -25.5t21.5 -62.5q0 -82 -60 -141.5t-132 -84.5q-6 -2 -12 -2t-6 9zM1819 519q0 48 16 54h6q61 0 227 84t378 226.5t442.5 364.5t380.5 450q27 39 45 39q6 0 13 -6.5t7 -20.5 t-14 -39q-233 -387 -657.5 -728t-708.5 -413q-4 -6 -4 -25.5t4 -64.5t40 -173t83 -236q139 -319 366 -320q131 0 251 55.5t173 159.5q12 29 30.5 29t-3.5 -45q-55 -113 -193.5 -200t-284 -87t-274.5 107q-225 184 -303 581q-12 70 -16 115t-4 93zM2183 1481q59 8 90 24 q56 27 56 60q0 23 -19 22q-23 0 -46 -19.5t-81 -86.5z" />
<glyph unicode="&#x137;" horiz-adv-x="706" d="M-53 92q0 6 4 14q72 94 286 512t300 547q70 100 135 101h2h10q2 0 36 -6.5t50 -2.5q-76 -57 -209 -263t-211 -360.5t-104 -234.5q186 231 334 287q70 23 110 23q90 0 90 -76q0 -25 -10 -55q-29 -78 -118 -140.5t-195 -72.5q-25 -57 -25 -105.5t10 -87.5q25 -98 93 -121 q14 -4 28 -4q57 0 135 72q63 70 166 280q14 27 22.5 18t8.5 -17.5t-30.5 -80t-86.5 -157.5q-117 -176 -258 -176q-86 0 -133 49q-68 70 -68 182q0 57 31 116.5t72 63.5h12q72 0 140.5 55.5t68.5 100.5q0 55 -55 55q-82 0 -189.5 -93t-179.5 -196q-31 -59 -50 -149t-19 -125 t12 -45h-129q-31 0 -15.5 54.5t42 118t66.5 146t58 125.5q-168 -317 -217 -364q-20 -18 -20 12zM57 -444q0 10 17 14q127 43 139 160q-27 -18 -55.5 -18.5t-46 22t-13.5 54.5t31 53.5t61.5 21.5t56 -25.5t21.5 -62.5q0 -82 -60.5 -141.5t-131.5 -84.5q-6 -2 -12.5 -2t-6.5 9 z" />
<glyph unicode="&#x138;" horiz-adv-x="706" d="M-76 -14q262 563 300 641t69 106.5t74 28.5h6l49 -8l-19 -37q-42 -80 -167 -330q258 324 456 324q57 0 78 -37q6 -18 6 -41t-20.5 -47.5t-42 -24.5t-33.5 2q-4 37 -57 43q-90 12 -217 -84q-43 -121 -43.5 -215t34.5 -166q45 -92 125 -92q70 0 135.5 69.5t167.5 280.5 q14 27 22.5 18t8.5 -17.5t-30.5 -80t-88.5 -157.5q-115 -176 -256 -176q-90 0 -151.5 51t-74.5 127t-13 121t8 77q-59 -78 -79.5 -116.5t-100.5 -216.5q-12 -27 -31 -29t-59.5 -4t-55.5 -10z" />
<glyph unicode="&#x139;" horiz-adv-x="1527" d="M4 -129q0 117 154 205q174 102 471 102q106 0 192 -16q39 51 127 233h-22q-129 0 -240 43t-176 115q-86 98 -86 219q0 63 31.5 137t141.5 150t277 115q27 6 45.5 6t22.5 -10.5t-16.5 -18.5t-46.5 -12q-88 -10 -162 -58q-133 -86 -185 -260q-12 -41 -12 -78.5t14.5 -91 t61.5 -110t128 -79t141.5 -22.5t111.5 6l172 424q188 467 430 570q61 27 121.5 26.5t114 -45.5t59.5 -106q2 -24 2 -51q0 -121 -62.5 -262.5t-181.5 -265.5t-277.5 -215t-320.5 -118q-57 -117 -135 -260q406 -100 672 -305q135 -104 182 -256q25 -78 25 -133t-21.5 -93 t-50.5 -52.5t-41 -14.5t-12 10.5t23.5 60.5t23.5 117.5t-29 149.5t-106.5 150.5t-216 129t-239.5 86t-271 58.5q-174 -244 -363 -334q-113 -55 -200 -55t-154 35q-117 57 -117 174zM47 -158q0 -53 58.5 -87t127.5 -34q96 0 209 54q171 81 316 288q-100 23 -207 23t-219 -31 q-236 -61 -277 -174q-8 -20 -8 -39zM1063 459q184 41 351 162.5t271.5 297t104.5 353.5q-2 72 -72 71q-102 0 -252 -182q-113 -137 -227 -358q-92 -170 -176 -344zM1696 1513.5q0 6.5 4 12.5t58 46t115.5 83t90.5 63.5t56.5 20.5t43.5 -8q25 -10 25 -25.5t-6 -28.5 q-10 -23 -181 -99.5t-194 -76.5q-2 0 -7 3t-5 9.5z" />
<glyph unicode="&#x13a;" horiz-adv-x="434" d="M70 139.5q0 24.5 2 63.5q6 66 25.5 127t21.5 69q47 170 134 371t147.5 302.5t95 138t66.5 53t61 18.5q57 6 73 -65q2 -12 2 -31q0 -70 -49 -176q-176 -391 -420 -615q-2 -8 -18 -56t-27.5 -92t-11.5 -88t20.5 -82t65.5 -38q74 0 143.5 99.5t147.5 252.5q16 29 31 23 q10 -8 4 -21.5t-25.5 -57.5t-29 -61.5t-33 -61.5t-41 -65.5t-47 -55.5t-56.5 -50q-72 -45 -135 -45t-98 27.5t-42 59.5t-7 56.5zM246 461q104 106 206.5 268t150.5 275.5t48 154.5t-14 41q-20 0 -77.5 -81t-155 -291t-158.5 -367zM614 1445q0 7 4.5 13t58.5 47t117.5 85 t92 65.5t56.5 21.5t49.5 -10t21.5 -25.5t-6 -27.5q-10 -25 -184 -103.5t-197 -78.5q-2 0 -7.5 3t-5.5 10z" />
<glyph unicode="&#x13b;" horiz-adv-x="1527" d="M-12.5 -31q0.5 117 153.5 205q174 102 471 102q106 0 193 -16q92 143 215 395h-23q-129 0 -239.5 43t-175.5 117q-86 96 -86 217q0 63 31.5 137t141 150t277.5 115q27 6 45.5 6t22.5 -10.5t-16.5 -18.5t-47.5 -12q-88 -10 -164 -60q-131 -84 -182 -258q-12 -41 -12 -78.5 t14.5 -91t61.5 -110t128 -79t141 -22.5t112 7l174 421q193 481 440 586q59 27 120.5 27t116 -45t60.5 -109q2 -26 2 -51q0 -174 -115.5 -364.5t-319.5 -331t-421 -176.5q-125 -252 -180 -353l-43 -69q406 -100 671 -305q135 -104 183 -256q25 -78 24.5 -133.5t-22 -93.5 t-50 -52t-41 -14t-12.5 10t23.5 60t23.5 118t-28.5 149.5t-106.5 150.5t-216 129.5t-239.5 86t-271.5 58.5q-174 -244 -362 -334q-113 -55 -200 -55.5t-155 34.5q-117 57 -116.5 174zM31 -59q0 -53 58 -87t128 -34q96 0 209 53q170 82 315 289q-100 23 -206.5 22.5 t-219.5 -30.5q-236 -61 -276 -174q-8 -20 -8 -39zM623 -504q0 10 16 15q127 43 139 159q-27 -18 -55.5 -18t-46 22.5t-13 54t31 53t61.5 21.5t56.5 -25.5t21.5 -62.5q0 -82 -60.5 -141t-132.5 -84q-6 -2 -12 -2t-6 8zM1135 719q287 63 514 305t227 514q0 78 -72 78 q-104 0 -254 -182q-117 -145 -235 -375q-96 -166 -180 -340z" />
<glyph unicode="&#x13c;" horiz-adv-x="434" d="M35 -414q0 10 16 15q127 43 139 159q-27 -18 -55.5 -18t-45.5 22.5t-13 54t30.5 53.5t61.5 22t56.5 -26t21.5 -63q0 -82 -60.5 -141t-132.5 -84q-6 -2 -12 -2t-6 8zM70 139.5q0 24.5 2 63.5q6 66 25.5 127t21.5 69q47 170 134 371t147.5 302.5t95.5 137.5q70 74 137 74 q47 0 63 -67q2 -12 2 -31q0 -70 -49 -176q-176 -391 -420 -615q-2 -8 -18 -56t-27.5 -92t-11.5 -88t20.5 -82t65.5 -38q74 0 143.5 99.5t147.5 252.5q16 29 31 23q10 -8 4 -21.5t-25.5 -57.5t-29 -61.5t-33 -61.5t-41 -65.5t-47 -55.5t-56.5 -50q-72 -45 -135 -45t-98 27.5 t-42 59.5t-7 56.5zM246 461q104 106 206.5 268t150.5 275.5t48 154.5t-14 41q-20 0 -77.5 -81t-155 -291t-158.5 -367z" />
<glyph unicode="&#x13d;" horiz-adv-x="1527" d="M-12.5 -31q0.5 117 153.5 205q174 102 471 102q106 0 193 -16q53 82 81.5 141.5t45.5 92.5h-23q-129 0 -239.5 43t-175.5 114q-86 98 -86 219q0 63 31.5 137t141 150t277.5 115q27 6 45.5 6t22.5 -10.5t-16.5 -18.5t-47.5 -12q-88 -10 -162 -57q-133 -86 -184 -260 q-12 -41 -12 -79t14 -91.5t61.5 -109.5t128 -78.5t141 -22.5t112.5 6l151 352q174 440 399 530q49 20 104.5 20.5t101.5 -42.5t49 -84t3 -68q0 -248 -210.5 -472t-540.5 -279q-18 -39 -33 -72q-25 -55 -102 -188q406 -100 671 -305q135 -104 183 -256q25 -78 24.5 -133.5 t-22 -93.5t-50 -52t-41 -14t-12.5 10t23.5 60t23.5 118t-28.5 149.5t-106.5 150.5t-216 129.5t-239.5 86t-271.5 58.5q-174 -244 -362 -334q-113 -55 -200 -55.5t-155 34.5q-117 57 -116.5 174zM31 -59q0 -53 58 -87t128 -34q96 0 209 53q170 82 315 289 q-100 23 -206.5 22.5t-219.5 -30.5q-236 -61 -276 -174q-8 -20 -8 -39zM1047 557q281 61 463 259t182 446q0 74 -64 73q-100 0 -244 -190q-96 -125 -190 -311q-63 -102 -147 -277zM1714.5 1494q-2.5 9 11.5 13q100 31 113 127q-20 -14 -43.5 -14t-38 17.5t-11.5 43t24.5 43 t48.5 17.5q59 0 59 -73t-45 -116t-104 -61q-12 -6 -14.5 3z" />
<glyph unicode="&#x13e;" horiz-adv-x="757" d="M70 139.5q0 24.5 2 63.5q6 66 25.5 127t21.5 69q47 170 134 371t147.5 302.5t95.5 137.5q70 74 137 74q47 0 63 -67q2 -12 2 -31q0 -70 -49 -176q-176 -391 -420 -615q-2 -8 -18 -56t-27.5 -92t-11.5 -88t20.5 -82t65.5 -38q74 0 143.5 99.5t147.5 252.5q16 29 31 23 q10 -8 4 -21.5t-25.5 -57.5t-29 -61.5t-33 -61.5t-41 -65.5t-47 -55.5t-56.5 -50q-72 -45 -135 -45t-98 27.5t-42 59.5t-7 56.5zM246 461q104 106 206.5 268t150.5 275.5t48 154.5t-14 41q-20 0 -77.5 -81t-155 -291t-158.5 -367zM768 911.5q0 10.5 16 16.5q61 20 104.5 66 t51.5 112q-27 -20 -59.5 -20.5t-53 24.5t-14.5 59q4 35 34 59.5t67.5 24.5t59 -32.5t21.5 -77.5q0 -90 -62.5 -150.5t-144.5 -87.5q-8 -4 -14 -4t-6 10.5z" />
<glyph unicode="&#x13f;" horiz-adv-x="1818" d="M-12.5 -31q0.5 117 153.5 205q174 102 471 102q106 0 193 -16q92 143 215 395h-23q-129 0 -239.5 43t-175.5 117q-86 96 -86 217q0 63 31.5 137t141 150t277.5 115q27 6 45.5 6t22.5 -10.5t-16.5 -18.5t-47.5 -12q-88 -10 -164 -60q-131 -84 -182 -258q-12 -41 -12 -78.5 t14.5 -91t61.5 -110t128 -79t141 -22.5t112 7l174 438q180 463 430 569q66 27 128 27t118.5 -40t60.5 -97q2 -25 2 -48q0 -178 -115.5 -372.5t-319.5 -339t-421 -180.5q-125 -252 -180 -353l-43 -69q406 -100 671 -305q135 -104 183 -256q25 -78 24.5 -133.5t-22 -93.5 t-50 -52t-41 -14t-12.5 10t23.5 60t23.5 118t-28.5 149.5t-106.5 150.5t-216 129.5t-239.5 86t-271.5 58.5q-174 -244 -362 -334q-113 -55 -200 -55.5t-155 34.5q-117 57 -116.5 174zM31 -59q0 -53 58 -87t128 -34q96 0 209 53q170 82 315 289q-100 23 -206.5 22.5 t-219.5 -30.5q-236 -61 -276 -174q-8 -20 -8 -39zM1135 719q285 63 513 312t228 523q0 78 -72 78q-104 0 -254 -182q-117 -145 -224 -351t-191 -380zM1286 502q4 35 34 59.5t64.5 24.5t55 -24.5t14.5 -59.5t-34.5 -59.5t-63.5 -24.5t-55.5 24.5t-14.5 59.5z" />
<glyph unicode="&#x141;" horiz-adv-x="1527" d="M-12.5 -29q0.5 117 153.5 205q174 102 471 103q106 0 193 -17q49 78 102 176q-193 -10 -284 -20q-14 -2 -26.5 22.5t-6.5 50t33 25.5l325 -2q25 43 72 143h-23q-129 0 -239.5 43t-175.5 115q-86 98 -86 219q0 63 31.5 137t141 150t277.5 115q27 6 45.5 6t22.5 -10.5 t-16.5 -18.5t-47.5 -12q-88 -10 -164 -58q-131 -86 -182 -260q-12 -41 -12 -78.5t14.5 -91t61.5 -109.5t128 -79t141 -23t112 7l174 438q193 475 442 571q59 23 120.5 23t115 -42t58.5 -85t5 -78q0 -166 -112.5 -355.5t-320.5 -334t-425 -180.5l-74 -154q123 0 295 -4 q35 -2 43 -27q-4 -25 -35 -28q-129 0 -340 -11l-69 -129l-43 -69q406 -100 671 -305q135 -104 183 -254q25 -80 24.5 -135.5t-22 -93.5t-50 -52t-41 -14t-12.5 10t23.5 60.5t23.5 118t-28.5 149.5t-106.5 150.5t-216 129t-239.5 86t-271.5 58.5q-174 -244 -362 -334 q-113 -55 -200 -55.5t-155 34.5q-117 57 -116.5 174zM31 -57q0 -53 58 -87t128 -34q96 0 209 53q170 82 315 289q-100 23 -206.5 22.5t-219.5 -30.5q-236 -61 -276 -174q-8 -20 -8 -39zM1135 721q285 63 513 312t228 523q0 78 -72 78q-104 0 -254 -182q-117 -145 -224 -351 t-191 -380z" />
<glyph unicode="&#x142;" horiz-adv-x="434" d="M2 367q0 23 29 32l98 39q111 367 301 684q96 162 203 162q47 0 63 -67q2 -12 2 -31q0 -70 -49 -176q-131 -297 -299 -490l135 49q20 8 23 -8q-2 -18 -25 -31l-196 -79q-18 -18 -58 -56q-2 -8 -18 -56t-27.5 -92t-11.5 -88t20.5 -82t65.5 -38q74 0 143.5 99.5t147.5 252.5 q16 29 31 23q10 -8 4 -21.5t-25.5 -57.5t-29 -61.5t-33 -61.5t-41 -65.5t-47 -55.5t-56.5 -50q-72 -45 -130 -45t-91 16q-51 27 -63 121q-2 10 -2 29.5t8 62.5q12 66 37 148l-95 -43q-10 -6 -12 6t-2 31zM254 485q12 2 22 9q205 222 342 546q33 78 33 119t-14 41 q-20 0 -68 -67q-123 -174 -315 -648z" />
<glyph unicode="&#x143;" horiz-adv-x="2127" d="M43 592q0 115 61.5 265.5t202.5 289.5q268 264 574 330q82 18 144 18t105 -8q119 -16 187 -113q51 -74 51 -188q0 -119 -45 -242q-14 -35 -20.5 -53.5t-23.5 -58t-24 -54.5q-43 -92 -51 -108l-49 -117q2 2 27 41q113 193 284 397q248 303 451 395q115 53 198 53.5 t138 -40.5t55 -139.5t-63.5 -240.5t-184.5 -362.5t-203.5 -401.5t-82.5 -323q0 -49 14 -90q27 -84 100 -84q43 0 88 20.5t66 20.5q25 0 24.5 -24.5t-36 -45t-60.5 -20.5q-305 0 -305 258q0 98 33 197.5t237.5 529.5t221.5 543q2 17 2 31q0 80 -93 80q-61 0 -141 -41 q-391 -190 -713 -787q-168 -311 -297 -602q-25 -53 -104 -53q-51 0 -53 33q-2 4 0 10q92 135 257 498.5t224 633.5q20 90 21 148q0 158 -89 217q-53 35 -127 35q-178 0 -401 -142q-291 -180 -420 -473q-68 -154 -67 -280q0 -70 20 -131q53 -158 217 -158q199 0 346 168 q115 129 115 252q0 113 -109 123q-25 2 -48 -1t-27 4t2 15q16 23 114.5 23t128.5 -88q10 -31 11 -66q0 -86 -68 -194q-111 -180 -303 -244q-82 -29 -186.5 -29t-197.5 78t-122 219q-6 35 -6 76zM1952 1526q0 4 4 10t54 43t109.5 79t86 61.5t52.5 19.5t42 -8 q23 -10 22.5 -24.5t-8.5 -31t-168.5 -90.5t-171.5 -74q-23 0 -22 15z" />
<glyph unicode="&#x144;" d="M-80 -14q33 66 129 268q172 358 225 410q25 25 68 24q8 0 42 -6t50 -2q-76 -41 -248 -385q96 119 175 189.5t190 131t162 60.5q12 0 22 -4q-252 -442 -252 -578q0 -53 39 -53q104 0 281 354q12 29 27.5 21t0.5 -39q-109 -219 -183.5 -302t-149 -83t-113.5 57 q-20 27 -20 73t20.5 111.5t112.5 212.5q23 37 22.5 58.5t-35 21.5t-133.5 -92q-147 -135 -284 -405q-12 -20 -27.5 -25.5t-61 -7.5t-59.5 -10zM528 859q0 7 4.5 13.5t58.5 47.5t117.5 85t92 65.5t56.5 21.5t49.5 -10.5t21.5 -26t-6 -27.5q-10 -25 -184 -103.5t-197 -78.5 q-2 0 -7.5 3t-5.5 10z" />
<glyph unicode="&#x145;" horiz-adv-x="2127" d="M-6 651q0 123 65.5 286t219.5 312q291 287 614 355q90 18 157.5 18t114.5 -6q127 -18 199 -121q57 -80 57 -203q0 -111 -24.5 -185.5t-32.5 -98t-29.5 -72.5t-28 -63.5t-32.5 -73.5q-86 -186 -82 -189l63 103q125 193 271 368q270 328 485 426q121 57 211 57.5 t150.5 -43.5t60.5 -150.5t-67.5 -259.5t-197.5 -390.5t-220 -432t-90 -345.5q0 -53 14 -97q29 -94 110 -94q45 0 93.5 22.5t73 22.5t24.5 -26.5t-39 -48t-63 -21.5q-328 0 -328 285q0 104 36 210.5t255 567.5t237 582q4 18 4 34q0 86 -100 86q-68 0 -154 -45 q-322 -154 -612 -587q-172 -256 -391 -728q-80 -172 -84 -180q-29 -59 -115 -59q-51 0 -55 33q-2 6 0 14q98 145 275.5 537.5t242.5 683.5q20 96 20.5 170.5t-20.5 128.5q-43 109 -145 125q-31 4 -86.5 4t-165 -32t-246.5 -118q-309 -193 -449 -502q-76 -168 -75 -309 q0 -72 18 -135q68 -170 238 -178q211 0 368 176q127 141 127 278q0 131 -137 131q-16 0 -35.5 -2t-24.5 5.5t3 15.5q18 25 121.5 25t136.5 -91q14 -35 14 -73q0 -88 -65 -201q-111 -184 -306 -262q-100 -41 -222 -41t-221 83t-130 234q-6 39 -6 84zM1354 -504q0 10 16 15 q127 43 139 159q-27 -18 -55.5 -18t-45.5 22.5t-13 54t30.5 53t61.5 21.5t56.5 -25.5t21.5 -62.5q0 -82 -60.5 -141t-132.5 -84q-6 -2 -12 -2t-6 8z" />
<glyph unicode="&#x146;" d="M-80 -14q33 66 129 268q172 358 225 410q25 25 68 24q8 0 42 -6t50 -2q-76 -41 -248 -385q96 119 175 189.5t190 131t162 60.5q12 0 22 -4q-252 -442 -252 -578q0 -53 39 -53q104 0 281 354q12 29 24.5 23t12.5 -16.5t-9 -24.5q-109 -219 -183.5 -302t-149 -83t-113.5 57 q-20 27 -20 73t20.5 111.5t112.5 212.5q23 37 22.5 58.5t-35 21.5t-133.5 -92q-147 -135 -284 -405q-12 -20 -27.5 -25.5t-61 -7.5t-59.5 -10zM102 -420q0 10 17 14q127 43 139 160q-27 -18 -55.5 -18t-46 22.5t-13.5 54t31 53t61.5 21.5t56 -25.5t21.5 -62.5 q0 -82 -60 -141t-132 -84q-6 -2 -12.5 -2t-6.5 8z" />
<glyph unicode="&#x147;" horiz-adv-x="2127" d="M43 592q0 115 61.5 265.5t202.5 289.5q268 264 574 330q82 18 144 18t105 -8q119 -16 187 -113q51 -74 51 -188q0 -119 -45 -242q-14 -35 -20.5 -53.5t-23.5 -58t-24 -54.5q-43 -92 -51 -108l-49 -117q2 2 27 41q113 193 284 397q248 303 451 395q115 53 198 53.5 t138 -40.5t55 -139.5t-63.5 -240.5t-184.5 -362.5t-203.5 -401.5t-82.5 -323q0 -49 14 -90q27 -84 100 -84q43 0 88 20.5t66 20.5q25 0 24.5 -24.5t-36 -45t-60.5 -20.5q-305 0 -305 258q0 98 33 197.5t237.5 529.5t221.5 543q2 17 2 31q0 80 -93 80q-61 0 -141 -41 q-391 -190 -713 -787q-168 -311 -297 -602q-25 -53 -104 -53q-51 0 -53 33q-2 4 0 10q92 135 257 498.5t224 633.5q20 90 21 148q0 158 -89 217q-53 35 -127 35q-178 0 -401 -142q-291 -180 -420 -473q-68 -154 -67 -280q0 -70 20 -131q53 -158 217 -158q199 0 346 168 q115 129 115 252q0 113 -109 123q-25 2 -48 -1t-27 4t2 15q16 23 114.5 23t128.5 -88q10 -31 11 -66q0 -86 -68 -194q-111 -180 -303 -244q-82 -29 -186.5 -29t-197.5 78t-122 219q-6 35 -6 76zM1968 1718q-6 12 12 13h12q11 0 17 -13l94 -145q244 131 271 145 q14 12 34.5 12.5t20.5 -5t-4 -7.5l-305 -217q-39 -6 -57.5 -6t-20.5 6z" />
<glyph unicode="&#x148;" d="M-80 -14q33 66 129 268q172 358 225 410q25 25 68 24q8 0 42 -6t50 -2q-76 -41 -248 -385q96 119 175 189.5t190 131t162 60.5q12 0 22 -4q-252 -442 -252 -578q0 -53 39 -53q104 0 281 354q12 29 27.5 21t0.5 -39q-109 -219 -183.5 -302t-149 -83t-113.5 57 q-20 27 -20 73t20.5 111.5t112.5 212.5q23 37 22.5 58.5t-35 21.5t-133.5 -92q-147 -135 -284 -405q-12 -20 -27.5 -25.5t-61 -7.5t-59.5 -10zM502 1107q0 5 18.5 5t24.5 -12l94 -146q243 132 270 146q14 12 35 12t21 -5t-4 -7l-306 -217q-37 -6 -57 -6t-20 6l-74 217 q-2 2 -2 7z" />
<glyph unicode="&#x14a;" horiz-adv-x="2127" d="M-4 724q0 89 33 206q49 170 183 319.5t284 237.5q233 135 460 135q49 0 99 -6q129 -18 214 -121.5t85 -282.5q0 -156 -72 -358q-6 -14 -21.5 -61.5t-37 -109.5t-21.5 -73q0 -6 25 49l26 54q109 203 228 368q231 328 432 426q115 57 204 57.5t156 -44.5q82 -55 82 -189 q0 -203 -181 -737.5t-300 -769.5q-289 -561 -696 -631q-76 -12 -169.5 -12t-193.5 35q-162 55 -237 198q-45 86 -45.5 175t20 170t83 148.5t102.5 70t1 -24.5q-43 -20 -92 -96q-68 -98 -67 -232q0 -137 75 -227q102 -115 238 -143q96 -23 155.5 -23t104.5 14q176 45 328 185 q109 100 239 344q82 150 161 366.5t143.5 404t116.5 417t52 366.5t-114 137q-66 0 -146 -45q-416 -211 -712 -964q-68 -168 -126.5 -338t-66.5 -193q-20 -59 -108 -59q-53 0 -60 35q-2 6 0 12q82 145 210 537.5t159 683.5q6 51 6 119.5t-29 152.5q-53 158 -245 158 q-184 0 -408 -152q-285 -190 -389 -500q-43 -131 -43 -241.5t39 -202.5q82 -176 260 -180q209 0 346 174q96 123 96 246q0 145 -123 163q-14 2 -31.5 2t-36 -2t-24.5 5.5t0 15.5q16 25 120.5 25t150.5 -93q23 -47 22.5 -113.5t-45.5 -160.5q-84 -178 -262 -256 q-100 -45 -224 -45t-233.5 83t-159.5 234q-20 68 -20 157z" />
<glyph unicode="&#x14b;" d="M-477 -518q0 53 31 121q53 104 192 168q104 49 276.5 91t221.5 56q51 88 65 119l58 117q10 53 24.5 99t106.5 193q23 37 22.5 58.5t-35 21.5t-133.5 -92q-147 -135 -284 -405q-12 -20 -27.5 -25.5t-61 -7.5t-59.5 -10q33 66 129 268q172 358 225 410q25 25 68 24 q8 0 42 -6t50 -2q-76 -41 -248 -385q96 119 175 189.5t190 131t162 60.5q12 0 22 -4q-252 -442 -252 -578q0 -53 39 -53q104 0 281 354q12 29 24.5 23t12.5 -16.5t-9 -24.5q-109 -219 -183.5 -302t-153.5 -83q-49 0 -84 26q-53 -98 -162 -294q-250 -371 -531 -371 q-96 0 -145 38t-49 91zM-430.5 -526q0.5 -37 29 -58.5t69.5 -21.5q119 0 256 123q193 172 281 336q-340 -90 -424 -127q-134 -57 -189 -170q-23 -45 -22.5 -82z" />
<glyph unicode="&#x14c;" horiz-adv-x="1579" d="M100 997q0 246 211 412q225 176 532.5 176t509 -171t201.5 -488v-41q205 135 267 258q10 23 26.5 19.5t16.5 -13.5t-13 -29q-121 -190 -305 -307q-8 -96 -52 -231.5t-148.5 -279.5t-243.5 -253q-227 -174 -461 -174q-246 0 -358 182q-80 133 -80 296t59 325 q-143 96 -158 258q-4 31 -4 61zM211 999q0 -162 88 -237q80 170 236 344q170 190 358 233q31 6 79 6.5t111 -38.5q14 -8 15.5 -16.5t-9 -12.5t-31 3t-68.5 7t-138 -49t-182 -154q-182 -207 -267 -393q129 -59 310 -59q80 0 170 10q293 39 547 176q4 56 4 109q0 346 -222 512 q-147 111 -344 110q-57 0 -116 -10q-250 -37 -408 -207q-133 -147 -133 -334zM309 334q0 -283 170 -367q92 -43 183.5 -43t177.5 39q180 82 323.5 256t216.5 383q29 83 37 146q-342 -182 -721 -183q-184 0 -323 56q-63 -166 -64 -287zM907 1679l27 62h436l-24 -62h-439z" />
<glyph unicode="&#x14d;" d="M59 188q0 86 45 185q61 143 173 243.5t212 100.5q150 0 150 -189q0 -86 -45 -184q-57 -133 -172 -242q27 -51 96 -51q55 0 105 55q61 63 87.5 111.5t39 71t32 64.5t23.5 51.5t14 9.5q20 2 21 -15q0 -6 -4 -14l-13 -29q-12 -29 -18 -41t-21.5 -43.5t-27 -50t-30.5 -49.5 t-34.5 -49.5t-38 -41t-43.5 -34.5q-51 -31 -96 -31q-84 0 -131 54q-94 -70 -174 -70q-150 0 -150 188zM174 137.5q0 -94.5 72 -94.5q51 0 114 55q-33 47 -32 101q4 88 71 88q27 0 44.5 -18.5t17.5 -34t-4 -31.5q35 51 80 145q51 104 51 204.5t-76 100.5q-55 0 -131 -73.5 t-135 -200.5q-72 -147 -72 -241.5zM324 842l26 61h436l-24 -61h-438z" />
<glyph unicode="&#x150;" horiz-adv-x="1579" d="M70 893q0 246 211 412q225 176 532 176t509 -171t202 -489v-41q205 135 266 258q10 23 26.5 20t16.5 -13.5t-12 -28.5q-121 -190 -305 -307q-8 -96 -52.5 -231.5t-149 -279.5t-245.5 -253q-225 -174 -459 -174q-246 0 -356 182q-82 133 -82 296t59 324q-143 96 -157 258 q-4 31 -4 62zM180 895q0 -162 88 -238q80 170 236 344q170 190 360 234q29 6 77 6t112 -39q14 -8 15 -16t-9 -12.5t-30.5 3t-69 7.5t-138.5 -49.5t-182 -153.5q-182 -207 -266 -393q129 -59 309 -60q80 0 170 13q293 37 547 174q4 55 4 108q0 346 -221 512 q-147 111 -344 111q-57 0 -117 -10q-250 -37 -408 -207q-133 -147 -133 -334zM279 229q0 -283 170 -366q92 -43 183 -43t179 41q178 80 321.5 254t217.5 383q28 82 36 145q-342 -182 -720 -182q-184 0 -324 55q-63 -166 -63 -287zM1181 1481q-3 8 5 50t17 89t9 57 q12 51 50 62q8 2 12 2q26 0 26 -22.5t-47 -130t-57 -113.5q-12 -2 -15 6zM1374 1442l33 188q12 51 49 62q6 2 12 2q27 0 27 -22.5t-47 -130t-53 -111t-9 -3.5q-12 1 -12 15z" />
<glyph unicode="&#x151;" d="M59 188q0 86 45 185q61 143 173 243.5t212 100.5q150 0 150 -189q0 -86 -45 -184q-57 -133 -172 -242q27 -51 96 -51q55 0 105 55q61 63 87.5 111.5t39 71t32 64.5t23.5 51.5t14 9.5q20 2 21 -15q0 -6 -4 -14l-13 -29q-12 -29 -18 -41t-21.5 -43.5t-27 -50t-30.5 -49.5 t-34.5 -49.5t-38 -41t-43.5 -34.5q-51 -31 -96 -31q-84 0 -131 54q-94 -70 -174 -70q-150 0 -150 188zM174 137.5q0 -94.5 72 -94.5q51 0 114 55q-33 47 -32 101q4 88 71 88q27 0 44.5 -18.5t17.5 -34t-4 -31.5q35 51 80 145q51 104 51 204.5t-76 100.5q-55 0 -131 -73.5 t-135 -200.5q-72 -147 -72 -241.5zM408 870l41 228q12 63 59 76q8 2 22.5 2t22.5 -20.5t-53.5 -158t-68.5 -140.5t-9 -3q-14 0 -14 16zM647.5 867.5q-0.5 13.5 8 59.5t20.5 103t14 68q8 63 58 76q6 2 20 2t27 -23q6 -18 -55.5 -155.5t-68.5 -140.5t-9 -3q-14 0 -14.5 13.5z " />
<glyph unicode="&#x152;" horiz-adv-x="3057" d="M100 997q0 246 211 412q225 176 532.5 176t509 -171t201.5 -488v-41q74 51 134 98q-31 45 -31 98q0 176 172 317.5t368.5 195t339.5 53.5q49 0 95 -5q182 -20 270 -90.5t88 -148.5q0 -94 -100.5 -182t-257.5 -123q-39 -8 -62.5 -8t-25.5 10q-4 18 49 33q12 2 28 4 q57 6 116 51t89.5 108.5t30.5 125t-57 108.5q-76 63 -231.5 63t-315.5 -48t-290 -159.5t-144 -244.5l2 2q10 23 31.5 18.5t-1.5 -41.5l-32 -47q10 -74 66.5 -122t128 -68.5t142 -36t115.5 -39t41 -62.5q-8 -36 -88 -36l-235 2q-289 0 -441 -142q-158 -145 -157 -340 q0 -252 239 -358q127 -55 336 -55t441.5 88t377.5 209q158 133 158 237q0 55 -59.5 69.5t-62.5 31t26.5 13.5t54.5 -15q111 -55 111 -148q0 -117 -154 -248q-154 -129 -405.5 -207.5t-539.5 -78.5t-467 115.5t-208 291.5q-168 -176 -371 -256q-111 -45 -210 -45t-185 29 q-117 37 -190 155q-80 133 -80 296t59 325q-143 96 -158 258q-4 31 -4 61zM211 999q0 -162 88 -237q80 170 236 344q170 190 358 233q31 6 79 6.5t111 -38.5q14 -8 15.5 -16.5t-9 -12.5t-31 3t-68.5 7t-138 -49t-182 -154q-182 -207 -267 -393q129 -59 310 -59q80 0 170 10 q293 39 547 176q4 56 4 109q0 346 -222 512q-147 111 -344 110q-57 0 -116 -10q-250 -37 -408 -207q-133 -147 -133 -334zM309 334q0 -283 170 -367q90 -45 190.5 -45t211.5 62q209 111 362 344q31 123 115 219q47 107 59 201q-342 -182 -721 -183q-184 0 -323 56 q-63 -166 -64 -287zM1524 682q195 113 418 125q-147 51 -228 141q-70 -74 -168 -135q-2 -59 -22 -131z" />
<glyph unicode="&#x153;" horiz-adv-x="925" d="M59 188q0 86 45 185q61 143 173 243.5t212 100.5q68 0 105 -42t43 -112q78 102 186 148q45 18 88 18t82 -24q35 -29 35 -64q0 -123 -149 -235q-45 -35 -126 -63t-124 -28q-29 -70 -29 -155q0 -57 25.5 -91t72.5 -34q186 0 338 350q14 33 35 29q6 -2 6 -10.5t-4 -20.5 q-86 -188 -133 -250q-106 -141 -260 -141q-78 0 -134.5 49t-60.5 135q-150 -176 -278 -176q-147 0 -148 188zM174 137.5q0 -94.5 70 -94.5q51 0 120.5 63.5t127.5 155.5q23 113 86 217q8 45 8 78q0 96 -74 96q-55 0 -131 -73.5t-135 -200.5q-72 -147 -72 -241.5zM641 350 q37 0 103.5 24.5t115.5 65.5q113 97 113 203q0 41 -33 41q-57 0 -174 -141q-53 -61 -125 -193z" />
<glyph unicode="&#x154;" horiz-adv-x="2097" d="M57.5 92q-0.5 43 46.5 94q72 74 191 74q82 0 176 -33q31 -12 16 -24q-10 -4 -28 0q-63 25 -125 24.5t-106 -47.5t-44 -85t11 -64q37 -96 180 -97q82 0 168 36t154.5 92.5t147.5 161t128 185t101 173t132 236t121 210.5q121 205 221 318q-106 10 -213 10 q-246 0 -484.5 -50.5t-379.5 -166.5q-176 -145 -176 -312q0 -80 56.5 -141t152.5 -61q119 0 196.5 83t81.5 132q2 27 13 24q12 -4 12 -28q-12 -88 -74 -154q-104 -111 -254 -111q-115 0 -196.5 76t-81.5 203q0 190 183 339.5t482 192.5q211 31 391.5 31t333.5 -22 q49 55 68 55q12 0 10 -23l-8 -41q164 -31 188 -36q285 -82 285 -256q0 -119 -149 -232q-174 -129 -457 -176q-86 -12 -174 -16q27 -158 86 -314q102 -270 221 -368q39 -35 90 -35q68 0 148.5 81t173.5 275q18 29 31.5 27t0.5 -27q-109 -246 -195.5 -341t-197 -95t-213 108.5 t-171 309t-95.5 356.5q-59 -119 -94 -184.5t-101.5 -163.5t-138.5 -178q-127 -135 -261 -188.5t-255 -53.5q-254 0 -311 141q-14 33 -14.5 76zM1274 715h22.5t42.5 2q102 12 174 22q221 29 375 172q109 106 109 205q0 129 -172 182q-39 10 -187 37q-23 -39 -162 -264 t-202 -356zM1694 1524q0 6 3 12t54 43t110.5 79t84 62.5t51 20.5t43.5 -10q25 -10 24.5 -24.5t-6.5 -27.5q-10 -23 -170.5 -95.5t-183.5 -72.5q-2 0 -6 3.5t-4 9.5z" />
<glyph unicode="&#x155;" horiz-adv-x="532" d="M-57 92q0 6 4 14q115 152 198.5 359t116.5 393q12 63 57.5 63.5t65.5 -57.5q6 -18 6 -43q0 -92 -117 -174q41 -2 110 -2t173 10q4 -6 4 -32.5t-24.5 -78.5t-44 -90t-37 -72t-39 -83t-35.5 -90q-51 -156 16 -156q86 0 254 342q14 27 26.5 19t-1.5 -39q-45 -92 -76 -149.5 t-96 -133.5q-78 -94 -150 -94q-80 0 -110 96q-6 18 -6 55t23.5 98.5t74.5 149.5t57 103.5t6 29.5q0 63 -163 68l-25 -66q-129 -338 -248 -452q-20 -18 -20 12zM399 1037q0 7 4.5 13.5t58.5 47.5t117.5 85t92 65.5t56.5 21.5t49.5 -10.5t21.5 -25.5t-6 -28 q-10 -25 -184 -103.5t-197 -78.5q-2 0 -7.5 3t-5.5 10z" />
<glyph unicode="&#x156;" horiz-adv-x="2097" d="M37 151q0 46 47 99q76 84 209 84q90 0 190 -35q27 -10 21 -22.5t-53.5 6t-114 18.5t-114.5 -51t-48 -107q0 -25 10 -53q41 -106 193 -106q168 0 297 100q74 57 133 116.5t127 159.5q106 154 181 286t162 289t128 228q131 223 240 342q-115 10 -230 11q-262 0 -521 -54.5 t-411 -179.5q-190 -158 -190 -336q0 -86 61.5 -152.5t165.5 -66.5q127 0 211 90t88 144q2 27 12 26q16 0 15 -31q-14 -98 -80 -165q-115 -119 -274 -119q-121 0 -210 82t-89 219q0 203 197.5 363.5t518.5 207.5q229 33 423 33t358 -23q53 57 73 58q12 0 12.5 -19.5 t-10.5 -48.5q152 -25 203 -39q307 -90 307 -278q0 -121 -149 -240q-188 -145 -504 -196q-90 -14 -188 -19q66 -362 227 -610q55 -84 101 -122t100 -38q74 0 156.5 82t191.5 299q16 31 33 31q16 0 2 -31q-119 -266 -211 -366.5t-212 -100.5t-230.5 115.5t-184.5 331 t-102 385.5q-66 -131 -103 -200t-108.5 -175.5t-149.5 -192.5q-242 -260 -547 -260q-276 0 -344 150q-16 35 -16 81zM946 -440q0 10 17 14q127 43 139 160q-27 -18 -55.5 -18.5t-46 22t-13.5 54.5t30.5 53.5t61.5 21.5t56.5 -25.5t21.5 -62.5q0 -82 -60.5 -141.5 t-131.5 -83.5q-6 -2 -12.5 -2.5t-6.5 8.5zM1348 825q45 8 132 15.5t126 11.5q233 29 397 182q125 114 125 223q0 16 -4 33q-23 115 -182 164q-49 14 -201 39q-37 -63 -180.5 -296.5t-212.5 -371.5z" />
<glyph unicode="&#x157;" horiz-adv-x="532" d="M-57 92q0 6 4 14q115 152 198.5 359t116.5 393q12 63 57.5 63.5t65.5 -57.5q6 -18 6 -43q0 -92 -117 -174q41 -2 110 -2t173 10q4 -6 4 -32.5t-24.5 -78.5t-44 -90t-37 -72t-39 -83t-35.5 -90q-51 -156 16 -156q86 0 254 342q14 27 23.5 21t9.5 -15.5t-26.5 -63.5 t-57.5 -111.5t-96 -133.5q-78 -94 -150 -94q-80 0 -110 96q-6 18 -6 55t23.5 98.5t74.5 149.5t57 103.5t6 29.5q0 63 -163 68l-25 -66q-129 -338 -248 -452q-20 -18 -20 12zM2 -401q0 10 16 14q127 43 140 160q-27 -18 -55.5 -18.5t-46 22t-13.5 54.5t30.5 53.5t61.5 21.5 t56.5 -25.5t21.5 -62.5q0 -82 -60.5 -141.5t-132.5 -84.5q-6 -2 -12 -2t-6 9z" />
<glyph unicode="&#x158;" horiz-adv-x="2097" d="M57.5 92q-0.5 43 46.5 94q72 74 191 74q82 0 176 -33q31 -12 16 -24q-10 -4 -28 0q-63 25 -125 24.5t-106 -47.5t-44 -85t11 -64q37 -96 180 -97q82 0 168 36t154.5 92.5t147.5 161t128 185t101 173t132 236t121 210.5q121 205 221 318q-106 10 -213 10 q-246 0 -484.5 -50.5t-379.5 -166.5q-176 -145 -176 -312q0 -80 56.5 -141t152.5 -61q119 0 196.5 83t81.5 132q2 27 13 24q12 -4 12 -28q-12 -88 -74 -154q-104 -111 -254 -111q-115 0 -196.5 76t-81.5 203q0 190 183 339.5t482 192.5q211 31 391.5 31t333.5 -22 q49 55 68 55q12 0 10 -23l-8 -41q164 -31 188 -36q285 -82 285 -256q0 -119 -149 -232q-174 -129 -457 -176q-86 -12 -174 -16q27 -158 86 -314q102 -270 221 -368q39 -35 90 -35q68 0 148.5 81t173.5 275q18 29 31.5 27t0.5 -27q-109 -246 -195.5 -341t-197 -95t-213 108.5 t-171 309t-95.5 356.5q-59 -119 -94 -184.5t-101.5 -163.5t-138.5 -178q-127 -135 -261 -188.5t-255 -53.5q-254 0 -311 141q-14 33 -14.5 76zM1274 715h22.5t42.5 2q102 12 174 22q221 29 375 172q109 106 109 205q0 129 -172 182q-39 10 -187 37q-23 -39 -162 -264 t-202 -356zM1745 1726q-6 12 12 13h11q12 0 18 -13l94 -145q243 131 270 145q14 12 35 12.5t21 -4.5t-4 -8l-306 -217q-37 -6 -57 -6t-20 6z" />
<glyph unicode="&#x159;" horiz-adv-x="532" d="M-57 92q0 6 4 14q115 152 198.5 359t116.5 393q12 63 57.5 63.5t65.5 -57.5q6 -18 6 -43q0 -92 -117 -174q41 -2 110 -2t173 10q4 -6 4 -32.5t-24.5 -78.5t-44 -90t-37 -72t-39 -83t-35.5 -90q-51 -156 16 -156q86 0 254 342q14 27 26.5 19t-1.5 -39q-45 -92 -76 -149.5 t-96 -133.5q-78 -94 -150 -94q-80 0 -110 96q-6 18 -6 55t23.5 98.5t74.5 149.5t57 103.5t6 29.5q0 63 -163 68l-25 -66q-129 -338 -248 -452q-20 -18 -20 12zM410 1295q0 5 18 5t25 -12l94 -145q243 131 270 145q14 12 34.5 12t20.5 -5t-4 -7l-305 -217q-39 -6 -57.5 -6 t-20.5 6l-73 217q-2 2 -2 7z" />
<glyph unicode="&#x15a;" horiz-adv-x="1845" d="M-14 238q0 139 101 307t249 237q31 12 46 8t-26 -38q-88 -70 -141 -154q-115 -180 -115 -391q0 -139 78 -244q139 -186 484 -213q39 -2 115.5 -2t208.5 27.5t255 91.5q260 137 332 350q20 63 20 119q0 139 -125 242q-63 51 -263.5 137t-268.5 131q-150 98 -150 235 q0 109 88.5 204t233.5 149q168 57 350 57t283 -47q106 -53 131 -154q4 -23 4 -41q0 -78 -61.5 -128t-121 -65.5t-59.5 5.5q-2 23 49 29q96 10 117 96q4 21 4 39q0 70 -65 131q-90 86 -248 86q-137 0 -282.5 -52.5t-210 -124t-64.5 -147.5q0 -119 143 -207q53 -33 220 -107.5 t245 -123.5q209 -129 209 -315q0 -152 -164 -326q-96 -102 -250.5 -194.5t-386.5 -127.5q-117 -20 -227.5 -20t-210.5 16q-211 35 -362 164q-164 141 -164 361zM1495 1552q0 4 3 9.5t48 38t97.5 69.5t74 53.5t45.5 16.5q57 0 58 -35q0 -8 -4 -16q-10 -20 -152.5 -85 t-151.5 -65q-18 0 -18 14z" />
<glyph unicode="&#x15b;" horiz-adv-x="524" d="M-22.5 171q-0.5 38 25.5 73t54 37q104 199 179 358q82 174 190 174q29 0 56.5 -13.5t20.5 -29.5t-29.5 -6t-39 10t-28.5 -6q-70 -33 -70 -141q0 -57 16.5 -94t36.5 -80q47 -106 47 -174t-43 -133.5t-102 -106.5q27 -4 37 -4q82 0 161 96q43 53 154 268q4 10 14.5 11.5 t15.5 -6t-5.5 -30t-18.5 -42t-26.5 -56t-31.5 -59t-33.5 -55.5t-41.5 -51l-43 -45q-35 -35 -82 -50q-76 -25 -147 -4q-47 -20 -84 -20q-145 0 -176 114q-6 27 -6.5 65zM68 109q0 -12 2 -27q16 -55 75 -55q25 0 41 8q-76 47 -82 153q-36 -36 -36 -79zM92 276q43 0 43 -61 q0 -121 86 -162q90 70 90 226q0 63 -14 173.5t-14 149.5t2 53q-156 -311 -193 -379zM334 947q0 7 4 13.5t58.5 47.5t118 85t92 65.5t56 21.5t49 -10.5t21.5 -26t-6 -27.5q-10 -25 -184 -103.5t-197 -78.5q-2 0 -7 3t-5 10z" />
<glyph unicode="&#x15c;" horiz-adv-x="1845" d="M96.5 255q-0.5 148 92 308t225.5 225q29 12 43 8.5t-25 -36.5q-84 -70 -127 -146q-104 -168 -104 -352t106 -293q158 -158 455 -157q264 0 469 110q240 131 309 330q23 59 23 117q0 127 -113 227q-61 51 -249.5 135t-252.5 129q-139 98 -139 232q0 109 83 203t222 147 q152 55 324 55q346 0 391 -199q4 -20 4 -41q0 -74 -66 -133q-53 -41 -106 -56t-55 5q0 23 47 29q90 10 108 94q6 21 6 39q0 72 -63 131q-86 82 -231 82q-129 0 -291 -59q-84 -33 -144 -86q-94 -86 -94 -173q0 -117 137 -204q51 -33 208 -108t248 -133t132 -135t41 -142 q0 -94 -59 -193q-102 -170 -316 -303q-125 -78 -272.5 -116t-282.5 -38q-403 0 -583 224q-100 125 -100.5 273zM1415 1556.5q0 4.5 2 6.5l244 174q31 4 46 4t15 -4l60 -174q4 -8 -8 -11h-11.5t-13.5 11l-76 116q-195 -106 -215 -116q-12 -10 -27.5 -10.5t-15.5 4z" />
<glyph unicode="&#x15d;" horiz-adv-x="524" d="M-22.5 171q-0.5 38 25.5 73t54 37q104 199 179 358q82 174 192 174q25 0 43 -8l-88 137q-244 -131 -270 -145q-20 -18 -50 -11q-10 4 -2 11l306 217q39 6 57 6t20 -6l74 -217q4 -16 -20 -13q8 -14 -0.5 -21t-27.5 2t-35.5 9t-28.5 -6q-70 -33 -70 -141q0 -57 16.5 -94 t36.5 -80q47 -106 47 -174t-43 -133.5t-102 -106.5q27 -4 37 -4q82 0 161 96q43 53 154 268q4 10 14 11q18 2 19 -15q0 -4 -9.5 -23.5t-17.5 -39t-26.5 -56t-31.5 -59t-33.5 -55.5t-41.5 -51l-43 -45q-35 -35 -82 -50q-76 -25 -147 -4q-47 -20 -84 -20q-145 0 -176 114 q-6 27 -6.5 65zM68 109q0 -12 2 -27q16 -55 75 -55q25 0 41 8q-76 47 -82 153q-36 -36 -36 -79zM92 276q43 0 43 -61q0 -121 86 -162q90 70 90 226q0 63 -14 173.5t-14 149.5t2 53q-156 -311 -193 -379z" />
<glyph unicode="&#x15e;" horiz-adv-x="1845" d="M-4 332v22q0 139 101.5 307t248.5 238q31 12 46.5 8t-25.5 -39q-88 -70 -142 -153q-115 -180 -114 -391q0 -139 77 -244q139 -186 484 -211q39 -4 115.5 -4t208.5 27.5t255 91.5q264 139 342 360q25 66 25 127q0 139 -125 246q-68 53 -275.5 142t-279.5 136 q-158 106 -158 252q0 127 142 248q203 172 573 172q174 0 283.5 -52t134.5 -157q4 -20 4 -41q0 -80 -74 -143q-51 -41 -137 -66q-37 -10 -41 9q-4 27 51 32q98 12 121 99q6 23 6 43q0 72 -65 135q-94 90 -260 90q-145 0 -322 -64q-92 -33 -160 -90q-104 -90 -104 -180 q0 -121 153 -217q57 -35 230.5 -114t253.5 -128q121 -74 167 -157.5t46 -155.5q0 -102 -68 -209q-119 -190 -348 -328q-139 -82 -307 -120.5t-326 -38.5h-45l4 -7q-2 -2 -28 -20q-61 -41 -62 -51q41 6 104.5 6t141.5 -39t78 -120t-107 -152q-53 -35 -138 -35t-180 23.5 t-95 70.5q0 14 10 14t33 -22q49 -51 187 -51t185 73q29 43 29 91.5t-47 79t-99.5 30.5t-101.5 -24.5t-58 -24.5t-21.5 9t-12.5 20.5t13.5 26t135.5 104.5q-274 16 -461.5 147t-201.5 369z" />
<glyph unicode="&#x15f;" horiz-adv-x="524" d="M-176 -326q0 14 10 14.5t33 -22.5q49 -51 187.5 -51t185.5 74q29 43 28.5 91t-47.5 78.5t-99 30.5t-101.5 -24.5t-58.5 -24.5t-21.5 9.5t-12.5 20.5t10.5 21.5t65.5 53.5t80 57q-45 14 -72 47q-33 43 -32.5 84t6.5 69.5t26.5 52.5t44.5 26q104 199 179 358 q82 174 190 174q29 0 56.5 -13.5t20.5 -29.5t-29.5 -6t-39 10t-28.5 -6q-70 -33 -70 -141q0 -57 16.5 -94t36.5 -80q47 -106 47 -174t-43 -133.5t-102 -106.5q27 -4 37 -4q82 0 161 96q43 53 154 268q4 10 14 11q18 2 19 -15q0 -4 -9.5 -23.5t-17.5 -39t-26.5 -56t-31.5 -59 t-33.5 -55.5t-41.5 -51l-43 -45q-35 -35 -82 -50q-76 -25 -147 -4q-47 -20 -75 -20t-60 4q2 0 2 -4q-2 -2 -29 -21q-61 -41 -62 -51q41 6 104.5 6t141.5 -39t78 -119.5t-106 -152.5q-53 -35 -138.5 -35t-180.5 23.5t-95 70.5zM68 109q0 -12 2 -27q16 -55 75 -55q25 0 41 8 q-76 47 -82 153q-36 -36 -36 -79zM92 276q43 0 43 -61q0 -121 86 -162q90 70 90 226q0 63 -14 173.5t-14 149.5t2 53q-156 -311 -193 -379z" />
<glyph unicode="&#x160;" horiz-adv-x="1845" d="M-10 311q0 129 93 285t230 221q29 10 43.5 7t-22.5 -36q-88 -70 -131 -143q-106 -164 -106.5 -344t110.5 -287q162 -156 469 -155q274 0 479 108q244 129 315 332q23 63 23 119q0 129 -115 229q-61 51 -255.5 133t-258.5 125q-145 96 -145 234q0 119 129 231 q184 160 534 160q160 0 260 -49q129 -61 130 -185q0 -72 -68 -131q-51 -41 -105.5 -56t-58.5 1t14.5 22.5t30.5 8.5q92 10 113 94q4 19 4 37q0 70 -66 129q-88 82 -237 82q-131 0 -272.5 -51.5t-204 -119t-62.5 -141.5q0 -117 139 -200q51 -31 212 -104.5t237 -121.5 q113 -70 155 -146.5t42 -143.5q0 -94 -62 -195q-109 -174 -321 -303q-248 -147 -592 -147q-336 0 -531 170q-150 131 -149 331zM1618 1729q-4 8 4 9t16.5 1t16.5 -10l86 -132q219 120 244 132q12 10 31.5 10t19.5 -4t-4 -6l-277 -197q-35 -4 -51 -4t-18 4z" />
<glyph unicode="&#x161;" horiz-adv-x="524" d="M-22.5 171q-0.5 38 25.5 73t54 37q104 199 179 358q82 174 190 174q29 0 56.5 -13.5t20.5 -29.5t-29.5 -6t-39 10t-28.5 -6q-70 -33 -70 -141q0 -57 16.5 -94t36.5 -80q47 -106 47 -174t-43 -133.5t-102 -106.5q27 -4 37 -4q82 0 161 96q43 53 154 268q4 10 14.5 11.5 t15.5 -6t-5.5 -30t-18.5 -42t-26.5 -56t-31.5 -59t-33.5 -55.5t-41.5 -51l-43 -45q-35 -35 -82 -50q-76 -25 -147 -4q-47 -20 -84 -20q-145 0 -176 114q-6 27 -6.5 65zM68 109q0 -12 2 -27q16 -55 75 -55q25 0 41 8q-76 47 -82 153q-36 -36 -36 -79zM92 276q43 0 43 -61 q0 -121 86 -162q90 70 90 226q0 63 -14 173.5t-14 149.5t2 53q-156 -311 -193 -379zM336 1213.5q0 5.5 18.5 5.5t24.5 -13l94 -145q243 131 270 145q14 12 35 12.5t21 -5t-4 -7.5l-306 -217q-39 -6 -57 -6t-20 6l-74 217q-2 2 -2 7.5z" />
<glyph unicode="&#x162;" horiz-adv-x="2228" d="M61.5 423q-0.5 69 39.5 195.5t151 192.5q45 27 67 27q37 0 33 -35q-8 -10 -42 -34t-64.5 -49.5t-61.5 -78.5q-53 -90 -53 -203q0 -258 176 -397q94 -78 211 -119t234 -41h10q424 10 696 307q172 186 471 842q102 225 131 264q-362 115 -651 115t-469 -174 q-145 -139 -145 -291q0 -166 145 -211q51 -14 93 -14t96.5 15.5t104.5 63.5t75.5 95t21.5 72v4q16 14 28.5 9t12.5 -26q-20 -160 -162 -239q-86 -51 -159.5 -51t-130.5 20q-168 59 -213 227q-14 53 -15 105q0 123 76 239q135 209 424 252q66 10 125 10.5t138 -6t209 -41 t266 -81t163 -54.5q98 121 150 125q10 4 27.5 4t27.5 -28.5t-14 -36.5q-10 -2 -27 2q-12 8 -50 -26t-57 -56q193 -61 338.5 -89t208.5 -28q127 0 127 62q0 31 21.5 30.5t21.5 -50.5t-57 -76.5t-101.5 -26.5t-72.5 4q-301 39 -516 131q-145 -229 -260 -610 q-43 -137 -122 -297t-170 -263.5t-210 -169.5q-233 -127 -551 -127q-258 0 -483 127q-221 125 -258 385q-4 35 -4.5 104zM483 -623q0 10 17 15q127 43 139 159q-27 -18 -55.5 -18t-46 22.5t-13.5 54.5t31 53.5t61.5 21.5t56 -25.5t21.5 -62.5q0 -82 -60.5 -141.5 t-131.5 -84.5q-6 -2 -12.5 -2t-6.5 8z" />
<glyph unicode="&#x163;" horiz-adv-x="409" d="M16 -401q0 10 17 14q127 43 139 160q-27 -18 -55.5 -18.5t-46 22t-13.5 54.5t31 53.5t61.5 21.5t56 -25.5t21.5 -62.5q0 -82 -60.5 -141.5t-131.5 -84.5q-6 -2 -12.5 -2t-6.5 9zM66 164q0 170 163 569h-106q-10 0 -13.5 11.5t2 22.5t15.5 11h123q74 162 137.5 270.5 t116.5 146.5t76.5 38t33.5 -4q47 -23 47.5 -93.5t-47 -171t-92.5 -186.5h99q10 0 13 -11t-2 -22.5t-16 -11.5h-118q-113 -190 -273 -338l-47 -209q-6 -27 -6 -52t14.5 -52t44.5 -27q35 0 78 25q98 74 217 309q8 18 19.5 22.5t13.5 -5t-6 -29.5q-68 -141 -107 -201 q-111 -178 -235 -178q-63 0 -104 47t-41 119zM244 461q111 114 207 272h-97q-25 -57 -110 -272zM375 778h102q135 242 135 336q0 41 -14 41q-23 0 -69 -65.5t-154 -311.5z" />
<glyph unicode="&#x164;" horiz-adv-x="2228" d="M49 310.5q0 68.5 40 195.5t151 192q45 27 67 27q37 0 33 -35q-8 -10 -42 -33.5t-64.5 -49t-61.5 -79.5q-53 -90 -53 -202q0 -258 176 -400q94 -76 211 -116.5t233 -40.5h11q424 10 696 307q172 186 471 842q102 225 131 264q-362 115 -651 114.5t-469 -174.5 q-145 -139 -146 -291q0 -166 146 -210q51 -14 93 -14.5t96 15t104.5 63.5t76 95t21.5 72v4q16 14 28.5 9t12.5 -25q-20 -160 -162 -242q-86 -49 -159.5 -49t-131.5 20q-168 59 -213 228q-14 53 -14 104q0 123 76 240q135 209 424 252q66 10 125 10t138 -6t209 -41t266 -81 t163 -54q98 121 149 125q10 4 27.5 4t28 -29t-14.5 -37q-10 -2 -21.5 2t-20.5 0t-23.5 -16.5t-23.5 -20.5t-25.5 -25.5t-18.5 -19.5q193 -61 338.5 -89t208.5 -28q127 0 127 62q0 31 21.5 31t21.5 -50.5t-57.5 -77t-101.5 -26.5t-73 4q-301 39 -516 131q-145 -229 -260 -610 q-43 -137 -121.5 -297t-170 -263.5t-209.5 -166.5q-233 -129 -551 -129q-258 0 -484 127q-221 125 -258 387q-4 33 -4 101.5zM2157 1733.5q0 5.5 18 5.5t25 -13l94 -145q243 131 270 145q14 12 34.5 12.5t20.5 -4.5t-4 -8l-305 -217q-37 -6 -57.5 -6t-20.5 6l-73 217 q-2 2 -2 7.5z" />
<glyph unicode="&#x165;" horiz-adv-x="903" d="M66 164q0 170 163 569h-106q-10 0 -13.5 11.5t2 22.5t15.5 11h123q74 162 137.5 270.5t116.5 146.5t76.5 38t33.5 -4q47 -23 47.5 -93.5t-47 -171t-92.5 -186.5h99q10 0 13 -11t-2 -22.5t-16 -11.5h-118q-113 -190 -273 -338l-47 -209q-6 -27 -6 -52t14.5 -52t44.5 -27 q35 0 78 25q98 74 217 309q8 18 19.5 22.5t13.5 -5t-6 -29.5q-68 -141 -107 -201q-111 -178 -235 -178q-63 0 -104 47t-41 119zM244 461q111 114 207 272h-97q-25 -57 -110 -272zM375 778h102q135 242 135 336q0 41 -14 41q-23 0 -69 -65.5t-154 -311.5zM707 897q0 10 16 16 q61 20 104 66.5t52 112.5q-27 -20 -60 -20.5t-53.5 24t-13.5 59.5q4 35 33.5 59.5t67.5 24.5t59.5 -33t21.5 -78q0 -90 -62.5 -150t-144.5 -87q-8 -4 -14 -4t-6 10z" />
<glyph unicode="&#x166;" horiz-adv-x="2228" d="M61.5 423q-0.5 69 39.5 195.5t151 192.5q45 27 67 27q37 0 33 -35q-8 -10 -42 -34t-64.5 -49.5t-61.5 -78.5q-53 -90 -53 -203q0 -258 176 -397q94 -78 211 -119t234 -41h10q424 10 696 307q156 168 367 623h-256l33 41h243q23 47 54.5 117.5t52 113.5t43.5 91 q41 92 65 120q-362 115 -651 115t-469 -174q-145 -139 -145 -291q0 -166 145 -211q51 -14 93 -14t96.5 15.5t104.5 63.5t75.5 95t21.5 72v4q16 14 28.5 9t12.5 -26q-20 -160 -162 -239q-86 -51 -159.5 -51t-130.5 20q-168 59 -213 227q-14 53 -15 105q0 123 76 239 q135 209 424 252q66 10 125 10.5t138 -6t209 -41t266 -81t163 -54.5q100 123 150 125q10 4 27.5 4t27.5 -28.5t-14 -36.5q-10 -2 -27 2q-12 8 -50 -26t-57 -56q193 -61 338.5 -89t208.5 -28q127 0 127 62q0 31 21.5 30.5t21.5 -50.5t-57 -76.5t-101.5 -26.5t-72.5 4 q-301 39 -516 131q-102 -162 -195 -422h213l-31 -41h-198q-6 -16 -33 -93t-35 -99.5t-33.5 -90t-40 -96.5t-41 -85t-51.5 -93q-76 -115 -119 -164q-80 -90 -198 -156q-233 -127 -551 -127q-258 0 -483 127q-221 125 -258 385q-4 35 -4.5 104z" />
<glyph unicode="&#x167;" horiz-adv-x="409" d="M8 479l25 27h112q41 123 84 227h-106q-10 0 -13.5 11.5t2 22.5t15.5 11h123q74 162 137.5 270.5t116.5 146.5t76.5 38t33.5 -4q47 -23 47.5 -93.5t-47 -171t-92.5 -186.5h99q10 0 13 -11t-2 -22.5t-16 -11.5h-118q-76 -127 -164 -227h106l-24 -27h-107q-37 -43 -84 -84 l-47 -209q-6 -27 -6 -52t14.5 -52t44.5 -27q35 0 78 25q98 74 217 309q8 18 19.5 22.5t13.5 -5t-6 -29.5q-68 -141 -107 -201q-110 -178 -235 -178q-63 0 -104 47t-41 130t69 304h-127zM244 461l16 18h-10zM262 506h23q86 98 166 227h-97q-59 -137 -92 -227zM375 778h102 q135 242 135 336q0 41 -14 41q-23 0 -69 -65.5t-154 -311.5z" />
<glyph unicode="&#x168;" horiz-adv-x="1929" d="M-8 742.5q0 263.5 201 514.5q162 203 434 353q236 131 454 131q115 0 213 -41q199 -86 199 -330q0 -182 -117 -452q-68 -160 -130 -292t-103 -267.5t-41 -227.5q0 -172 115 -172q123 0 288 205l56 76q82 119 212 378t132 261q61 109 114 108q57 -29 33 -98 q-20 -57 -57 -123q-156 -281 -209 -596q-14 -86 -14 -156q0 -141 75 -141h23q37 0 37 -16q0 -25 -45 -31h-25q-68 12 -104.5 71.5t-39.5 122t-3 103.5q0 117 26 244q-145 -240 -286 -355q-133 -106 -252 -106q-86 0 -134 55q-61 74 -61 185.5t63.5 293t169 412.5t137 358 t31.5 228q0 150 -79 196q-96 51 -218 52q-217 0 -464 -144q-367 -215 -496 -543q-53 -137 -53 -250.5t39 -205.5q86 -209 299 -209q250 0 399 254q82 135 82 239q0 154 -139 154q-33 0 -83 -11.5t-46 1.5q6 16 61 40.5t111 24.5q84 0 127 -71q29 -51 28.5 -121t-34.5 -164 q-78 -207 -267 -320q-139 -86 -266 -86t-225 76q-168 129 -168 392.5zM1610 1403q72 127 159 127q43 0 115 -29q78 -33 123 -33t78 60q2 6 10 6t21 -4l4 -4q-66 -137 -160 -137q-41 0 -113 30q-78 35 -123 35t-73 -55q-4 -12 -33 -2q-6 4 -8 6z" />
<glyph unicode="&#x169;" horiz-adv-x="731" d="M45 119q0 88 76 213q-33 0 -19 33l37 71q70 133 115 226q20 43 80 43h125q-74 -53 -148.5 -206t-115.5 -240t-41 -132t15 -63.5t42 -18.5q39 0 108 82q109 127 306 535q23 43 80 43h110q-45 -35 -70.5 -72t-70.5 -131q-123 -246 -137 -326q-6 -29 -7 -53q0 -66 45 -70 q111 0 273 342q12 29 27.5 21t-6 -53.5t-39 -80t-53.5 -95t-66 -95.5q-80 -90 -157 -90t-105 68q-12 31 -12.5 78t20.5 116q-150 -262 -277 -262q-111 0 -129 92q-6 11 -6 25zM377 864q72 127 160 127q43 0 114 -28q78 -33 123 -33t78 59q2 6 10 6t21 -4l4 -4 q-66 -137 -160 -137q-41 0 -113 31q-78 35 -123 34.5t-73 -55.5q-4 -12 -33 -2q-6 4 -8 6z" />
<glyph unicode="&#x16a;" horiz-adv-x="1929" d="M-8 742.5q0 263.5 201 514.5q162 203 434 353q236 131 454 131q115 0 213 -41q199 -86 199 -330q0 -182 -117 -452q-68 -160 -130 -292t-103 -267.5t-41 -227.5q0 -172 115 -172q123 0 288 205l56 76q82 119 212 378t132 261q61 109 114 108q57 -29 33 -98 q-20 -57 -57 -123q-156 -281 -209 -596q-14 -86 -14 -156q0 -141 75 -141h23q37 0 37 -16q0 -25 -45 -31h-25q-68 12 -104.5 71.5t-39.5 122t-3 103.5q0 117 26 244q-145 -240 -286 -355q-133 -106 -252 -106q-86 0 -134 55q-61 74 -61 185.5t63.5 293t169 412.5t137 358 t31.5 228q0 150 -79 196q-96 51 -218 52q-217 0 -464 -144q-367 -215 -496 -543q-53 -137 -53 -250.5t39 -205.5q86 -209 299 -209q250 0 399 254q82 135 82 239q0 154 -139 154q-33 0 -83 -11.5t-46 1.5q6 16 61 40.5t111 24.5q84 0 127 -71q29 -51 28.5 -121t-34.5 -164 q-78 -207 -267 -320q-139 -86 -266 -86t-225 76q-168 129 -168 392.5zM1616 1292l26 62h437l-25 -62h-438z" />
<glyph unicode="&#x16b;" horiz-adv-x="731" d="M45 119q0 88 76 213q-33 0 -19 33l37 71q70 133 115 226q20 43 80 43h125q-74 -53 -148.5 -206t-115.5 -240t-41 -132t15 -63.5t42 -18.5q39 0 108 82q109 127 306 535q23 43 80 43h110q-45 -35 -70.5 -72t-70.5 -131q-123 -246 -137 -326q-6 -29 -7 -53q0 -66 45 -70 q111 0 273 342q12 29 24.5 23t12.5 -16.5t-18.5 -47.5t-36 -71.5t-53.5 -95t-66 -95.5q-80 -90 -157 -90t-105 68q-12 31 -12.5 78t20.5 116q-150 -262 -277 -262q-111 0 -129 92q-6 11 -6 25zM397 842l27 61h436l-24 -61h-439z" />
<glyph unicode="&#x16c;" horiz-adv-x="1929" d="M-8 742.5q0 263.5 201 514.5q162 203 434 353q236 131 454 131q115 0 213 -41q199 -86 199 -330q0 -182 -117 -452q-68 -160 -130 -292t-103 -267.5t-41 -227.5q0 -172 115 -172q123 0 288 205l56 76q82 119 212 378t132 261q61 109 114 108q57 -29 33 -98 q-20 -57 -57 -123q-156 -281 -209 -596q-14 -86 -14 -156q0 -141 75 -141h23q37 0 37 -16q0 -25 -45 -31h-25q-68 12 -104.5 71.5t-39.5 122t-3 103.5q0 117 26 244q-145 -240 -286 -355q-133 -106 -252 -106q-86 0 -134 55q-61 74 -61 185.5t63.5 293t169 412.5t137 358 t31.5 228q0 150 -79 196q-96 51 -218 52q-217 0 -464 -144q-367 -215 -496 -543q-53 -137 -53 -250.5t39 -205.5q86 -209 299 -209q250 0 399 254q82 135 82 239q0 154 -139 154q-33 0 -83 -11.5t-46 1.5q6 16 61 40.5t111 24.5q84 0 127 -71q29 -51 28.5 -121t-34.5 -164 q-78 -207 -267 -320q-139 -86 -266 -86t-225 76q-168 129 -168 392.5zM1690 1612q0 51 34 51q8 0 14.5 -13.5t15.5 -34t22 -32.5q53 -51 124.5 -51t109.5 16.5t56.5 33.5t49.5 58q20 27 41 13q4 -5 4 -11q0 -61 -113 -133q-74 -47 -153.5 -47t-137.5 29q-68 35 -67 121z" />
<glyph unicode="&#x16d;" horiz-adv-x="731" d="M45 119q0 88 76 213q-33 0 -19 33l37 71q70 133 115 226q20 43 80 43h125q-74 -53 -148.5 -206t-115.5 -240t-41 -132t15 -63.5t42 -18.5q39 0 108 82q109 127 306 535q23 43 80 43h110q-45 -35 -70.5 -72t-70.5 -131q-123 -246 -137 -326q-6 -29 -7 -53q0 -66 45 -70 q111 0 273 342q12 29 24.5 23t12.5 -16.5t-18.5 -47.5t-36 -71.5t-53.5 -95t-66 -95.5q-80 -90 -157 -90t-105 68q-12 31 -12.5 78t20.5 116q-150 -262 -277 -262q-111 0 -129 92q-6 11 -6 25zM375 1051q0 51 35 51q8 0 14 -13.5t15.5 -34t21.5 -32.5q53 -51 124.5 -51 t109.5 16.5t56.5 33.5t49.5 58q20 27 41 13q4 -5 4 -11q0 -61 -113 -133q-74 -47 -153.5 -47t-137.5 29q-68 35 -67 121z" />
</font>
</defs>
</svg>
