<?xml version="1.0" encoding="utf-8"?>
<!-- Generator: Adobe Illustrator 24.0.2, SVG Export Plug-In . SVG Version: 6.00 Build 0)  -->
<svg version="1.1" id="Layer_1" xmlns="http://www.w3.org/2000/svg" xmlns:xlink="http://www.w3.org/1999/xlink" x="0px" y="0px"
	 viewBox="0 0 60 60" style="enable-background:new 0 0 60 60;" xml:space="preserve">
<style type="text/css">
	.st0{fill:#86BAA3;}
</style>
<g id="_x5B____x3E___x5D_">
	<g>
		<path class="st0" d="M51.6,21.3c0,0-0.4-3-1.8-4.4c-1.7-1.8-3.5-1.8-4.4-1.8C39.2,14.6,30,14.6,30,14.6s-9.2,0-15.4,0.4
			c-0.9,0.1-2.7,0.1-4.4,1.8c-1.3,1.3-1.8,4.4-1.8,4.4S8,24.2,8,27.8v4.4c0,3.5,0.4,6.7,0.4,6.7s0.4,3,1.8,4.4
			c1.7,1.8,3.9,1.7,4.8,1.8c3.5,0.4,15,0.3,15,0.3s9.2,0.1,15.4-0.4c0.9-0.1,2.7-0.1,4.4-1.8c1.3-1.3,1.8-4.4,1.8-4.4
			s0.4-3.1,0.4-6.7v-4.4C52,24.2,51.6,21.3,51.6,21.3z M24.1,35.9V24.1L35.9,30L24.1,35.9z"/>
	</g>
</g>
</svg>
